<svg width="65" height="63" xmlns="http://www.w3.org/2000/svg"><g fill="none" fill-rule="evenodd"><path d="M-16-33h96v96h-96z"/><path d="M9.5005893 12l-5.50038131 7v17c-1.66678222 1.6666667-2.50017332 3-2.50017332 4S1.33335644 42.3333333 1 44v18.000409c0 .5522848.44771525 1 1 1l61.0040905.0001364c.5522847 0 1-.4477153 1-1v-.0001364L64 33c-.07285-4.0463192-.5-5.5-.9959788-6.5-.3306526-.6666667-1.4974002-2.1666667-3.5002427-4.5-2.002519 3-3.1692666 4.6666667-3.5002427 5-.3309761.3333333-.9976889 2-2.0001386 5v11L52 43.0162354v-8.0160991L51 30l-3-3.5-3 3.5-1 5.0001363V43h-.9970881V20L37.5025306 9h-3.000208l-5.5003814 11v23.0162354h-2.0001386V38c.3333564-4 0-6.5-1.0000693-7.5-1.0000694-1-2.1668169-2.5-3.5002427-4.5-3.3335644 4.3333333-5.1670249 6.6666667-5.5003813 7v18.5h-3.000208V19l-4.500312-7z" fill="#D0EDE7"/><path stroke="#394149" stroke-width="2" d="M5 26h8v15H5zM2 47v15h24V40h-8v12h-8v-5H2z"/><path d="M19 37v-6.4615385L21 28v9h-2zm4-1v-8h2v8h-2z" fill="#44CDC8"/><path d="M19.6274669 31.6624764C18.625012 33.0659133 18.2602308 34.4746159 18.5166175 36h7.1536102c.521226-1.6001285.3332066-3.0339582-.5430504-4.4447689-.8691748-1.399408-1.7866723-2.859417-2.7525005-4.3800314-.8059095 1.5557116-1.7217777 3.0516717-2.7472099 4.4872767zm1.7214007-6.9465573c.0799961-.1749392.2087497-.3230941.3708248-.4267028.4653429-.2974767 1.0837303-.1613944 1.3812071.3039484 1.3265472 2.0751722 2.5683035 4.044112 3.7252443 5.9068353C28.2753813 32.8333333 28.3333333 35.3333333 27 38H17c-1-2.6666667-.6666667-5.1666667 1-7.5 1.3042583-1.8259616 2.4205475-3.7539886 3.3488676-5.7840809z" fill="#394149" fill-rule="nonzero"/><path fill="#44CDC8" d="M45 30h6v2h-6z"/><path d="M46.08859587 30.83331224c-.53537493.72275615-.74921628 1.41199274-.6468616 2.16668776h4.90658035c.01252651-.78906568-.21809957-1.53158875-.69638278-2.27414284-.54076639-.83956178-1.13646803-1.71268989-1.78707664-2.61913421-.53391943.93989368-1.12609902 1.84887287-1.77625933 2.72658929zm2.49744137-4.09375099a.99999343.99999343 0 0 0 .03903767-.07209065 26.54485008 26.54485008 0 0 1-.01347747.02748693l-.0255602.04460372zm-1.75722081-.95155382c.06965951-.14227598.17212324-.2659673.29895144-.36088572.44217105-.33092151 1.06888641-.24073594 1.39980025.20144085 1.05309216 1.40712178 1.98834723 2.74521998 2.80576521 4.01429458C52.40684257 31.30952381 52.62906479 33.0952381 52 35h-8c-.91358025-1.9047619-.75308642-3.69047619.48148148-5.35714286.90448248-1.22105134 1.68692746-2.50600125 2.34733495-3.85484971z" fill="#394149" fill-rule="nonzero"/><path d="M6 23v-6.46153846L8 14v9H6zm4-1v-8h2v8h-2z" fill="#44CDC8"/><path d="M6.73648628 17.49227788C5.91639158 18.92744361 5.5687762 20.4135855 5.69008762 22h6.98530379c.54636449-1.6279466.39948349-3.08784009-.41187769-4.50772212-.84724975-1.48268705-1.83762478-3.04094232-2.97120446-4.67394625-.85138402 1.62406572-1.70330229 3.18203505-2.55582298 4.67394625zm3.2738351-6.06635225a.999964.999964 0 0 0 .03884591-.06902976 171.33760396 171.33760396 0 0 1-.01229327.02402l-.02655264.04500976zm-1.74160306-.98007392c.07193221-.14057676.17613226-.26212093.30407074-.3546834.44747465-.32374433 1.07267115-.22344108 1.39641548.22403356C11.54456117 12.49270795 12.88817094 14.55429915 14 16.5c1.3333333 2.33333333 1.3333333 4.8333333 0 7.5H4c-.66666667-2.6666667-.33333333-5.16666667 1-7.5 1.08957277-1.90675235 2.17914555-3.92480179 3.26871832-6.05414829z" fill="#394149" fill-rule="nonzero"/><path d="M56 33v-6.46153846L58 24v9h-2zm4-1v-8h2v8h-2z" fill="#44CDC8"/><path d="M56.62746694 27.66247639C55.62501199 29.06591332 55.26023078 30.4746159 55.51661749 32h7.15361017c.52122604-1.6001285.33320664-3.03395824-.54305039-4.44476888-.86917482-1.39940804-1.78667223-2.85941699-2.75250042-4.38003141-.80590951 1.55571161-1.72177778 3.05167169-2.74720991 4.48727668zm1.72140067-6.9465573c.07999614-.17493916.20874973-.32309407.37082481-.42670278.46534285-.29747676 1.08373032-.16139441 1.38120708.30394843C61.42744668 22.66833686 62.66920304 24.63727667 63.8261438 26.5c.7765194 1.25022888 1.1961987 2.65407282 1.1738562 4-.0193559 1.1660103-.3810832 2.2621663-1 3.5H54c-1-2.6666667-.66666667-5.16666667 1-7.5 1.30425828-1.82596159 2.42054748-3.75398855 3.34886761-5.7840809z" fill="#394149" fill-rule="nonzero"/><path d="M3.5890411 37.17391304C3.21917808 37.69565217 1 39.7826087 1 40.826087c0 .6956521.12328767 2.0869565.36986301 4.173913H9.5068493c.4931507-2.7826087.6164384-4.5217391.369863-5.2173913-.2465753-.69565218-1.10958901-2.08695653-2.58904107-4.17391305L5.43835616 33c-.98630137 2.43478261-1.60273972 3.82608696-1.84931506 4.17391304z" fill="#D0EDE7"/><path d="M2 40h8v2H2v-2zm0-3h8v2H2v-2z" fill="#44CDC8"/><path d="M5.40066488 31.88660007c-.74107197 1.69286668-1.75865335 3.57297771-3.05266658 5.64339887-.84876437 1.358023-1.28855133 2.48036556-1.34969637 3.52825276-.03546561.6078.18874166 1.602525.68651841 2.9417483h8.67647716c.910728-2.1448458.7774835-4.10132092-.3846373-5.97238445-1.1946731-1.92347402-2.71997143-3.9711386-4.57603452-6.14100216.00001831-2.2e-7.00002687-.00000258.00003365-.00000838zm-7.9e-7-1.6e-7a.00003093.00003093 0 0 0 .00000349-.00000603.00380232.00380232 0 0 0-.0000027.00000619z" stroke="#394149" stroke-width="2"/><path d="M62 35h1c.5522847 0 1 .4477153 1 1v26c0 .5522847-.4477153 1-1 1H28v-2h34V37h-6v8H28v-2h26v-7c0-.5522847.4477153-1 1-1h7z" fill="#394149"/><g transform="translate(28)"><path d="M13 28h2v14h-2V28zM3 42H1V28h2v14z" fill="#394149"/><rect stroke="#394149" stroke-width="2" x="1" y="22" width="14" height="4" rx="1"/><circle stroke="#394149" stroke-width="2" fill="#FBDEA4" cx="8" cy="2" r="1"/><path fill="#394149" d="M6 5h4v2H6z"/></g><g fill="#44CDC8"><path d="M34 53.6842105C34 51.6494772 35.790861 50 38 50s4 1.6494772 4 3.6842105V60h-8v-6.3157895zM48 53.6842105C48 51.6494772 49.790861 50 52 50s4 1.6494772 4 3.6842105V60h-8v-6.3157895zM7 56.2105263C7 54.9896863 7.8954305 54 9 54s2 .9896863 2 2.2105263V60H7v-3.7894737zM17 56.2105263C17 54.9896863 17.8954305 54 19 54s2 .9896863 2 2.2105263V60h-4v-3.7894737zM33 29h6v12h-6zM33 11h2v9h-2zM37 11h2v9h-2z"/></g><path stroke="#394149" stroke-width="2" d="M45 42v-5h6v5"/><path d="M35.8623014 9.30452513C35.668554 9.74737629 35.2604392 10 34.8424038 10h.7156273l.3042703-.69547487zM36.4419689 10l4.375 10H43L37.9700133 8.50288746C37.8371328 8.19916076 37.5153877 8 37.1575962 8h-2.3151924c-.3577915 0-.6795366.19916076-.8124171.50288746L29 20h2.1830311l4.375-10h.8839378zm4.375 10H43L37.9700133 8.50288746C37.8371328 8.19916076 37.5153877 8 37.1575962 8h-2.3151924c-.3577915 0-.6795366.19916076-.8124171.50288746L29 20h2.1830311l4.375-10h.8839378l4.375 10zm-5.2589378-10l.3042703-.69547487C35.668554 9.74737629 35.2604392 10 34.8424038 10h.7156273z" fill="#394149" fill-rule="nonzero"/></g></svg>
