<svg width="76" height="83" xmlns="http://www.w3.org/2000/svg"><g fill="none" fill-rule="evenodd"><path d="M0 22v59h76.0000247L76 22c-2e-7-.5522846-.4477154-.9999996-1-.9999996L68 21v-2.8333333c0-1.1045695-.8954305-2-2-2h-1c-1.1045695 0-2 .8954305-2 2V21h-6v-4.803441c0-.9223617-.6307782-1.7251037-1.5269706-1.9432558L40.0312418 10.494447V8H36v2.5l-15.4716091 3.7541404C19.6315092 14.4717662 19 15.2748342 19 16.1977414V21h-6v-2.8333333c0-1.1045695-.8954305-2-2-2h-1c-1.1045695 0-2 .8954305-2 2V21H1c-.55228475 0-1 .4477153-1 1z" fill="#FBDEA4"/><path fill="#394149" d="M23 26h2v24h-2zM20 26h2v24h-2zM20 56h2v22h-2zM51 26h2v24h-2zM54 26h2v24h-2zM54 56h2v22h-2zM0 56h2v22H0zM66 26h2v24h-2zM74 56h2v22h-2z"/><path d="M52 78V56m15 0v22M9 78V56m15 0v22" stroke="#394149" stroke-width="2"/><rect fill="#394149" y="51" width="76" height="4" rx="1"/><rect fill="#394149" y="21" width="76" height="4" rx="1"/><path d="M75 26v24M9 26v24m-8 0V26M35 11.5757576V9c0-.55228475.4477153-1 1-1h4c.5522847 0 1 .44771525 1 1v2.5757576l14.2448393 3.5971816c.444043.1121321.7551607.5115814.7551607.9695637V19H20v-2.8574971c0-.4579823.3111177-.8574316.7551607-.9695637L35 11.5757576z" stroke="#394149" stroke-width="2"/><path d="M30 64.6315789C30 60.969059 33.581722 58 38 58s8 2.969059 8 6.6315789V76H30V64.6315789z" fill="#FFAF00"/><path d="M10 20H8v-2c0-1.1045695.8954305-2 2-2h1c1.1045695 0 2 .8954305 2 2v2h-2v-2h-1v2zM65 20h-2v-2c0-1.1045695.8954305-2 2-2h1c1.1045695 0 2 .8954305 2 2v2h-2v-2h-1v2z" fill="#394149" fill-rule="nonzero"/><rect fill="#394149" y="79" width="76" height="4" rx="1"/><circle fill="#FFAF00" cx="38" cy="15" r="2"/><path fill="#394149" d="M37 0h2v7h-2zM39 0h4v4h-4z"/><path d="M13 30.2105263C13 28.9896863 13.8954305 28 15 28s2 .9896863 2 2.2105263V34h-4v-3.7894737zM28 45.2105263C28 43.9896863 28.8954305 43 30 43s2 .9896863 2 2.2105263V49h-4v-3.7894737zM28 30.2105263C28 28.9896863 28.8954305 28 30 28s2 .9896863 2 2.2105263V34h-4v-3.7894737zM36 45.2105263C36 43.9896863 36.8954305 43 38 43s2 .9896863 2 2.2105263V49h-4v-3.7894737zM36 30.2105263C36 28.9896863 36.8954305 28 38 28s2 .9896863 2 2.2105263V34h-4v-3.7894737zM44 45.2105263C44 43.9896863 44.8954305 43 46 43s2 .9896863 2 2.2105263V49h-4v-3.7894737zM44 30.2105263C44 28.9896863 44.8954305 28 46 28s2 .9896863 2 2.2105263V34h-4v-3.7894737zM59 45.2105263C59 43.9896863 59.8954305 43 61 43s2 .9896863 2 2.2105263V49h-4v-3.7894737zM13 45.2105263C13 43.9896863 13.8954305 43 15 43s2 .9896863 2 2.2105263V49h-4v-3.7894737zM59 30.2105263C59 28.9896863 59.8954305 28 61 28s2 .9896863 2 2.2105263V34h-4v-3.7894737zM11 68.4210526C11 65.9793727 12.790861 64 15 64s4 1.9793727 4 4.4210526V76h-8v-7.5789474zM57 68.4210526C57 65.9793727 58.790861 64 61 64s4 1.9793727 4 4.4210526V76h-8v-7.5789474z" fill="#FFAF00"/><path fill="#394149" fill-rule="nonzero" d="M4 30h2v16H4zM70 30h2v16h-2zM70 60h2v16h-2zM4 60h2v16H4z"/></g></svg>
