<svg width="76" height="68" xmlns="http://www.w3.org/2000/svg"><g fill="none" fill-rule="evenodd"><path d="M4 31v4H2v5H1c-.55228475 0-1 .4477153-1 1v26c0 .5522847.44771525 1 1 1h74c.5522847 0 1-.4477153 1-1V43c0-.5522847-.4477153-1-1-1h-1v-5h-2v-5h-4v5h-2v5h-1c-.5522847 0-1 .4477153-1 1v1H48V29c0-.5522847-.4477153-1-1-1h-3V14c0-.5522847-.4477153-1-1-1h-2V8c0-.55228475-.4477153-1-1-1h-1V4h-2v3h-1c-.5522847 0-1 .44771525-1 1v5h-2c-.5522847 0-1 .4477153-1 1v14h-3c-.5522847 0-1 .4477153-1 1v15H12v-3c0-.5522847-.4477153-1-1-1h-1v-5H8v-5H5c-.55228475 0-1 .4477153-1 1z" fill="#D1EEFC"/><path d="M17 53h2v2h-2v-2zm0 8h2v2h-2v-2zm0-12h2v2h-2v-2zm0 8h2v2h-2v-2zm4-4h2v2h-2v-2zm0 8h2v2h-2v-2zm0-12h2v2h-2v-2zm0 8h2v2h-2v-2zm32-4h2v2h-2v-2zm0 8h2v2h-2v-2zm0-12h2v2h-2v-2zm0 8h2v2h-2v-2zm4-4h2v2h-2v-2zm0 8h2v2h-2v-2zm0-12h2v2h-2v-2zm0 8h2v2h-2v-2zM3 53h2v2H3v-2zm0-4h2v2H3v-2zm0-4h2v2H3v-2zm0 16h2v2H3v-2zm0-4h2v2H3v-2zm4-4h2v2H7v-2zm0-4h2v2H7v-2zm0-4h2v2H7v-2zm0 16h2v2H7v-2zm0-4h2v2H7v-2zm28-20h2v2h-2v-2zm0 8h2v2h-2v-2zm0 4h2v2h-2v-2zm0-16h2v2h-2v-2zm0 8h2v2h-2v-2zm4-4h2v2h-2v-2zm0 8h2v2h-2v-2zm0 4h2v2h-2v-2zm0-16h2v2h-2v-2zm0 8h2v2h-2v-2zm28 13h2v2h-2v-2zm0-4h2v2h-2v-2zm0-4h2v2h-2v-2zm0 16h2v2h-2v-2zm0-4h2v2h-2v-2zm4-4h2v2h-2v-2zm0-4h2v2h-2v-2zm0-4h2v2h-2v-2zm0 16h2v2h-2v-2zm0-4h2v2h-2v-2z" fill="#738CE6"/><path fill="#394149" d="M69 28h2v3h-2zM5 26h2v3H5zM2 35h8v4H2zM4 30h4v4H4zM37 0h2v4h-2z"/><path d="M2 42v24h8V42H2zm-1-2h10c.5522847 0 1 .4477153 1 1v26c0 .5522847-.4477153 1-1 1H1c-.55228475 0-1-.4477153-1-1V41c0-.5522847.44771525-1 1-1zM66 44v22h8V44h-8zm-1-2h10c.5522847 0 1 .4477153 1 1v24c0 .5522847-.4477153 1-1 1H65c-.5522847 0-1-.4477153-1-1V43c0-.5522847.4477153-1 1-1zM51 46v20h10V46H51zm-1-2h12c.5522847 0 1 .4477153 1 1v22c0 .5522847-.4477153 1-1 1H50c-.5522847 0-1-.4477153-1-1V45c0-.5522847.4477153-1 1-1zM15 46v20h10V46H15zm-1-2h12c.5522847 0 1 .4477153 1 1v22c0 .5522847-.4477153 1-1 1H14c-.5522847 0-1-.4477153-1-1V45c0-.5522847.4477153-1 1-1zM30 30v36h16V30H30zm-1-2h18c.5522847 0 1 .4477153 1 1v38c0 .5522847-.4477153 1-1 1H29c-.5522847 0-1-.4477153-1-1V29c0-.5522847.4477153-1 1-1zM34 15v10h8V15h-8zm-1-2h10c.5522847 0 1 .4477153 1 1v12c0 .5522847-.4477153 1-1 1H33c-.5522847 0-1-.4477153-1-1V14c0-.5522847.4477153-1 1-1zM37 8v2h2V8h-2zm-1-2h4c.5522847 0 1 .44771525 1 1v4c0 .5522847-.4477153 1-1 1h-4c-.5522847 0-1-.4477153-1-1V7c0-.55228475.4477153-1 1-1z" fill="#394149" fill-rule="nonzero"/><path fill="#394149" d="M66 37h8v4h-8zM68 32h4v4h-4zM35 16h2v8h-2v-8zm4 0h2v8h-2v-8zm-7 16h2v20h-2V32zm10 0h2v20h-2V32zM32 53h12v2H32v-2zm0 3h2v9h-2v-9zm5 0h2v9h-2v-9zm5 0h2v9h-2v-9z"/></g></svg>
