<svg width="76" height="75" xmlns="http://www.w3.org/2000/svg"><g fill="none" fill-rule="evenodd"><path d="M-10-21h96v96h-96z"/><path d="M51 33v13.1899699h8v23.3792309h15V73H1.5v-3.4307992H17V46.7097289h8V26h7V15h2V6h3V4h2v2h3v9h2v11h7v7z" fill="#D0EDE7"/><path fill="#394149" d="M37 0h2v4h-2z"/><path d="M27 27v2h22v-2H27zm-1-2h24c.5522847 0 1 .4477153 1 1v4c0 .5522847-.4477153 1-1 1H26c-.5522847 0-1-.4477153-1-1v-4c0-.5522847.4477153-1 1-1zM19 68h-2V47c0-1.1045695.8954305-2 2-2h8c1.1045695 0 2 .8954305 2 2v21h-2V47h-8v21zM49 68h-2V47c0-1.1045695.8954305-2 2-2h8c1.1045695 0 2 .8954305 2 2v21h-2V47h-8v21zM2 71v2h72v-2H2zm-1-2h74c.5522847 0 1 .4477153 1 1v4c0 .5522847-.4477153 1-1 1H1c-.55228475 0-1-.4477153-1-1v-4c0-.5522847.44771525-1 1-1z" fill="#394149" fill-rule="nonzero"/><path d="M31 60h2v9h-2v-9zm4 0h2v9h-2v-9zm4 0h2v9h-2v-9zm4 0h2v9h-2v-9zM27 32h23c.5522847 0 1 .4477153 1 1v11h-2V34H27v10h-2V33c0-.5522847.4477153-1 1-1h1zM34 14h9c.5522847 0 1 .4477153 1 1v9h-2v-8h-8v8h-2v-9c0-.5522847.4477153-1 1-1h1zM36 5h5c.5522847 0 1 .44771525 1 1v7h-2V7h-4v6h-2V6c0-.55228475.4477153-1 1-1h1z" fill="#394149"/><g transform="translate(20 9)" fill="#44CDC8"><path d="M0 40h2v2H0v-2zm4 0h2v2H4v-2zm-4 4h2v2H0v-2zm4 0h2v2H4v-2zm-4 4h2v2H0v-2zm4 0h2v2H4v-2zm-4 4h2v2H0v-2zm4 0h2v2H4v-2zm-4 4h2v2H0v-2zm4 0h2v2H4v-2zM30 40h2v2h-2v-2zm4 0h2v2h-2v-2zm-4 4h2v2h-2v-2zm4 0h2v2h-2v-2zm-4 4h2v2h-2v-2zm4 0h2v2h-2v-2zm-4 4h2v2h-2v-2zm4 0h2v2h-2v-2zm-4 4h2v2h-2v-2zm4 0h2v2h-2v-2zM11 31h2v2h-2v-2zm4 0h2v2h-2v-2zm-4 4h2v2h-2v-2zm4 0h2v2h-2v-2zm-4 4h2v2h-2v-2zm4 0h2v2h-2v-2zm-4 4h2v2h-2v-2zm4 0h2v2h-2v-2zm-4 4h2v2h-2v-2zm4 0h2v2h-2v-2zm4-16h2v2h-2v-2zm4 0h2v2h-2v-2zm-4 4h2v2h-2v-2zm4 0h2v2h-2v-2zm-4 4h2v2h-2v-2zm4 0h2v2h-2v-2zm-4 4h2v2h-2v-2zm4 0h2v2h-2v-2zm-4 4h2v2h-2v-2zm4 0h2v2h-2v-2zM11 27h2v2h-2v-2zm4 0h2v2h-2v-2zm4 0h2v2h-2v-2zm4 0h2v2h-2v-2z"/><circle cx="18" cy="1" r="1"/><path d="M15 9h2v6h-2zM19 9h2v6h-2z"/></g></g></svg>
