<svg width="64" height="81" xmlns="http://www.w3.org/2000/svg"><g fill="none" fill-rule="evenodd"><path d="M-16-15h96v96h-96z"/><path d="M0 39.4364375V79c0 .5522847.44771525 1 1 1h62c.5522847 0 1-.4477153 1-1V19.0948609c-2.3333333-4.1768959-4.6666667-6.231887-7-6.1649733-1.3466975.0386197-4.5 2.4853933-5 3.9766293V8.95325843h-1V2c0-.55228475-.4477153-1-1-1H40c-.5522847 0-1 .44771525-1 1v6.95325843l-2.0386118 2.24943437C35.3075921 9.37134777 33.6537961 8.45584342 32 8.45617978c-2.3333333.00047456-4.6666667 2.15448202-7 6.46202242v9.9415731H14v-5.9649438c0-3.5845217-4.5-6.4620225-7-6.4620225s-7 4.4338443-7 6.4620225v20.541606z" fill="#FBDEA4"/><path d="M31 28h2v2h-4v-4h2v2zm19 33.2105263C50 59.9896863 50.8954305 59 52 59s2 .9896863 2 2.2105263V65h-4v-3.7894737zm-10 0C40 59.9896863 40.8954305 59 42 59s2 .9896863 2 2.2105263V65h-4v-3.7894737zm-10 0C30 59.9896863 30.8954305 59 32 59s2 .9896863 2 2.2105263V65h-4v-3.7894737zm-10 0C20 59.9896863 20.8954305 59 22 59s2 .9896863 2 2.2105263V65h-4v-3.7894737zm-10 0C10 59.9896863 10.8954305 59 12 59s2 .9896863 2 2.2105263V65h-4v-3.7894737zm40 13C50 72.9896863 50.8954305 72 52 72s2 .9896863 2 2.2105263V78h-4v-3.7894737zm-10 0C40 72.9896863 40.8954305 72 42 72s2 .9896863 2 2.2105263V78h-4v-3.7894737zm-10 0C30 72.9896863 30.8954305 72 32 72s2 .9896863 2 2.2105263V78h-4v-3.7894737zm-10 0C20 72.9896863 20.8954305 72 22 72s2 .9896863 2 2.2105263V78h-4v-3.7894737zm-10 0C10 72.9896863 10.8954305 72 12 72s2 .9896863 2 2.2105263V78h-4v-3.7894737zM17 46c.5522847 0 1 .4477153 1 1v3h-2v-3c0-.5522847.4477153-1 1-1zm-6 0c.5522847 0 1 .4477153 1 1v3h-2v-3c0-.5522847.4477153-1 1-1zm18 0c.5522847 0 1 .4477153 1 1v3h-2v-3c0-.5522847.4477153-1 1-1zm-6 0c.5522847 0 1 .4477153 1 1v3h-2v-3c0-.5522847.4477153-1 1-1zm18 0c.5522847 0 1 .4477153 1 1v3h-2v-3c0-.5522847.4477153-1 1-1zm-6 0c.5522847 0 1 .4477153 1 1v3h-2v-3c0-.5522847.4477153-1 1-1zm18 0c.5522847 0 1 .4477153 1 1v3h-2v-3c0-.5522847.4477153-1 1-1zm-6 0c.5522847 0 1 .4477153 1 1v3h-2v-3c0-.5522847.4477153-1 1-1zm-5.5-34c.8284271 0 1.5.6715729 1.5 1.5V16h-3v-2.5c0-.8284271.6715729-1.5 1.5-1.5zm0 6c.8284271 0 1.5.6715729 1.5 1.5V22h-3v-2.5c0-.8284271.6715729-1.5 1.5-1.5zm5 0c.8284271 0 1.5.6715729 1.5 1.5V22h-3v-2.5c0-.8284271.6715729-1.5 1.5-1.5zm0-6c.8284271 0 1.5.6715729 1.5 1.5V16h-3v-2.5c0-.8284271.6715729-1.5 1.5-1.5zM3 19h2v18H3V19zm3 0h2v18H6V19zm3 0h2v18H9V19zm44 0h2v18h-2V19zm3 0h2v18h-2V19zm3 0h2v18h-2V19zm-32-4h2v8h-2v-8zm3 0h2v8h-2v-8zm3 0h2v8h-2v-8z" fill="#FFAF00"/><path d="M41 3v2h8V3h-8zm-1-2h10c.5522847 0 1 .44771525 1 1v5H39V2c0-.55228475.4477153-1 1-1z" fill="#394149" fill-rule="nonzero"/><path d="M37 15v-5c0-.55228475.4477153-1 1-1h14c.5522847 0 1 .44771525 1 1v5M51 39h12V19c0-3.3137085-2.6862915-6-6-6s-6 2.6862915-6 6v20zM1 39h12V19c0-3.3137085-2.6862915-6-6-6s-6 2.6862915-6 6v20z" stroke="#394149" stroke-width="2"/><path d="M2 71v8h60v-8H2zm-2-2h64v11c0 .5522847-.4477153 1-1 1H1c-.55228475 0-1-.4477153-1-1V69z" fill="#394149" fill-rule="nonzero"/><path stroke="#394149" stroke-width="2" d="M1 57h62v10H1zM1 42h62v12H1zM25 33h12V15c0-3.3137085-2.6862915-6-6-6s-6 2.6862915-6 6v18z"/><path fill="#394149" d="M15 25h8v2h-8zM15 28h8v2h-8zM39 25h10v2H39zM39 28h10v2H39zM6 9h2v4H6V9zm1-1c-1.1045695 0-2-.8954305-2-2s.8954305-2 2-2 2 .8954305 2 2-.8954305 2-2 2zm23-3h2v4h-2V5zm1-1c-1.1045695 0-2-.8954305-2-2s.8954305-2 2-2 2 .8954305 2 2-.8954305 2-2 2zm25 5h2v4h-2V9zm1-1c-1.1045695 0-2-.8954305-2-2s.8954305-2 2-2 2 .8954305 2 2-.8954305 2-2 2zM15 36h34v2H15z"/></g></svg>
