<svg width="61" height="61" xmlns="http://www.w3.org/2000/svg"><g fill="none" fill-rule="evenodd"><path d="M-18-35h96v96h-96z"/><path d="M16 13V5.5L21 1l5 4.5V24h1.5l6.5-5 6.5 5H42V9.5c.5986947-1.78529415 1.0986947-2.95196081 1.5-3.5 1.1717957-1.60025299 2.6191594-2 3.5-2 .7450707 0 2.6201681.63170534 4 2.5.3688006.49935656.7021339 1.49935656 1 3V45h7l2 1.5V60c0 .5522847-.4477153 1-1 1H1c-.55228475 0-1-.4477153-1-1v-8.5L1 50h7v-1h1V39l1-1 5-1h1V13z" fill="#D1EEFC"/><path d="M29 32h10v-7.0801302l-5-4.2857142-5 4.2857142V32zm-2-8l6.3492086-5.4421788c.3744898-.3209912.927093-.3209912 1.3015828 0L41 24v10H27V24z" fill="#394149" fill-rule="nonzero"/><path fill="#394149" d="M30 49h8v2h-8z"/><path d="M55 59V47h4v12h-4zm-2 2h7c.5522847 0 1-.4477153 1-1V47c0-1.1045695-.8954305-2-2-2h-6v16z" fill="#394149" fill-rule="nonzero"/><path stroke="#394149" stroke-width="2" d="M17 14h8v46h-8zM43 14v46h8V14h-8zM28 36h12v24H28zM14 60V38h-3c-.5522847 0-1 .4477153-1 1v21h4z"/><path d="M6 59v-8H2v8h4zm2 2H1c-.55228475 0-1-.4477153-1-1v-9c0-1.1045695.8954305-2 2-2h6v12zM50 12V9.71428571C50 7.60795222 48.5930418 6 47 6s-3 1.60795222-3 3.71428571V12h-2V9.71428571C42 6.55837286 44.2385763 4 47 4s5 2.55837286 5 5.71428571V12h-2zm0 0V9.71428571C50 7.60795222 48.5930418 6 47 6s-3 1.60795222-3 3.71428571V12h-2V9.71428571C42 6.55837286 44.2385763 4 47 4s5 2.55837286 5 5.71428571V12h-2zM17.3850637 6.24277464L18 4.8v.85243575l-.6149363.59033889zM18 5.65243575l3-2.88 3 2.88V12h2V4.8L21.6925318.66483056c-.386962-.37148358-.9981016-.37148358-1.3850636 0L16 4.8V12h2V5.65243575zm3.6925318-3.54483055c-.386962.37148357-.9981016.37148357-1.3850636 0L21 2.77243575l.6925318-.66483055zm2.9224045 4.13516944L24 4.8v.85243575l.6149363.59033889zM24 4.8l.6149363 1.44277464L24 5.65243575V4.8zm0 7.2h2V4.8L21.6925318.66483056c-.386962-.37148358-.9981016-.37148358-1.3850636 0L16 4.8V12h2V5.65243575l3-2.88 3 2.88V12zm-2.3074682-9.8923948c-.386962.37148357-.9981016.37148357-1.3850636 0L21 2.77243575l.6925318-.66483055zM18 4.8l-.6149363 1.44277464L18 5.65243575V4.8z" fill="#394149" fill-rule="nonzero"/><path d="M21 17c.5522847 0 1 .4477153 1 1v3h-2v-3c0-.5522847.4477153-1 1-1zm0 6c.5522847 0 1 .4477153 1 1v3h-2v-3c0-.5522847.4477153-1 1-1zm0 6c.5522847 0 1 .4477153 1 1v3h-2v-3c0-.5522847.4477153-1 1-1zm0 6c.5522847 0 1 .4477153 1 1v3h-2v-3c0-.5522847.4477153-1 1-1zm0 6c.5522847 0 1 .4477153 1 1v3h-2v-3c0-.5522847.4477153-1 1-1zm0 6c.5522847 0 1 .4477153 1 1v3h-2v-3c0-.5522847.4477153-1 1-1zm0 6c.5522847 0 1 .4477153 1 1v3h-2v-3c0-.5522847.4477153-1 1-1zM47 17c.5522847 0 1 .4477153 1 1v3h-2v-3c0-.5522847.4477153-1 1-1zm0 6c.5522847 0 1 .4477153 1 1v3h-2v-3c0-.5522847.4477153-1 1-1zm0 6c.5522847 0 1 .4477153 1 1v3h-2v-3c0-.5522847.4477153-1 1-1zm0 6c.5522847 0 1 .4477153 1 1v3h-2v-3c0-.5522847.4477153-1 1-1zm0 6c.5522847 0 1 .4477153 1 1v3h-2v-3c0-.5522847.4477153-1 1-1zm0 6c.5522847 0 1 .4477153 1 1v3h-2v-3c0-.5522847.4477153-1 1-1zm0 6c.5522847 0 1 .4477153 1 1v3h-2v-3c0-.5522847.4477153-1 1-1zM34 52c1.1045695 0 2 .8954305 2 2v4h-4v-4c0-1.1045695.8954305-2 2-2zM34 44c.5522847 0 1 .4477153 1 1v3h-2v-3c0-.5522847.4477153-1 1-1z" fill="#738CE6"/></g></svg>
