<svg width="72" height="72" fill="none" xmlns="http://www.w3.org/2000/svg">
    <path fill="#fff" fill-opacity=".01" d="M0 0h72v72H0z"/>
    <path fill-rule="evenodd" clip-rule="evenodd" d="M70.592 17.86a2 2 0 0 0-1.414-2.45l-35.74-9.575a2 2 0 0 0-2.449 1.414L17.272 58.443a2 2 0 0 0 1.414 2.45l35.74 9.576a2 2 0 0 0 2.449-1.415L70.592 17.86z" fill="#FFDCDC"/>
    <path d="M69.626 17.602a1 1 0 0 0-.707-1.225L33.179 6.8a1 1 0 0 0-1.224.708L18.238 58.702a1 1 0 0 0 .707 1.224l35.739 9.577a1 1 0 0 0 1.225-.707L69.626 17.6z" stroke="#394149" stroke-width="2" stroke-linecap="round" stroke-linejoin="round"/>
    <path fill-rule="evenodd" clip-rule="evenodd" d="M31.592 43.645a1 1 0 0 0-.518 1.932l20.284 5.435a1 1 0 0 0 .518-1.932l-20.284-5.435zm-1.553 5.795a1 1 0 1 0-.518 1.932l11.591 3.106a1 1 0 0 0 .518-1.932l-11.591-3.105z" fill="#394149"/>
    <path d="M44.239 39.157a9.5 9.5 0 1 0 4.917-18.353 9.5 9.5 0 0 0-4.917 18.353z" fill="#FF4D4D"/>
    <path fill-rule="evenodd" clip-rule="evenodd" d="M47.88 30.362l4.33-2.5a.832.832 0 0 0 .305-1.138.831.831 0 0 0-1.139-.304l-4.33 2.499-2.498-4.33a.832.832 0 0 0-1.14-.305.831.831 0 0 0-.304 1.14l2.5 4.328-4.33 2.5a.832.832 0 0 0-.305 1.138.832.832 0 0 0 1.139.305l4.329-2.5 2.5 4.33a.832.832 0 0 0 1.138.305.832.832 0 0 0 .304-1.139l-2.499-4.329z" fill="#fff"/>
    <path fill-rule="evenodd" clip-rule="evenodd" d="M40.708 2.77a2 2 0 0 0-2.45-1.414L2.52 10.933a2 2 0 0 0-1.414 2.45l13.717 51.193a2 2 0 0 0 2.45 1.414l35.739-9.576a2 2 0 0 0 1.414-2.45L40.708 2.77z" fill="#D0EDE7"/>
    <path d="M39.742 3.03a1 1 0 0 0-1.225-.708l-35.74 9.576a1 1 0 0 0-.706 1.225l13.717 51.194a1 1 0 0 0 1.225.707l35.74-9.576a1 1 0 0 0 .706-1.225L39.742 3.03z" stroke="#394149" stroke-width="2" stroke-linecap="round" stroke-linejoin="round"/>
    <path fill-rule="evenodd" clip-rule="evenodd" d="M19.825 44.6a1 1 0 1 0 .518 1.932l20.284-5.435a1 1 0 1 0-.518-1.931L19.825 44.6zm1.553 5.796a1 1 0 0 0 .517 1.932l11.591-3.106a1 1 0 0 0-.517-1.932l-11.591 3.106z" fill="#394149"/>
    <path d="M28.534 34.39a9.5 9.5 0 1 0-4.918-18.353 9.5 9.5 0 0 0 4.918 18.354z" fill="#44CDC8"/>
    <path fill-rule="evenodd" clip-rule="evenodd" d="M25.7 29.046l-4.302-2.373.71-1.177 3.098 1.708 3.86-6.393 1.205.664-4.571 7.57z" fill="#fff"/>
</svg>
