<svg width="72" height="72" fill="none" xmlns="http://www.w3.org/2000/svg">
    <path d="M60.046 34.607v2.15c-1.09-3.164-2.965-7.035-5.947-10.415-3.92-4.443-9.747-8.027-18.123-8.027-8.494 0-14.996 5.364-19.3 10.535-2.02 2.428-3.59 4.85-4.688 6.743v-.986C11.988 22.857 22.634 13 35.975 13c13.347 0 24.07 9.86 24.07 21.607zM58.271 42.996c-.983-1.719-3.024-2.544-5.303-2.544h-5.71a1 1 0 0 0-1 1v16.184a1 1 0 0 0 1 1h5.71c2.28 0 4.32-.825 5.303-2.544.92-1.61 1.775-3.834 1.775-6.548s-.855-4.939-1.775-6.548z" fill="#738CE6" stroke="#394149" stroke-width="2"/>
    <path d="M49.191 42.905a2.454 2.454 0 0 0-4.908 0v13.278a2.454 2.454 0 0 0 4.908 0V42.905z" fill="#D1EEFC" stroke="#394149" stroke-width="2"/>
    <path d="M13.762 42.996c.983-1.719 3.024-2.544 5.303-2.544h5.712a1 1 0 0 1 1 1v16.184a1 1 0 0 1-1 1h-5.712c-2.279 0-4.32-.825-5.303-2.544-.92-1.61-1.774-3.834-1.774-6.548s.854-4.939 1.774-6.548z" fill="#738CE6" stroke="#394149" stroke-width="2"/>
    <path d="M22.843 42.905a2.454 2.454 0 1 1 4.907 0v13.278a2.454 2.454 0 0 1-4.907 0V42.905z" fill="#D1EEFC" stroke="#394149" stroke-width="2"/>
    <path d="M8.758 44.458a5.244 5.244 0 0 0-2.422 4.423c0 1.858.965 3.49 2.422 4.423M6.336 57.504A10.087 10.087 0 0 1 1.49 48.88c0-3.652 1.94-6.85 4.845-8.622" stroke="#394149" stroke-width="2"/>
    <path d="M61.046 49.14v-.807M10.988 49.14v-.807" stroke="#394149" stroke-width="4" stroke-linecap="round"/>
    <path d="M59.993 48.469V35.993M12.008 49.429V35.993M63.276 44.313a5.244 5.244 0 0 1 2.422 4.423c0 1.858-.966 3.491-2.422 4.424" stroke="#394149" stroke-width="2"/>
    <path d="M65.698 57.359a10.086 10.086 0 0 0 4.844-8.622c0-3.652-1.939-6.85-4.844-8.623" stroke="#394149" stroke-width="2"/>
</svg>
