<svg width="72" height="72" fill="none" xmlns="http://www.w3.org/2000/svg">
    <path fill-rule="evenodd" clip-rule="evenodd" d="M70 11a1 1 0 0 0-1-1H25a1 1 0 0 0-1 1v31.767a1 1 0 0 0 1 1h22.158c.17 0 .338.044.487.127l13.02 7.275a1 1 0 0 0 1.488-.873v-5.53a1 1 0 0 1 1-1H69a1 1 0 0 0 1-1V11z" fill="#FFAF00" stroke="#394149" stroke-width="2" stroke-linecap="round" stroke-linejoin="round"/>
    <rect x="33" y="22" width="28" height="2" rx="1" fill="#394149"/>
    <rect x="33" y="30" width="18" height="2" rx="1" fill="#394149"/>
    <path fill-rule="evenodd" clip-rule="evenodd" d="M2 28a1 1 0 0 1 1-1h44a1 1 0 0 1 1 1v31.767a1 1 0 0 1-1 1H24.842c-.17 0-.338.044-.487.127l-13.02 7.275a1 1 0 0 1-1.488-.873v-5.53a1 1 0 0 0-1-1H3a1 1 0 0 1-1-1V28z" fill="#D1EEFC" stroke="#394149" stroke-width="2" stroke-linecap="round" stroke-linejoin="round"/>
    <path d="M15.516 46a2 2 0 1 0 0-4 2 2 0 0 0 0 4zM25.516 46a2 2 0 1 0 0-4 2 2 0 0 0 0 4zM35.516 46a2 2 0 1 0 0-4 2 2 0 0 0 0 4z" fill="#394149"/>
</svg>
