<svg width="72" height="72" fill="none" xmlns="http://www.w3.org/2000/svg">
    <path fill="#fff" fill-opacity=".01" d="M0 0h72v72H0z"/>
    <path fill-rule="evenodd" clip-rule="evenodd" d="M54 15.111V8.6A1.6 1.6 0 0 0 52.4 7H14.6A1.6 1.6 0 0 0 13 8.6v53.8a1.6 1.6 0 0 0 1.6 1.6h37.8a1.6 1.6 0 0 0 1.6-1.6V45.648" fill="#fff"/>
    <path d="M54 15.111V8.6A1.6 1.6 0 0 0 52.4 7H14.6A1.6 1.6 0 0 0 13 8.6v53.8a1.6 1.6 0 0 0 1.6 1.6h37.8a1.6 1.6 0 0 0 1.6-1.6V45.648" stroke="#394149" stroke-width="2" stroke-linecap="round" stroke-linejoin="round"/>
    <rect x="21" y="20" width="25" height="2" rx="1" fill="#394149"/>
    <rect x="21" y="35" width="24" height="2" rx="1" fill="#394149"/>
    <rect x="21" y="51" width="9" height="2" rx="1" fill="#394149"/>
    <path d="M61.451 15.497a3 3 0 0 1 4.242.074l4.69 4.855a3 3 0 0 1-.075 4.242l-6.25 6.035-8.856-9.172 6.25-6.034z" fill="#F667AE"/>
    <path d="M33.351 44.023l23.355-22.554 7.467 7.733-23.32 22.52-8.37-.042.868-7.657z" fill="#FFD0EC" stroke="#394149" stroke-width="2"/>
    <path d="M58.97 20.846l-1.475-1.529 4.012-3.875c1.153-1.113 2.975-1.126 4.07.009l4.92 5.095c1.096 1.134 1.02 2.955-.133 4.068l-4.012 3.875-1.477-1.529 4.013-3.875c.325-.313.345-.79.081-1.063l-4.92-5.095c-.264-.273-.74-.27-1.066.044l-4.012 3.875z" fill="#394149"/>
    <rect x="56.626" y="26.065" width="2.125" height="17" rx="1" transform="rotate(46 56.626 26.065)" fill="#394149"/>
</svg>
