<svg width="50" height="76" xmlns="http://www.w3.org/2000/svg" xmlns:xlink="http://www.w3.org/1999/xlink"><defs><path id="a" d="M0 0h50v76H0z"/></defs><g fill="none" fill-rule="evenodd"><path d="M22.13423251 7.32872498l27.58063898 8.96149284-19.00454516 58.48997575-28.25516256.36561896c-.5522439.00714578-1.00571883-.43474358-1.01286461-.98698749a1.00000843 1.00000843 0 0 1 .03248697-.26608132c1.527407-5.83731123 3.67550994-13.44248943 6.44430876-22.81553462 3.08208805-9.50470583 7.82046722-24.08753385 14.21513762-43.74848412z" fill="#D0EDE7"/><mask id="b" fill="#fff"><use xlink:href="#a"/></mask><g mask="url(#b)"><path fill="#D0EDE7" d="M31.96715236 1.70017525l14.24110597 4.08357142-2.75637356 9.61261696L29.2107788 11.3127922z"/><path d="M34.10358443 1.9208187c-.21697531.70231515-.85291005.96875369-1.32353147.82115676.28701481.0933204.40530403.13178111.97221907.31598656l.3513124-1.13714331zm1.71527146 1.80859639c3.34833289 1.08792492 3.55226738 1.15418637 8.20403437 2.66562734l-1.85531996 5.70594133 1.90211304.61803399 2.22438023-6.84593843c.12153924-.43049668-.18371503-.90270705-.68985238-1.06716104C37.4563236 2.15852353 33.38110396.83442603 33.37855218.83362574c-.51979235-.16301798-1.05071672.0594242-1.18585278.49683851L30.0787219 8.1730788l1.91088503.59035446 1.7626651-5.70547124c.39744974.12914177 1.01540161.3299179 2.06658386.67145307zm9.16732376 2.97861903c-.45278962-.14712228-.80894103-.69806763-.61687859-1.37836011l-.3464108 1.06536842c.3016971.0980267.62210329.2021323.96328939.3129917zm-.61687859-1.37836011c-.19206244.68029248.16408897 1.23123783.61687859 1.37836011-.3411861-.11085939-.6615923-.214965-.96328939-.3129917l.3464108-1.06536841zm-2.20173076 6.77130975l1.90211304.61803399 2.22438023-6.84593843c.12153924-.43049668-.18371503-.90270705-.68985238-1.06716104C37.4563236 2.15852353 33.38110396.83442603 33.37855218.83362574c-.51979235-.16301798-1.05071672.0594242-1.18585278.49683851L30.0787219 8.1730788l1.91088503.59035446 1.7626651-5.70547124c.39744974.12914177 1.01540161.3299179 2.06658386.67145307 3.34833289 1.08792492 3.55226738 1.15418637 8.20403437 2.66562734l-1.85531996 5.70594133zM34.10358443 1.9208187c-.21697531.70231514-.85291005.96875368-1.32353147.82115675.28701481.0933204.40530403.13178111.97221907.31598656l.3513124-1.13714331zM47.46493338 16.86524005L43.4243075 29.47690863l1.91475514.63094948 4.35100875-13.5804407c.16956246-.52924133-.11847142-1.09651471-.64482318-1.26995793L23.27171547 6.7645736c-.53594246-.1728338-1.10353533.1196486-1.27386542.65128559L17.6507748 20.98402275l1.90953713.62923005.2688245-.82105351.36021773-1.10019 3.41680163-10.68870573 23.8587776 7.8619365z" fill="#394149" fill-rule="nonzero"/><path fill="#394149" d="M16.5730273 24.44654457l1.90211304.61803399-3.09016994 9.51056516-1.90211304-.61803399zM12.21459675 37.75617104l1.90211303.61803399-3.09016994 9.51056516-1.90211304-.61803399z"/><g opacity=".89999998" fill="#44CDC8"><path d="M27.1377286 15.39584825c1.18807455.38602882 1.83826106 1.66209177 1.45223224 2.8501663l-1.46415194 4.50619632-4.30239852-1.39793402 1.46415194-4.50619631c.38602881-1.18807454 1.66209174-1.83826111 2.85016628-1.4522323zm6.88383768 2.23669445c1.18807454.38602882 1.838261 1.66209175 1.45223218 2.85016629l-1.46415193 4.50619631-4.3023985-1.39793401 1.46415193-4.50619632c.38602882-1.18807454 1.66209173-1.8382611 2.85016632-1.45223227zm6.43095353 2.08954346c1.18807454.38602882 1.8382611 1.66209178 1.45223228 2.85016633l-1.46415194 4.50619631-4.3023985-1.39793401 1.46415193-4.50619632c.38602882-1.18807454 1.66209169-1.83826113 2.85016623-1.4522323zM38.5033281 6.14628904c1.18807454.38602882 1.8382611 1.66209174 1.45223229 2.85016628l-.53710097 1.6530268L35.1160609 9.2515481l.53710097-1.6530268c.38602882-1.18807454 1.66209172-1.83826107 2.85016623-1.45223226zM22.94918153 28.59381825c1.18807455.38602883 1.83826106 1.66209177 1.45223224 2.85016631l-1.46415194 4.50619632-4.30239852-1.39793402 1.46415194-4.50619632c.38602882-1.18807454 1.66209174-1.8382611 2.85016628-1.45223229zm6.88383765 2.23669444c1.18807454.38602882 1.8382611 1.66209178 1.45223227 2.85016632l-1.46415194 4.50619632-4.30239856-1.39793404 1.46415194-4.50619631c.38602882-1.18807454 1.66209173-1.83826111 2.85016629-1.4522323zm6.8838376 2.23669442c1.18807454.38602882 1.8382611 1.66209178 1.45223228 2.85016632l-1.46415194 4.50619632-4.3023985-1.39793402 1.46415193-4.50619631c.38602882-1.18807454 1.66209169-1.83826113 2.85016623-1.4522323zm-18.16823247 9.14236206c1.18807454.38602882 1.83826105 1.66209177 1.45223224 2.8501663L18.5367046 49.5659318l-4.30239852-1.39793402 1.46415193-4.50619631c.38602882-1.18807454 1.66209174-1.83826111 2.85016629-1.4522323zm6.88383764 2.23669443c1.18807454.38602882 1.8382611 1.66209179 1.45223228 2.85016633l-1.46415194 4.50619631-4.30239856-1.39793403 1.46415194-4.50619632c.38602882-1.18807454 1.66209173-1.8382611 2.85016628-1.45223229zm6.8838376 2.23669443c1.18807455.38602882 1.8382611 1.66209178 1.45223228 2.85016632l-1.46415194 4.50619632-4.3023985-1.39793402 1.46415194-4.50619631c.38602882-1.18807455 1.66209168-1.83826113 2.85016623-1.45223231z"/></g></g><path fill="#394149" mask="url(#b)" transform="rotate(18 41.656424 37.855501)" d="M40.6564242 32.8555006h2v10h-2z"/><path fill="#394149" mask="url(#b)" transform="rotate(18 37.330186 51.170292)" d="M36.3301863 46.1702918h2v10h-2z"/><path d="M16.4802802 26.0263756h29c.5522848 0 1 .4477152 1 1v1h-31v-1c0-.5522848.4477153-1 1-1z" fill="#394149" mask="url(#b)" transform="rotate(18 30.98028 27.026376)"/><path d="M12.1540423 39.3411668h29c.5522847 0 1 .4477152 1 1v1h-31v-1c0-.5522848.4477152-1 1-1z" fill="#394149" mask="url(#b)" transform="rotate(18 26.654042 40.341167)"/><path d="M7.82780437 52.655958H36.8278044c.5522847 0 1 .4477153 1 1v1H6.82780437v-1c0-.5522847.44771525-1 1-1z" fill="#394149" mask="url(#b)" transform="rotate(18 22.327804 53.655958)"/><path d="M33.4809832 59.2728796l1.9187262.564349-4.4817887 15.2375994c-.1233534.4193884-.5048243.7100438-.9419107.7176732l-28.39397353.4956186c-.55220063.0096387-1.0076614-.4301946-1.0173001-.9823953a.99999945.99999945 0 0 1 .04165823-.3035868l7.06047685-23.6436885 1.91265012.5847558-6.66560383 22.3213621 26.29259236-.4589389 4.2744731-14.5327486zM2.52277354 75.5744066a.9999996.9999996 0 0 0 .04165822-.3035869c-.0096387-.5522006-.46509946-.992034-1.0173001-.9823953l1.36678608-.0238573-.3911442 1.3098395zm26.68373656-1.7687784l4.2744731-14.5327486 1.9187262.564349-4.4817887 15.2375994c-.1233534.4193884-.5048243.7100438-.9419107.7176732l-28.39397353.4956186c-.55220063.0096387-1.0076614-.4301946-1.0173001-.9823953a.99999945.99999945 0 0 1 .04165823-.3035868l7.06047685-23.6436885 1.91265012.5847558-6.66560383 22.3213621 26.29259236-.4589389z" fill="#394149" fill-rule="nonzero" mask="url(#b)" transform="rotate(1 17.982147 63.823362)"/><g fill="#394149" mask="url(#b)"><path d="M12.38972206 56.73565264l1.90211303.618034-5.8713229 18.0700738-1.90211303-.61803399zM19.04711767 58.8987716l1.90211303.618034-4.9442719 15.21690425-1.90211304-.61803399zM26.6555698 61.37090756l1.90211304.61803399-4.32623793 13.31479123-1.90211303-.618034z"/></g></g></svg>
