<svg width="68" height="59" xmlns="http://www.w3.org/2000/svg"><g fill="none" fill-rule="evenodd"><path d="M0 26V12.7207592c0-.4304304.2754301-.8125692.68377223-.9486833L27 3h1.5L34 0l6 3h1l26.3162278 8.7720759C67.7245699 11.90819 68 12.2903288 68 12.7207592V26.5L0 26z" fill="#FBDEA4"/><g fill="#FFAF00"><path d="M7 23l-4 1.2V19c0-1.1045695.8954305-2 2-2s2 .8954305 2 2v4zM12 21.5l-4 1.2V17c0-1.1045695.8954305-2 2-2s2 .8954305 2 2v4.5zM17 20l-4 1.2V15c0-1.1045695.8954305-2 2-2s2 .8954305 2 2v5zM22 18.5l-4 1.2V13c0-1.1045695.8954305-2 2-2s2 .8954305 2 2v5.5zM27 17l-4 1.2V12c0-1.1045695.8954305-2 2-2s2 .8954305 2 2v5z"/></g><g fill="#FFAF00"><path d="M61 23l4 1.2V19c0-1.1045695-.8954305-2-2-2s-2 .8954305-2 2v4zM56 21.5l4 1.2V17c0-1.1045695-.8954305-2-2-2s-2 .8954305-2 2v4.5zM51 20l4 1.2V15c0-1.1045695-.8954305-2-2-2s-2 .8954305-2 2v5zM46 18.5l4 1.2V13c0-1.1045695-.8954305-2-2-2s-2 .8954305-2 2v5.5zM41 17l4 1.2V12c0-1.1045695-.8954305-2-2-2s-2 .8954305-2 2v5z"/></g><path d="M28.8944272 4.78885438L30 3v1.23606798l-1.1055728.5527864zM34 2.23606798l4 2V17h2V3l-6-3-6 3v14h2V4.23606798l4-2zm0 0l.8944272-.4472136h-1.7888544L34 2.23606798zm5.1055728 2.5527864L38 3v1.23606798l1.1055728.5527864zM38 3l1.1055728 1.78885438L38 4.23606798V3zm0 1.23606798V17h2V3l-6-3-6 3v14h2V4.23606798l4-2 4 2zm-4-2l.8944272-.4472136h-1.7888544L34 2.23606798zM30 3l-1.1055728 1.78885438L30 4.23606798V3z" fill="#394149" fill-rule="nonzero"/><path d="M34 5c1.6568542 0 3 1.34314575 3 3v9h-6V8c0-1.65685425 1.3431458-3 3-3z" fill="#FFAF00"/><path d="M56.8821611 40H67V26.7543014L39.8599451 19H28.3850346L1 26.75611V40h11.1639928c3.5764796-7.7775415 12.3983828-13 22.3590841-13 9.9607014 0 18.7826046 5.2224585 22.3590842 13z" stroke="#394149" stroke-width="2" fill="#FBDEA4"/><path d="M2 16.2478762v-1.9979734l24.9831235-8.31365009-.0396794 1.90132156L2 16.1380202v.109856zm0-2.8901439v1.6724584l-2-.3344587.01725922-2.062874c-.00086813-.4313569.27495979-.81465586.68425076-.95085588L24.9686984 3.60659424l2.0144251-.67034153-.0396794 1.90132156L2 13.1380202v.2197121zm0 2.7802879V24.5L0 25V13c0-.0428116.00575307-.1651923.01725922-.367142-.00086813-.4313569.27495979-.81465586.68425076-.95085588l26.28161352-8.7457494L26.9434441 4.5 2 13.3577323V16.1380202zM66 16.3116235V14.31365L43.0313016 6.67034153l-1.4090759-.46889907L41.0168765 6l.0396794 1.90132156L66 16.2017675v.109856zm2-1.5521442V13l-.01725922-.367142c.00086813-.4313569-.27495979-.81465586-.68425076-.95085588L43.0313016 3.60659424l-1.4090759-.46889907-.6053492-.20144246.0396794 1.90132156L66.5 13.5 68 13l-.75424443 1.5084889L68 14.7594793zm-2.3912151-.4458293l-.24027932.7220569L41.036467 6.93871877l.0200889.96260279L66 16.2017675v8.259771L68 25V13l-.01725922-.367142c.00086813-.4313569-.27495979-.81465586-.68425076-.95085588L41.0168765 2.93625272l.0200889.96260278 25.59452902 8.5171079L66 14.31365h-.3912151z" fill="#394149" fill-rule="nonzero"/><g transform="translate(20 45)" fill="#394149"><rect width="20" height="2" rx="1"/><rect x="8" y="6" width="16" height="2" rx="1"/><rect x="25" width="6" height="2" rx="1"/><rect x="13" y="12" width="6" height="2" rx="1"/></g></g></svg>
