<svg width="69" height="50" xmlns="http://www.w3.org/2000/svg"><g fill="none" fill-rule="evenodd"><path d="M4.18021978 1l-.43604396 11.5L2 12v36l65 1V28.5h-1c-.0722387-5.1383138-.0722387-8.9716471 0-11.5v-5H46.5L43 1H4.18021978z" fill="#D1EEFC"/><g fill="#738CE6"><path d="M10 9c-1.1045695 0-2-.8954305-2-2s.8954305-2 2-2 2 .8954305 2 2-.8954305 2-2 2zm18 0c-1.1045695 0-2-.8954305-2-2s.8954305-2 2-2 2 .8954305 2 2-.8954305 2-2 2zM16 9c-1.1045695 0-2-.8954305-2-2s.8954305-2 2-2 2 .8954305 2 2-.8954305 2-2 2zm18 0c-1.1045695 0-2-.8954305-2-2s.8954305-2 2-2 2 .8954305 2 2-.8954305 2-2 2zM22 9c-1.1045695 0-2-.8954305-2-2s.8954305-2 2-2 2 .8954305 2 2-.8954305 2-2 2zm18 0c-1.1045695 0-2-.8954305-2-2s.8954305-2 2-2 2 .8954305 2 2-.8954305 2-2 2zM10.28 35c1.25920923 0 2.28 1.0207908 2.28 2.28V43H8v-5.72C8 36.0207908 9.02079077 35 10.28 35zm8.36 0c1.2592092 0 2.28 1.0207908 2.28 2.28V43h-4.56v-5.72c0-1.2592092 1.02079077-2.28 2.28-2.28zM27 35c1.2592092 0 2.28 1.0207908 2.28 2.28V43h-4.56v-5.72c0-1.2592092 1.0207908-2.28 2.28-2.28zm8.36 0c1.2592092 0 2.28 1.0207908 2.28 2.28V43h-4.56v-5.72c0-1.2592092 1.0207908-2.28 2.28-2.28zm8 0c1.2592092 0 2.28 1.0207908 2.28 2.28V43h-4.56v-5.72c0-1.2592092 1.0207908-2.28 2.28-2.28zm17 0c1.2592092 0 2.28 1.0207908 2.28 2.28V43h-4.56v-5.72c0-1.2592092 1.0207908-2.28 2.28-2.28zM34.28 19c1.2592092 0 2.28 1.0207908 2.28 2.28V27H32v-5.72c0-1.2592092 1.0207908-2.28 2.28-2.28zm8 0c1.2592092 0 2.28 1.0207908 2.28 2.28V27H40v-5.72c0-1.2592092 1.0207908-2.28 2.28-2.28zm-32 0c1.25920923 0 2.28 1.0207908 2.28 2.28V27H8v-5.72C8 20.0207908 9.02079077 19 10.28 19zm8.36 0c1.2592092 0 2.28 1.0207908 2.28 2.28V27h-4.56v-5.72c0-1.2592092 1.02079077-2.28 2.28-2.28zM27 19c1.2592092 0 2.28 1.0207908 2.28 2.28V27h-4.56v-5.72c0-1.2592092 1.0207908-2.28 2.28-2.28zm30.28 0c1.2592092 0 2.28 1.0207908 2.28 2.28V27H55v-5.72c0-1.2592092 1.0207908-2.28 2.28-2.28z"/></g><path fill="#394149" d="M2 35h2v8H2zM2 18h2v9H2z"/><rect stroke="#394149" stroke-width="2" x="3" y="12" width="40" height="4" rx=".67368421"/><path d="M52 15h13v-2H52v2zm-1.3263158-4h15.6526316C66.6983813 11 67 11.3016187 67 11.6736842v4.6526316C67 16.6983813 66.6983813 17 66.3263158 17H50.6736842C50.3016187 17 50 16.6983813 50 16.3263158v-4.6526316C50 11.3016187 50.3016187 11 50.6736842 11zM57 32h9v-2h-9v2zm-1.3263158-4h11.6526316C67.6983813 28 68 28.3016187 68 28.6736842v4.6526316C68 33.6983813 67.6983813 34 67.3263158 34H55.6736842C55.3016187 34 55 33.6983813 55 33.3263158v-4.6526316C55 28.3016187 55.3016187 28 55.6736842 28z" fill="#394149" fill-rule="nonzero"/><rect stroke="#394149" stroke-width="2" x="2" y="29" width="46" height="4" rx=".67368421"/><path d="M2 46v2h65v-2H2zM.67368421 44H68.3263158C68.6983813 44 69 44.3016187 69 44.6736842v4.6526316C69 49.6983813 68.6983813 50 68.3263158 50H.67368421C.3016187 50 0 49.6983813 0 49.3263158v-4.6526316C0 44.3016187.3016187 44 .67368421 44zM6 2v8H4V1.38095238C4 .41197108 4.877559 0 5.81148462 0H43.5c.450577 0 .845506.30133038.9644984.73591116l11.5 42.00000004-1.9289968.5281776L42.7370011 2H6z" fill="#394149" fill-rule="nonzero"/><path fill="#394149" d="M64 18h2v9h-2zM65 35h2v8h-2z"/></g></svg>
