<svg width="21" height="21" viewBox="0 0 21 21" fill="none" xmlns="http://www.w3.org/2000/svg">
<path fill-rule="evenodd" clip-rule="evenodd" d="M10.5 -3.72542e-09H0V10.5V21H21V-3.72542e-09H10.5ZM10.5 -3.72542e-09C10.2245 -3.72542e-09 9.94908 0.114015 9.73891 0.342046L5.76109 4.65795C5.55092 4.88598 5.27546 5 5 5C5 5.27546 4.88598 5.55092 4.65795 5.76109L0.342045 9.73891C0.114015 9.94908 0 10.2245 0 10.5C0 10.7755 0.114015 11.0509 0.342046 11.2611L4.65795 15.2389C4.88494 15.4481 4.99895 15.722 4.99999 15.9962C5.27419 15.9973 5.54809 16.1113 5.7573 16.3383L9.73512 20.6542C10.1555 21.1102 10.837 21.1102 11.2573 20.6542L15.2351 16.3383C15.4453 16.1102 15.7207 15.9962 15.9962 15.9962C15.9962 15.7207 16.1102 15.4453 16.3383 15.2351L20.6542 11.2573C21.1102 10.837 21.1102 10.1555 20.6542 9.73512L16.3383 5.7573C16.1113 5.54809 15.9973 5.27419 15.9962 4.99999C15.722 4.99896 15.4481 4.88494 15.2389 4.65795L11.2611 0.342045C11.0509 0.114015 10.7755 -3.72542e-09 10.5 -3.72542e-09Z" fill="white"/>
</svg>
