<svg width="34" height="82" xmlns="http://www.w3.org/2000/svg"><g fill="none" fill-rule="evenodd"><path d="M1 64v6l4 1c1.33333333 2.3333333 2 4.3333333 2 6v4h21c-.3333333-4.3333333-.3333333-6.6666667 0-7 .3333333-.3333333 1.3333333-1.5 3-3.5l2-.5v-7h-9l-2-35v-1h2v-9h-4v-2c1.6666667-1.6666667 2.3333333-2.8333333 2-3.5-.3333333-.6666667-1.3333333-3-3-7l-1.5-2-2 5.5-2 4c.6666667 1.6666667 1.5 2.6666667 2.5 3v2h-4v9h2v1l-2 34v1H1v1z" fill="#D0EDE7"/><path fill="#44CDC8" d="M10 74h15v4H10z"/><path d="M4.7438379 71C6.23052624 72.3081714 7 73.9828841 7 76v5h21v-5c0-1.9903187.6434862-3.6682357 1.8983408-5H4.7438379z" stroke="#394149" stroke-width="2"/><rect stroke="#394149" stroke-width="2" x="1" y="64" width="32" height="4" rx="1"/><rect stroke="#394149" stroke-width="2" x="12" y="22" width="12" height="4" rx="1"/><rect fill="#394149" x="11" y="18" width="14" height="2" rx="1"/><path d="M14.9429051 29l-1.882353 32h9.8788958l-1.882353-32h-6.1141898z" stroke="#394149" stroke-width="2"/><path d="M16.726508 2.85118022c.1930658 2.88392448-.3700541 4.87712051-1.5696156 6.81569941-.0860534.13906847-.6721916 1.04494047-.8130781 1.28533017-.291416.497233-.4477356.8875896-.5090815 1.3065506C13.5216028 14.3972768 15.5185217 16.2 18.0215867 16.2 20.3336159 16.2 22.2 14.3790796 22.2 12.1428571c0-1.3179427-1.8401402-4.48727651-5.473492-9.29167688z" stroke="#394149" stroke-width="1.6"/></g></svg>
