<svg width="56" height="68" xmlns="http://www.w3.org/2000/svg"><g fill="none" fill-rule="evenodd"><path fill="#FBDEA4" d="M23 8v7l-3.5 5H21v9l-4 3v8l-8 6h4v8L2 60h5v8h43l-1-5v-3h5l-11-6v-8h5l-9-6v-8l-4-4v-8h1.5L33 15V8z"/><path d="M27 10h2v4h-2v-4zM17 48h22v4H17v-4zm4-14h14v4H21v-4zm4-12h6v4h-6v-4z" fill="#FFAF00"/><path d="M13.472136 55l-8.00000005 4H50.527864l-8-4H13.472136zM13 53h30l12.0527864 6.1055728C55.5467649 59.3525621 56.2469892 60.0060215 56 60.5c-.2469892.4939785-.5684415.5-.9472136.5H1c-.55228475 0-1-.4477153-1-1 0-.3787721.21400238-.7250352.5527864-.8944272L13 53zM17.6055513 41l-6 4h32.7888974l-6-4H17.6055513zM17 39h22l9.2519246 6.1679497c.4595286.3063525.5837025.9272218.2773501 1.3867505C48.3438089 46.8328989 48.0315776 47 47.6972244 47H8.30277564c-.55228475 0-1-.4477153-1-1 0-.3343532.16710113-.6465845.4452998-.8320503L17 39zM19.4065148 31h17.1869704l-2.3333334-2H21.7398482l-2.3333334 2zM21 27h14l4.947534 4.2407434c.4193258.3594221.4678873.9907221.1084652 1.410048C39.866017 32.8724373 39.5886675 33 39.2967426 33H16.7032574c-.5522847 0-1-.4477153-1-1 0-.2919249.1275627-.5692744.3492086-.7592566L21 27zM22.2700832 19h11.4598336l-1.6666667-2h-8.1265002l-1.6666667 2zM23 15h10l3.6331797 4.3598156c.353564.4242769.29624 1.0548416-.1280369 1.4084057-.179715.1497625-.4062479.2317787-.6401844.2317787H20.1350416c-.5522847 0-1-.4477153-1-1 0-.2339365.0820162-.4604694.2317787-.6401844L23 15zM7.23606798 66H48.763932l-1-2H8.23606798l-1 2zM7 62h42l2.2763932 4.5527864c.2469893.4939785.0467649 1.0946515-.4472136 1.3416408C50.6903242 67.9638549 50.5372111 68 50.381966 68H5.61803399c-.55228475 0-1-.4477153-1-1 0-.1552451.03614509-.3083582.10557281-.4472136L7 62z" fill="#394149" fill-rule="nonzero"/><path fill="#394149" d="M23 10h2v4h-2zM21 22h2v4h-2zM17 34h2v4h-2zM13 48h2v4h-2zM41 48h2v4h-2zM37 34h2v4h-2zM33 22h2v4h-2zM31 10h2v4h-2zM28.7937626.51666413l5.3101303 6.83604239c.3388.4361571.2598765 1.06438394-.1762806 1.40318392-.1754499.13628668-.391288.21026772-.6134517.21026772H22.6938521c-.5522848 0-1-.44771525-1-1 0-.22216519.073982-.43800467.2102704-.61345509L27.2143007.51666069c.3388019-.43615562.9670291-.51507642 1.4031847-.17627453a.99999998.99999998 0 0 1 .1762772.17627797z"/></g></svg>
