<svg width="64" height="74" xmlns="http://www.w3.org/2000/svg"><g fill="none" fill-rule="evenodd"><path d="M4 58v-3.5H3L5.5 51h1.09891098C8.23442235 48.2637626 9.20145203 46.5970959 9.5 46c.33333333-.6666667.6666667-2.3333333 1-5v-8c0-1.5 2.5-4.5 4-6 1-1 4.1666667-1.3333333 9.5-1v-7.5h5L30 0h4l1 18.5h5V26h1c3.8321555-.0559482 6.3321555.1107185 7.5.5 1.5077227.5025742 3.4365695 1.6050997 4.5 5 1.0525365 3.3601223.5 8.5.5 10 0 1.8879275 1.5910793 5.0545942 4.773238 9.5H59l2 3.5h-2V58h1l-1 2.5 1 3.5h.5l1.5 4h1v5H1v-5l2-4 1-3.5L3 58h1z" fill="#D1EEFC"/><path d="M19.1715729 33L22 30.1715729 24.8284271 33 22 35.8284271 19.1715729 33zm0 13L22 43.1715729 24.8284271 46 22 48.8284271 19.1715729 46zm-5-7L17 36.1715729 19.8284271 39 17 41.8284271 14.1715729 39zm15-6L32 30.1715729 34.8284271 33 32 35.8284271 29.1715729 33zm0 13L32 43.1715729 34.8284271 46 32 48.8284271 29.1715729 46zm-5-7L27 36.1715729 29.8284271 39 27 41.8284271 24.1715729 39zm15-6L42 30.1715729 44.8284271 33 42 35.8284271 39.1715729 33zm0 13L42 43.1715729 44.8284271 46 42 48.8284271 39.1715729 46zm-5-7L37 36.1715729 39.8284271 39 37 41.8284271 34.1715729 39zm10 0L47 36.1715729 49.8284271 39 47 41.8284271 44.1715729 39z" fill="#738CE6"/><path d="M56.43007924 51c-.27494436-.3885523-.53777325-.7818488-.7931187-1.1898182-2.05289534-3.279943-3.25263804-6.9172868-3.25263804-11.1219058V34c0-3.8659932-3.1438046-7-7.0218841-7H18.442972c-3.8780795 0-7.021884 3.1340068-7.021884 7v4.688276c0 4.1131667-1.1593889 7.7081309-3.1474636 11.0031072-.2703919.4481395-.549234.8794229-.8435452 1.3086168h49.00000004zm3.36516222 2H4.2093658c-1.4889073 0 5.4514925-4.8558887 5.4514925-14.311724V34c0-4.9705627 3.9996393-9 8.9334443-9h26.6371193c4.9338051 0 8.93344434 4.0294373 8.93344434 9v4.688276c0 9.6367959 7.1192826 14.311724 5.63037522 14.311724z" fill="#394149" fill-rule="nonzero"/><rect stroke="#394149" stroke-width="2" x="1" y="69" width="62" height="4" rx="1"/><rect stroke="#394149" stroke-width="2" x="24" y="19" width="16" height="4" rx="1"/><path d="M4.33333333 62L3 66h57.2251482l-1.3333333-4H4.33333333zM58.89735613 59l1.3282585-4H3.2254956l1.3282585 4h54.34360203z" stroke="#394149" stroke-width="2"/><path d="M32.1141898 2l.882353 15H35L34 0h-4l-1 17h2.0034572l.882353-15h.2283796zm0 0l.882353 15H35L34 0h-4l-1 17h2.0034572l.882353-15h.2283796z" fill="#394149" fill-rule="nonzero"/></g></svg>
