<svg width="100" height="100" xmlns="http://www.w3.org/2000/svg" xmlns:xlink="http://www.w3.org/1999/xlink"><defs><rect id="a" width="100" height="100" rx="50"/></defs><g fill="none" fill-rule="evenodd"><mask id="b" fill="#fff"><use xlink:href="#a"/></mask><use fill="#F4F8FA" xlink:href="#a"/><g mask="url(#b)"><g transform="translate(28 26)"><path d="M3 38.976804V22.0809401C3 10.9787852 11.7425572 2 22.5 2S42 10.9787852 42 22.0809401v16.4203462h2V22.0809401C44 9.8859736 34.3741221 0 22.5 0S1 9.8859736 1 22.0809401V39l2-.023196zm0 0V22.0809401C3 10.9787852 11.7425572 2 22.5 2S42 10.9787852 42 22.0809401v16.4203462h2V22.0809401C44 9.8859736 34.3741221 0 22.5 0S1 9.8859736 1 22.0809401V39l2-.023196z" fill="#394149" fill-rule="nonzero"/><path d="M42.9133955 20.7448705C42.4741823 9.7642913 33.48601 1 22.4651053 1 11.7957147 1 3.03145563 9.21412927 2.08472065 19.701163 7.15330978 9.3550658 13.9525231 4.10206996 22.4651053 4.10206996c6.5910595 0 11.81698 2.83704408 15.7086648 7.77846094 2.0636312 2.6202692 3.6550263 5.725695 4.7396254 8.8643396zm2.0092586 8.9469318c.0003773.0016863.0007397.0032746.0010868.0047648-.0007681-.0032971-.001573-.0066277-.0024628-.0100891z" stroke="#394149" stroke-width="2" fill="#738CE6"/><path d="M10.2419515 28c-3.43040929 0-6.36829737 2.457015-6.97502224 5.8333459C3.089238 34.8221928 3 35.8776415 3 37c0 1.1223774.08924102 2.1778191.26694432 3.1666514C3.87365586 43.5429839 6.81154049 46 10.2419515 46H13c.5522847 0 1-.4477153 1-1V29c0-.5522847-.4477153-1-1-1h-2.7580485z" stroke="#394149" stroke-width="2" fill="#44CDC8"/><rect stroke="#394149" stroke-width="2" fill="#738CE6" x="12" y="28" width="5" height="18" rx="2.5"/><path d="M1.5 36v-1" stroke="#394149" stroke-width="4" stroke-linecap="round"/><path d="M34.7580485 28c3.4304093 0 6.3682974 2.457015 6.9750222 5.8333459C41.910762 34.8221928 42 35.8776415 42 37c0 1.1223774-.089241 2.1778191-.2669443 3.1666514C41.1263441 43.5429839 38.1884595 46 34.7580485 46H32c-.5522847 0-1-.4477153-1-1V29c0-.5522847.4477153-1 1-1h2.7580485z" stroke="#394149" stroke-width="2" fill="#44CDC8"/><path d="M34.7580485 29c2.9463488 0 5.4696764 2.1103098 5.9907867 5.0102086C40.9157552 34.9391139 41 35.9355059 41 37c0 1.0645094-.0842472 2.0608898-.2511799 2.9897887C40.227721 42.8896907 37.704398 45 34.7580485 45H32V29h2.7580485zm0-2H32c-1.1045695 0-2 .8954305-2 2v16c0 1.1045695.8954305 2 2 2h2.7580485c3.9144725 0 7.2669188-2.803723 7.9592427-6.656486C42.9057688 39.2947284 43 38.1802228 43 37c0-1.1802228-.0942312-2.2947284-.2826937-3.3435167C42.0249673 29.803723 38.672521 27 34.7580485 27z" fill="#394149" fill-rule="nonzero"/><rect stroke="#394149" stroke-width="2" fill="#738CE6" transform="matrix(-1 0 0 1 59 0)" x="27" y="28" width="5" height="18" rx="2.5"/><path d="M43.5 36v-1" stroke="#394149" stroke-width="4" stroke-linecap="round"/></g></g><path d="M37.57793 83.8971295c-1.192463.2573191-2.0035275.6295413-2.3925762 1.0190311-.197344.1975678-.2130614.2780887-.1580452.3792139.3489374.6413807 2.0378541 1.1132797 4.2379233.7799203 1.3044475-.1976529 1.8117349-.8079549 1.908258-2.1268597.0175334-.2395787.0243471-.474403.0180933-.7238569-1.1752529.1821678-2.3846548.4073483-3.6136532.6725513zm5.5902254.1972837c-.1616961 2.2094381-1.3289216 3.6136917-3.603299 3.9583105-2.9388477.4453009-5.4543849-.2575637-6.2943819-1.8015596-1.0310792-1.8952236.6915427-3.619799 3.8855899-4.3090358 1.2921285-.2788256 2.5602661-.5167515 3.792949-.7093538-.1342148-.7377195-.3297239-1.6655223-.6011698-2.9043023-.1876855-.8565282-.3039706-1.4077785-.4147954-1.9826257-.3119389-1.6180243-.472599-2.9280907-.472599-4.1429656h2c0 1.0659259.1464781 2.2603481.436436 3.7643575.1068611.5542875.2202615 1.0918623.404606 1.9331437.2839342 1.2957724.4898667 2.2713229.6320362 3.0582893 5.8461995-.6963856 10.6866669-.2417201 13.1640719 1.8877541 3.1824111 2.7354682 3.2275791 5.6672337 1.7611443 10.107895-.2280898.6907023-.5868805 1.4556069-1.0733901 2.3299667-.2220238.3990234-.4675132.8153874-.7514163 1.2784509-.2573615.4197727-1.1370499 1.8143322-1.0596197 1.6905343-.3558161.5688904-.566127.9272242-.6879343 1.17877l-1.8000613-.8716531c.1631206-.3368625.3991401-.7389992.7923468-1.367671-.0713014.1139989.8007364-1.2684322 1.0502135-1.6753449.27023-.4407619.5019111-.8337062.708797-1.2055237.4304965-.7736924.7397618-1.433014.9219365-1.9846761 1.2357667-3.7421516 1.2020784-5.9287943-1.1657099-7.9640466-1.931585-1.6603101-6.3015509-2.0274183-11.607556-1.4100328.0180244.3907719.0101297.7542939-.0181944 1.141319z" fill="#394149" fill-rule="nonzero" mask="url(#b)"/></g></svg>
