<svg width="50" height="77" xmlns="http://www.w3.org/2000/svg"><g fill="none" fill-rule="evenodd"><path d="M-23-19h96v96h-96z"/><path d="M42.2566019 35.1381166C42.5044013 30.9517024 42.7522006 28.2389969 43 27c.3333333-1.6666667 1-7 2-16h3c1 7.6666667 1.5 11.8333333 1.5 12.5 0 1 .5 9 .5 12.5v40c0 .5522847-.4477153 1-1 1H1c-.55228475 0-1-.4477153-1-1V64.5l6.5-3.9v.025L0 65.5v-21V36c0-3.5.5-11.5.5-12.5 0-.6666667.5-4.8333333 1.5-12.5h3c1 9 1.66666667 14.3333333 2 16 .24439416 1.2219708.48878833 3.8774258.73318249 7.966365L8.5 36.5l.37561821-1.2520607C8.74286894 30.5602744 9.5 21.3051992 9.5 20c0-1 .8333333-6.3333333 2.5-16h3c.3333333 5.33333333.6666667 8.6666667 1 10 .3333333 1.3333333.6666667 5.8333333 1 13.5v12.2647059L25 36l8 3.5555556V27.5l.86-13.5c.3333333-1.3333333.7133333-4.66666667 1.14-10h2.86c1.6666667 9.6666667 2.5 15 2.5 16 0 1.1973939.6372232 9.0856313.639991 13.9999548L41.5 36.5l.7566019-1.3618834z" fill="#D0EDE7"/><g stroke="#394149" stroke-width="2"><g transform="matrix(-1 0 0 1 8 6)"><path d="M5.12462632 6c1.18676578 8.9483783 1.84887616 15.7937748 1.98652766 20.4907411l-.09544673 10.3082467-6.00757912-3.3792632c.05186924-3.2447176.21419344-6.1839133.48656366-8.8168254C1.77702333 21.8736943 2.57065415 15.6682478 3.8741157 6h1.25051062zM7 40.5808298v14.1232144l-5.88888889-3.6486059V37.2216748L7 40.5808298z"/><circle fill="#394149" cx="4.5" cy="1.5" r="1"/></g><g transform="translate(42 6)"><path d="M5.12462632 6c1.18676578 8.9483783 1.84887616 15.7937748 1.98652766 20.4907411l-.09544673 10.3082467-6.00757912-3.3792632c.05186924-3.2447176.21419344-6.1839133.48656366-8.8168254C1.77702333 21.8736943 2.57065415 15.6682478 3.8741157 6h1.25051062zM7 40.5808298v14.1232144l-5.88888889-3.6486059V37.2216748L7 40.5808298z"/><circle fill="#394149" cx="4.5" cy="1.5" r="1"/></g><g transform="translate(8)"><path d="M4.81852007 5c-1.57649658 7.8706519-2.51904878 14.0993215-2.8283719 18.6761268-.28372998 4.1981243-.31594595 8.1445073-.09717088 11.8389042L8 32.8457364v-9.2370407C8 21.4189738 7.37070633 15.1887302 6.11593216 5H4.81852007z"/><circle fill="#394149" cx="5.5" cy="1.5" r="1"/></g><path d="M10 39.1540156v15.9668778l6-4.0408163V36.5290156l-6 2.625z"/><g><g transform="matrix(-1 0 0 1 42 0)"><path d="M4.81852007 5c-1.57649658 7.8706519-2.51904878 14.0993215-2.8283719 18.6761268-.28372998 4.1981243-.31594595 8.1445073-.09717088 11.8389042L8 32.8457364v-9.2370407C8 21.4189738 7.37070633 15.1887302 6.11593216 5H4.81852007z"/><circle fill="#394149" cx="5.5" cy="1.5" r="1"/></g><path d="M40 39.1540156v15.9668778l-6-4.0408163V36.5290156l6 2.625z"/></g></g><path d="M49 64.5661904l-24-14.4-24 14.4V76h48V64.5661904zM19 39.8706016v9.339834l6-3.6923077 6 3.6923077v-9.339834l-6-2.7692307-6 2.7692307z" stroke="#394149" stroke-width="2"/><g fill="#44CDC8"><path d="M19 75V59.50502152L25 55.5l6 4.00502152V75zM16 75V62h-2c-1.1045695 0-2 .8954305-2 2v11h4zM34 75V62h2c1.1045695 0 2 .8954305 2 2v11h-4zM9 75V65H7c-1.1045695 0-2 .8954305-2 2v8h4zM41 75V65h2c1.1045695 0 2 .8954305 2 2v8h-4z"/></g></g></svg>
