<svg width="78" height="55" xmlns="http://www.w3.org/2000/svg"><g fill="none" fill-rule="evenodd"><path stroke="#394149" stroke-width="2" fill="#FBDEA4" d="M1 1h76v53H1z"/><path d="M4 23c0-2.209139 2.23857625-4 5-4s5 1.790861 5 4v32H4V23z" fill="#394149"/><path d="M6 23.96052632C6 22.32547278 7.34314575 21 9 21s3 1.32547278 3 2.96052632V55.5394737H6V23.96052632z" fill="#FFF"/><path d="M16 23c0-2.209139 2.23857625-4 5-4s5 1.790861 5 4v32H16V23z" fill="#394149"/><path d="M18 24c0-1.65685425 1.34314575-3 3-3s3 1.34314575 3 3v32h-6V24z" fill="#FFF"/><path d="M28 23c0-2.209139 2.23857625-4 5-4s5 1.790861 5 4v32H28V23z" fill="#394149"/><path d="M30 24c0-1.65685425 1.34314575-3 3-3s3 1.34314575 3 3v32h-6V24z" fill="#FFF"/><path d="M40 23c0-2.209139 2.23857625-4 5-4s5 1.790861 5 4v32H40V23z" fill="#394149"/><path d="M42 24c0-1.65685425 1.34314575-3 3-3s3 1.34314575 3 3v32h-6V24z" fill="#FFF"/><path d="M52 23c0-2.209139 2.23857625-4 5-4s5 1.790861 5 4v32H52V23z" fill="#394149"/><path d="M54 24c0-1.65685425 1.34314575-3 3-3s3 1.34314575 3 3v32h-6V24z" fill="#FFF"/><path d="M64 23c0-2.209139 2.23857625-4 5-4s5 1.790861 5 4v32H64V23z" fill="#394149"/><path d="M66 24c0-1.65685425 1.34314575-3 3-3s3 1.34314575 3 3v32h-6V24z" fill="#FFF"/><path d="M4 8c0-2.209139 2.23857625-4 5-4s5 1.790861 5 4v9H4V8z" fill="#394149"/><path d="M6 9c0-1.65685425 1.34314575-3 3-3s3 1.34314575 3 3v8H6V9z" fill="#FFF"/><g><path d="M16 8c0-2.209139 2.23857625-4 5-4s5 1.790861 5 4v9H16V8z" fill="#394149"/><path d="M18 9c0-1.65685425 1.34314575-3 3-3s3 1.34314575 3 3v8h-6V9z" fill="#FFF"/></g><g><path d="M28 8c0-2.209139 2.23857625-4 5-4s5 1.790861 5 4v9H28V8z" fill="#394149"/><path d="M30 9c0-1.65685425 1.34314575-3 3-3s3 1.34314575 3 3v8h-6V9z" fill="#FFF"/></g><g><path d="M40 8c0-2.209139 2.23857625-4 5-4s5 1.790861 5 4v9H40V8z" fill="#394149"/><path d="M42 9c0-1.65685425 1.34314575-3 3-3s3 1.34314575 3 3v8h-6V9z" fill="#FFF"/></g><g><path d="M52 8c0-2.209139 2.23857625-4 5-4s5 1.790861 5 4v9H52V8z" fill="#394149"/><path d="M54 9c0-1.65685425 1.34314575-3 3-3s3 1.34314575 3 3v8h-6V9z" fill="#FFF"/></g><g><path d="M64 8c0-2.209139 2.23857625-4 5-4s5 1.790861 5 4v9H64V8z" fill="#394149"/><path d="M66 9c0-1.65685425 1.34314575-3 3-3s3 1.34314575 3 3v8h-6V9z" fill="#FFF"/></g><path stroke="#394149" stroke-width="2" fill="#FBDEA4" d="M22 17v-4h34v4"/></g></svg>
