<svg width="74" height="71" xmlns="http://www.w3.org/2000/svg"><g fill="none" fill-rule="evenodd"><path d="M-11-25h96v96h-96z"/><path d="M3 24v-5h20V5l13-5 13 5v14h22v5h2c.5522847 0 1 .4477153 1 1v44c0 1.1045695-.8954305 2-2 2h-5.578629V58.8965517h-4.625V71H11.9052419V58.8965517H7.28024194V71H2c-1.1045695 0-2-.8954305-2-2V25c0-.5522847.44771525-1 1-1h2z" fill="#D1EEFC"/><path fill="#394149" d="M0 31h2v6H0zM72 31h2v6h-2z"/><path d="M61.2121078 70H12.7878922V58H6.98144057v12H2c-.55228475 0-1-.4477153-1-1V39h72v30c0 .5522847-.4477153 1-1 1h-4.9814406V58h-5.8064516v12z" stroke="#394149" stroke-width="2"/><path d="M32 48c0-2.209139 2.2385763-4 5-4s5 1.790861 5 4v23H32V48z" fill="#394149"/><path d="M34 49.7037037C34 47.6582046 35.3431458 46 37 46s3 1.6582046 3 3.7037037V71h-6V49.7037037z" fill="#FFF"/><path d="M18 48c0-2.209139 2.2385763-4 5-4s5 1.790861 5 4v23H18V48z" fill="#394149"/><path d="M20 49.7037037C20 47.6582046 21.3431458 46 23 46s3 1.6582046 3 3.7037037V71h-6V49.7037037z" fill="#FFF"/><path d="M46 48c0-2.209139 2.2385763-4 5-4s5 1.790861 5 4v23H46V48z" fill="#394149"/><path d="M48 49.7037037C48 47.6582046 49.3431458 46 51 46s3 1.6582046 3 3.7037037V71h-6V49.7037037z" fill="#FFF"/><path d="M4 23v-3.3333333C4 19.2984768 4.43454715 19 4.97058824 19H69.0294118C69.5654528 19 70 19.2984768 70 19.6666667V23M1 25h72v4H1zM24 10h24v6H24zM24 7h24V5.15939056l-12-4.1025641-12 4.1025641V7z" stroke="#394149" stroke-width="2"/><path d="M6 44h8v10H6V44zM4 32h66v4H4v-4zm56 12h8v10h-8V44z" fill="#738CE6"/></g></svg>
