<svg width="78" height="69" xmlns="http://www.w3.org/2000/svg"><g fill="none" fill-rule="evenodd"><path d="M1 1h14v10h48V1h14v67c0 .5522847-.4477153 1-1 1H2c-.55228475 0-1-.4477153-1-1V1z" fill="#D0EDE7"/><path d="M16 12h46m0 56H16" stroke="#394149" stroke-width="2"/><path d="M3 35v32h10V35H3zm-2-2h14v35c0 .5522847-.4477153 1-1 1H2c-.55228475 0-1-.4477153-1-1V33zM65 35v32h10V35H65zm-2-2h14v35c0 .5522847-.4477153 1-1 1H64c-.5522847 0-1-.4477153-1-1V33z" fill="#394149" fill-rule="nonzero"/><path stroke="#394149" stroke-width="2" d="M2 27h12v4H2zM64 27h12v4H64z"/><path d="M2 2v2h12V2H2zM1 0h14c.5522847 0 1 .44771525 1 1v4c0 .55228475-.4477153 1-1 1H1c-.55228475 0-1-.44771525-1-1V1c0-.55228475.44771525-1 1-1zM64 2v2h12V2H64zm-1-2h14c.5522847 0 1 .44771525 1 1v4c0 .55228475-.4477153 1-1 1H63c-.5522847 0-1-.44771525-1-1V1c0-.55228475.4477153-1 1-1z" fill="#394149" fill-rule="nonzero"/><path stroke="#394149" stroke-width="2" d="M2 8h12v16H2zM64 8h12v16H64z"/><g fill="#394149"><path d="M31 29c0-3.15591286-2.8440871-6-6-6-3.15591286 0-6 2.84408714-6 6m-2 0c0-4.418278 3.581722-8 8-8s8 3.581722 8 8v5h-2v-5H19v5h-2v-5z" fill-rule="nonzero"/><path d="M45 29c0-3.15591286-2.8440871-6-6-6s-6 2.84408714-6 6m-2 0c0-4.418278 3.581722-8 8-8s8 3.581722 8 8v5h-2v-5H33v5h-2v-5z" fill-rule="nonzero"/><path d="M59 29c0-3.15591286-2.8440871-6-6-6s-6 2.84408714-6 6m-2 0c0-4.418278 3.581722-8 8-8s8 3.581722 8 8v5h-2v-5H47v5h-2v-5z" fill-rule="nonzero"/><path d="M31 34h2v32h-2zM17 34h2v32h-2zM45 34h2v32h-2zM59 34h2v32h-2z"/></g><path d="M6 11c.55228475 0 1 .4477153 1 1v9H5v-9c0-.5522847.44771525-1 1-1zm62 0c.5522847 0 1 .4477153 1 1v9h-2v-9c0-.5522847.4477153-1 1-1zM41.5 31c.8284271 0 1.5.6715729 1.5 1.5V39h-3v-6.5c0-.8284271.6715729-1.5 1.5-1.5zm-19 0c.8284271 0 1.5.6715729 1.5 1.5V39h-3v-6.5c0-.8284271.6715729-1.5 1.5-1.5zm5 0c.8284271 0 1.5.6715729 1.5 1.5V39h-3v-6.5c0-.8284271.6715729-1.5 1.5-1.5zm9 0c.8284271 0 1.5.6715729 1.5 1.5V39h-3v-6.5c0-.8284271.6715729-1.5 1.5-1.5zm14 0c.8284271 0 1.5.6715729 1.5 1.5V39h-3v-6.5c0-.8284271.6715729-1.5 1.5-1.5zm5 0c.8284271 0 1.5.6715729 1.5 1.5V39h-3v-6.5c0-.8284271.6715729-1.5 1.5-1.5zM10 11c.5522847 0 1 .4477153 1 1v9H9v-9c0-.5522847.44771525-1 1-1zm15 38c2.209139 0 4 1.790861 4 4v12h-8V53c0-2.209139 1.790861-4 4-4zm14 0c2.209139 0 4 1.790861 4 4v12h-8V53c0-2.209139 1.790861-4 4-4zm14 0c2.209139 0 4 1.790861 4 4v12h-8V53c0-2.209139 1.790861-4 4-4zm19-38c.5522847 0 1 .4477153 1 1v9h-2v-9c0-.5522847.4477153-1 1-1zm-12 4c.5522847 0 1 .4477153 1 1v3h-2v-3c0-.5522847.4477153-1 1-1zm-6 0c.5522847 0 1 .4477153 1 1v3h-2v-3c0-.5522847.4477153-1 1-1zm-12 0c.5522847 0 1 .4477153 1 1v3h-2v-3c0-.5522847.4477153-1 1-1zm-12 0c.5522847 0 1 .4477153 1 1v3h-2v-3c0-.5522847.4477153-1 1-1zm18 0c.5522847 0 1 .4477153 1 1v3h-2v-3c0-.5522847.4477153-1 1-1zm-12 0c.5522847 0 1 .4477153 1 1v3h-2v-3c0-.5522847.4477153-1 1-1zm-12 0c.5522847 0 1 .4477153 1 1v3h-2v-3c0-.5522847.4477153-1 1-1zm-6 0c.5522847 0 1 .4477153 1 1v3h-2v-3c0-.5522847.4477153-1 1-1z" fill="#44CDC8"/></g></svg>
