<svg width="78" height="58" xmlns="http://www.w3.org/2000/svg"><g fill="none" fill-rule="evenodd"><path d="M1.7236068 22.4472136l6.17082039 12.3416408C8.57199525 36.1439905 9.95704772 37 11.472136 37h63.6133277c.5522847 0 1-.4477153 1-1 0-.3085904-.1424729-.599896-.3860594-.7893522L69 30V16c0-.5522847-.4477153-1-1-1h-5V2.8977186c0-.51068312-.3847934-.93931789-.8925182-.99420705L45.4027702.09759678c-.5120471-.05535645-.9823941.28725227-1.0867422.79160144L41.5 14.5 41 16l-11 4.5-2.5.5H25v-5c0-.5522847-.4477153-1-1-1H8c-.55228475 0-1 .4477153-1 1v5H2.61803399c-.55228475 0-1 .4477153-1 1 0 .1552451.03614509.3083582.10557281.4472136z" fill="#FBDEA4"/><path d="M7 23h2v10H7V23zm5 2h2v10h-2V25zm5 2h2v8h-2v-8zm5 3h2v6h-2v-6z" fill="#FFAF00"/><path d="M6.57011813 23H3.41969497L10.169695 35h23.0254231L6.57011813 23zm-5.73184618-.5097388C.75407602 22.3405796.70984748 22.1717369.70984748 22c0-.5522847.44771525-1 1-1H7l35.5 16H10.169695c-.72254666 0-1.3889145-.3897236-1.74315111-1.0194775L.83827195 22.4902612zM46.75 35H75l-6-4H50l-23-8h-8l27.75 12zM69 29l7 4.0769231c.8320386.7831891 1.3036674 1.2317665 1 2.4230769-.1963326.770228-1.2208608 1.5-2 1.5H46L10 21h17.5L51 29h18z" fill="#394149" fill-rule="nonzero"/><path d="M52.331541 26H67V15H48.4l-12.7508066 5.3128361L52.331541 26zM30 20.5L48 13h20c.5522847 0 1 .4477153 1 1v14H52l-22-7.5z" fill="#394149" fill-rule="nonzero"/><path d="M48 10h13V2H45.5L44 11.5l4-1.5zm-6.5 4.5L43.9105917.8868317C44.0489177.3586779 44.4526801 0 44.9088949 0H61.952381C62.530965 0 63 .5698194 63 1.27272727V12H48l-6.5 2.5zM9 16v2h14v-2H9zm-1-2h16c.5522847 0 1 .4477153 1 1v5H7v-5c0-.5522847.44771525-1 1-1z" fill="#394149" fill-rule="nonzero"/><path d="M51 21h2v2h-2v-2zm4 0h2v2h-2v-2zm4 0h2v2h-2v-2zm4 0h2v2h-2v-2zm-12-4h2v2h-2v-2zm-4 0h2v2h-2v-2zm8 0h2v2h-2v-2zm4 0h2v2h-2v-2zm4 0h2v2h-2v-2z" fill="#FFAF00"/><rect fill="#394149" y="38" width="78" height="2" rx="1"/><g transform="translate(24 44)" fill="#394149"><rect width="20" height="2" rx="1"/><rect x="8" y="6" width="16" height="2" rx="1"/><rect x="25" width="6" height="2" rx="1"/><rect x="13" y="12" width="6" height="2" rx="1"/></g></g></svg>
