<svg width="76" height="74" xmlns="http://www.w3.org/2000/svg"><g fill="none" fill-rule="evenodd"><path d="M50 35V2c0-.55228475.4477153-1 1-1h24c.5522847 0 1 .44771525 1 1v71H0V2c0-.55228475.44771525-1 1-1h24c.5522847 0 1 .44771525 1 1v33h24z" fill="#D1EEFC"/><path d="M2 48v24h72V48H2zm-2-2h76v27c0 .5522847-.4477153 1-1 1H1c-.55228475 0-1-.4477153-1-1V46z" fill="#394149" fill-rule="nonzero"/><path stroke="#394149" stroke-width="2" d="M1 36h74v8H1zM51 34V2c0-.55228475.3960558-1 .8846154-1h22.2307692C74.6039442 1 75 1.44771525 75 2v32M1 34V2c0-.55228475.3960558-1 .88461538-1H24.1153846C24.6039442 1 25 1.44771525 25 2v32"/><path d="M18 40l18-2 18 2v2H18v-2zM4 12h2v6H4v-6zm0 8h2v2H4v-2zm0 4h2v2H4v-2zm0 4h2v2H4v-2zm8-16h2v6h-2v-6zm0 8h2v2h-2v-2zm0 4h2v2h-2v-2zm0 4h2v2h-2v-2zM8 12h2v6H8v-6zm0 8h2v2H8v-2zm0 4h2v2H8v-2zm0 4h2v2H8v-2zm8-16h2v6h-2v-6zm0 8h2v2h-2v-2zm0 4h2v2h-2v-2zm0 4h2v2h-2v-2zm4-16h2v6h-2v-6zm0 8h2v2h-2v-2zm0 4h2v2h-2v-2zm0 4h2v2h-2v-2zm34-16h2v6h-2v-6zm0 8h2v2h-2v-2zm0 4h2v2h-2v-2zm0 4h2v2h-2v-2zm8-16h2v6h-2v-6zm0 8h2v2h-2v-2zm0 4h2v2h-2v-2zm0 4h2v2h-2v-2zm-4-16h2v6h-2v-6zm0 8h2v2h-2v-2zm0 4h2v2h-2v-2zm0 4h2v2h-2v-2zm8-16h2v6h-2v-6zm0 8h2v2h-2v-2zm0 4h2v2h-2v-2zm0 4h2v2h-2v-2zm4-16h2v6h-2v-6zm0 8h2v2h-2v-2zm0 4h2v2h-2v-2zm0 4h2v2h-2v-2zM5 52h6v6H5v-6zm10 0h6v6h-6v-6zm10 0h6v6h-6v-6zm10 0h6v6h-6v-6zm10 0h6v6h-6v-6zm10 0h6v6h-6v-6zm10 0h6v6h-6v-6zM5 61h6v6H5v-6zm10 0h6v6h-6v-6zm10 0h6v6h-6v-6zm10 0h6v10h-6V61zm10 0h6v6h-6v-6zm10 0h6v6h-6v-6zm10 0h6v6h-6v-6z" fill="#738CE6"/></g></svg>
