<svg width="719" height="331" fill="none" xmlns="http://www.w3.org/2000/svg"><path d="M368.423 284.661c-99.252 45.614-184.224-28.158-286.332-5.632C50.93 285.903 15.762 308.175 0 331V16C0 7.163 7.163 0 16 0h703c-40.464 45.266-95.387 32.344-155.886 58.393-132.099 56.877-94.689 180.309-194.691 226.268z" fill="#D5F6F6"/><mask id="a" maskUnits="userSpaceOnUse" x="0" y="0" width="719" height="331"><path d="M368.423 284.661c-99.252 45.614-184.224-28.158-286.332-5.632C50.93 285.903 15.762 308.175 0 331V16C0 7.163 7.163 0 16 0h703c-40.464 45.266-95.387 32.344-155.886 58.393-132.099 56.877-94.689 180.309-194.691 226.268z" fill="#FFFAC2"/></mask><g mask="url(#a)"><path fill="#D5F6F6" d="M135.73 87.141l84.575-31.088 6.217 16.915-84.574 31.087z"/><path fill="#3728AA" d="M135.73 87.141l84.575-31.088 6.218 16.915-84.575 31.088z"/><path fill="#E2D4F7" d="M165.583 76.167l26.577-9.77 6.217 16.914-26.577 9.77z"/><path d="M170.396 97.863c18.738-27.309-10.799-58.167-19.277-49.083-9.611 10.3 24.806 31.745 34.636 25.218 9.851-6.543 12.456-32.3 3.159-35.06-9.357-2.775-17.562 30.873 18.414 53.2M378.197 147.277c-15.79-.023-3.784 20.029 2.052 13.993 6.565-6.791-22.213-8.782-27.249 7.329" stroke="#FF7535" stroke-width="2" stroke-linecap="round"/><path d="M313.46 53.632l-.519-1.914c-.939-3.413-3.527-6.176-6.941-7.399 3.414-1.223 6.002-3.986 6.934-7.405l.519-1.914.519 1.914c.932 3.42 3.52 6.176 6.934 7.405-3.414 1.223-6.002 3.986-6.934 7.406l-.512 1.907z" stroke="#0C2E44" stroke-width="2" stroke-linejoin="round"/><path d="M232.178 118.899h31.257a8 8 0 008-8V91.472a8 8 0 00-8-8h-23.257a8 8 0 00-8 8v27.427z" fill="#FF7535"/><path d="M85.429 216.207H58.831a5 5 0 01-5-5v-19.682a5 5 0 015-5H80.43a5 5 0 015 5v24.682z" fill="#3728AA"/><path d="M242.946 101.293c-3.286-8.391 4.31-10.517 8.831-4.178 3.171-6.864 13.602-1.931 7.767 5.835-2.437 3.243-6.363 6.047-7.767 7.017-2.63-1.573-7.036-4.089-8.831-8.674zM77.808 201.015c3.072-7.844-4.028-9.831-8.255-3.905-2.963-6.416-12.714-1.805-7.26 5.454 2.278 3.031 5.948 5.652 7.26 6.559 2.459-1.47 6.577-3.822 8.255-8.108z" fill="#fff"/><path d="M194.845 117.997c10.877-1.235 4.564 13.965-.047 10.119-5.186-4.327 14.446-7.966 19.489 3.114" stroke="#3728AA" stroke-width="2" stroke-linecap="round"/><path d="M120.566 150.497l-.467-1.967c-.844-3.508-3.172-6.348-6.242-7.605 3.07-1.256 5.398-4.097 6.236-7.611l.467-1.967.467 1.967c.838 3.514 3.166 6.347 6.235 7.611-3.069 1.257-5.397 4.097-6.235 7.612l-.461 1.96z" fill="#FF7535" stroke="#FF7535" stroke-width="2" stroke-miterlimit="10" stroke-linejoin="round"/><path d="M64.792 63.362l-.333-1.475c-.603-2.63-2.266-4.76-4.459-5.703 2.193-.943 3.856-3.073 4.454-5.709L64.788 49l.333 1.475c.598 2.636 2.261 4.761 4.454 5.709-2.193.943-3.856 3.073-4.454 5.709l-.329 1.47zM419.792 82.362l-.333-1.475c-.603-2.63-2.266-4.76-4.459-5.703 2.193-.943 3.856-3.073 4.454-5.709l.334-1.475.333 1.475c.599 2.636 2.261 4.761 4.454 5.709-2.193.942-3.855 3.073-4.454 5.709l-.329 1.47z" stroke="#FF7535" stroke-width="2" stroke-linejoin="round"/><path d="M138.764 194.239l-.664-.792c-1.594-1.9-3.637-3.692-2.668-6.394.603-1.855 3.161-4.271 5.332-3.935-1.67-1.026-2.713-4.198-1.953-6.185.919-2.12 2.926-3.264 5.041-3.959 2.247-.537 4.684.116 6.988.611l-.665-.792c-1.461-1.741-1.681-4.254-.497-6.057.685-1.114 1.767-1.753 3.065-1.492l110.953 9.413-29.861-27.549c-3.694-4.724-2.817-11.395 1.616-15.115 67.145 35.653 84.738 65.943 110.466 92.104 8.497 8.518 49.993 41.3 49.993 41.3-2.618 31.602-58.561 38.19-84.1 36.689 0 0-44.115-40.679-50.557-44.176-10.181-6.025-88.808-41.215-116.418-52.579-4.082-1.97-8.465-7.195-6.071-11.092z" fill="#E6A482"/><path d="M214.581 181.069c-9.499 7.97-6.654 27.435-18.191 35.227M272.87 187.113c-4.074 8.005-1.054 17.07 3.228 23.459 3.378 4.99 10.74 14.729 17.386 15.897 7.519 1.244 5.366-9.359 1.202-12.07-8.061-5.106-19.71.622-27.08 4.378-10.567 5.09-19.995 10.573-31.844 11.883M140.897 183.277l61.66 17.863M138.765 194.239l51.444 17.262M150.972 173.744l53.604 14.371" stroke="#0C2E44" stroke-width="2" stroke-miterlimit="10" stroke-linecap="round" stroke-linejoin="round"/><path fill="#3728AA" d="M191.963 149.539h87.573v70.804h-87.573z"/><path fill="#E8DDFB" d="M221.774 149.539h27.949v70.804h-27.949z"/></g><path d="M524 114h69a8 8 0 008-8V56a8 8 0 00-8-8h-61a8 8 0 00-8 8v58z" fill="#E8DDFB"/><path d="M544.267 80.54c-7.083-18.087 9.29-22.669 19.036-9.005 6.833-14.796 29.316-4.163 16.74 12.577-5.252 6.989-13.714 13.032-16.74 15.123-5.669-3.389-15.166-8.812-19.036-18.696z" fill="#3728AA"/><path d="M106.408 302.583l-.307-1.292c-.554-2.305-2.084-4.171-4.101-4.997 2.017-.826 3.547-2.692 4.097-5.002l.307-1.292.307 1.292c.55 2.31 2.08 4.171 4.097 5.002-2.017.826-3.547 2.692-4.097 5.001l-.303 1.288z" fill="#FF7535" stroke="#FF7535" stroke-miterlimit="10" stroke-linejoin="round"/><path d="M36.96 321.485c1.246-12.424 16.67-1.721 11.271 2.492-6.075 4.739-5.398-18.026 8.17-20.977" stroke="#3728AA" stroke-width="2" stroke-linecap="round"/></svg>
