<svg width="278" height="160" viewBox="0 0 278 160" fill="none" xmlns="http://www.w3.org/2000/svg">
<rect x="0.5" y="0.5" width="277" height="159" rx="5.5" fill="white" stroke="#140B41"/>
<path fill-rule="evenodd" clip-rule="evenodd" d="M77.7063 67.681C77.8812 67.4673 78.1962 67.4357 78.4099 67.6106C80.228 69.0979 80.8819 70.6391 80.636 72.0687C80.4384 73.217 79.6783 74.1716 78.7309 74.8698C81.4579 77.8024 83.7336 82.469 81.9044 87.1627C81.8042 87.42 81.5143 87.5473 81.257 87.447C80.9997 87.3468 80.8724 87.0569 80.9727 86.7996C82.6291 82.5492 80.5302 78.1996 77.8675 75.4115C76.6872 76.0389 75.3033 76.3614 74.1331 76.2215C73.504 76.1462 72.9051 75.9327 72.4431 75.5252C71.9716 75.1094 71.6819 74.5256 71.6257 73.7943C71.5665 73.0245 71.7372 72.3652 72.2406 71.9662C72.7309 71.5776 73.3884 71.5569 74.0194 71.6984C75.1964 71.9623 76.657 72.8661 78.0178 74.151C78.8892 73.5444 79.5031 72.7556 79.6505 71.8991C79.8138 70.9498 79.4306 69.7376 77.7767 68.3846C77.563 68.2097 77.5315 67.8947 77.7063 67.681ZM77.1094 74.6729C75.8905 73.5707 74.6798 72.8713 73.8006 72.6741C73.2952 72.5608 73.0068 72.6349 72.8617 72.7499C72.7298 72.8544 72.5758 73.1074 72.6227 73.7176C72.6608 74.2129 72.8453 74.5466 73.1045 74.7752C73.3731 75.0121 73.7613 75.1698 74.2519 75.2285C75.095 75.3294 76.1463 75.1246 77.1094 74.6729Z" fill="#E5AC00"/>
<path d="M198.707 74.1483C198.766 74.3667 198.965 74.5184 199.191 74.5181C199.417 74.5178 199.615 74.3656 199.673 74.147L199.892 73.3282C199.892 73.328 199.892 73.3277 199.892 73.3274C200.247 72.0172 201.235 70.9529 202.544 70.4809C202.742 70.4095 202.874 70.2216 202.874 70.011C202.875 69.8004 202.743 69.6123 202.545 69.5405C201.234 69.0652 200.246 68.0029 199.892 66.6929L199.67 65.8699C199.611 65.6516 199.413 65.5 199.187 65.5C198.961 65.5 198.763 65.6516 198.704 65.8699L198.483 66.6929C198.483 66.6929 198.483 66.693 198.483 66.6931C198.128 68.0036 197.14 69.0681 195.83 69.5402C195.632 69.6116 195.5 69.7998 195.5 70.0105C195.5 70.2213 195.632 70.4094 195.83 70.4809C197.14 70.9529 198.128 72.0175 198.486 73.3256C198.486 73.3259 198.486 73.3262 198.486 73.3264L198.707 74.1483Z" stroke="#3728AA" stroke-miterlimit="10" stroke-linejoin="round"/>
<path fill-rule="evenodd" clip-rule="evenodd" d="M54.1914 55.5527C53.7331 55.5532 53.333 55.2421 53.2207 54.7977L52.9995 53.9225L52.9992 53.921C52.6743 52.6552 51.7854 51.6513 50.6411 51.2113C50.2549 51.0628 50 50.6917 50 50.2779C50 49.8641 50.2549 49.493 50.6411 49.3445C51.7856 48.9045 52.6739 47.9007 52.9958 46.6329L53.2177 45.755C53.3299 45.311 53.7293 45 54.1872 45C54.6451 45 55.0445 45.311 55.1567 45.755L55.3785 46.6324C55.7001 47.899 56.5879 48.9016 57.7351 49.3452C58.1207 49.4943 58.3748 49.8654 58.3744 50.2789C58.374 50.6923 58.1192 51.0629 57.7333 51.2113C56.5891 51.6512 55.701 52.6546 55.3789 53.9219L55.3785 53.9234L55.1603 54.7954C55.0491 55.24 54.6498 55.5521 54.1914 55.5527Z" fill="#FF7433"/>
<path fill-rule="evenodd" clip-rule="evenodd" d="M82.9367 32.9664C83.1294 32.7686 83.446 32.7646 83.6437 32.9573C85.3259 34.5968 85.8436 36.1889 85.4745 37.5918C85.178 38.7186 84.3379 39.6037 83.3335 40.217C85.7957 43.3752 87.6578 48.2217 85.4282 52.7389C85.306 52.9866 85.0061 53.0882 84.7585 52.966C84.5109 52.8438 84.4092 52.544 84.5315 52.2964C86.5505 48.2057 84.837 43.6904 82.4264 40.6818C81.196 41.2043 79.7893 41.4055 78.6358 41.1645C78.0155 41.0349 77.4375 40.7703 77.0125 40.3242C76.5789 39.8691 76.3409 39.2623 76.3484 38.5289C76.3562 37.7569 76.5835 37.1149 77.1196 36.7611C77.6418 36.4165 78.2986 36.4529 78.915 36.6486C80.0646 37.0137 81.4413 38.0409 82.6855 39.439C83.6062 38.9103 84.2863 38.1778 84.5074 37.3373C84.7525 36.4057 84.476 35.1649 82.9457 33.6734C82.748 33.4807 82.7439 33.1641 82.9367 32.9664ZM81.7351 39.8801C80.6166 38.6763 79.4711 37.8744 78.6123 37.6017C78.1187 37.445 77.8249 37.4938 77.6704 37.5957C77.5299 37.6884 77.3545 37.927 77.3483 38.539C77.3433 39.0357 77.4982 39.3842 77.7366 39.6345C77.9836 39.8938 78.3566 40.0846 78.8403 40.1857C79.6714 40.3593 80.7366 40.2465 81.7351 39.8801Z" fill="#140B41"/>
<path fill-rule="evenodd" clip-rule="evenodd" d="M84.6872 116C84.9132 116 85.1111 116.152 85.17 116.37L85.3918 117.193C85.3919 117.193 85.3919 117.193 85.3919 117.193C85.7466 118.503 86.7339 119.565 88.0448 120.04C88.2428 120.112 88.3746 120.3 88.3744 120.511C88.3742 120.722 88.2421 120.91 88.044 120.981C86.7346 121.453 85.7471 122.517 85.3921 123.827C85.392 123.828 85.3919 123.828 85.3918 123.828L85.1733 124.647C85.115 124.866 84.9171 125.018 84.6909 125.018C84.4646 125.018 84.2664 124.867 84.2075 124.648L83.9859 123.826C83.9859 123.826 83.9858 123.826 83.9857 123.826C83.6279 122.518 82.6399 121.453 81.3304 120.981C81.1322 120.909 81 120.721 81 120.511C81 120.3 81.1322 120.112 81.3304 120.04C82.64 119.568 83.6277 118.504 83.9825 117.193C83.9825 117.193 83.9825 117.193 83.9826 117.193L84.2044 116.37C84.2633 116.152 84.4612 116 84.6872 116ZM84.6872 118.189C84.2613 119.15 83.5481 119.958 82.6483 120.511C83.548 121.063 84.2612 121.87 84.6885 122.829C85.1148 121.869 85.8277 121.062 86.7271 120.51C85.8271 119.957 85.1135 119.15 84.6872 118.189Z" fill="#140B41"/>
<path fill-rule="evenodd" clip-rule="evenodd" d="M48.0514 86.9474C48.0011 86.6759 48.1805 86.415 48.452 86.3648C49.7082 86.1323 50.7562 86.1976 51.6044 86.5287C52.461 86.8631 53.0747 87.4535 53.4764 88.1943C53.5516 88.3331 53.6193 88.4769 53.6799 88.6251C54.6789 88.2342 55.71 88.0061 56.7201 88.0121C58.806 88.0244 60.7367 89.0375 62.0284 91.4913C62.6182 92.6118 63.0534 93.6363 63.3565 94.5699C64.676 94.5494 66.1351 94.9986 67.6654 96.0927C68.7907 96.8972 70.1146 98.4585 71.053 100.082C71.5248 100.898 71.9121 101.751 72.1272 102.556C72.3396 103.351 72.4002 104.16 72.1412 104.843C72.0434 105.102 71.7548 105.232 71.4965 105.134C71.2383 105.036 71.1082 104.747 71.206 104.489C71.3582 104.087 71.3495 103.52 71.1611 102.815C70.9754 102.12 70.6305 101.349 70.1873 100.582C69.2957 99.04 68.0591 97.6034 67.0838 96.9062C65.8126 95.9973 64.6529 95.6173 63.641 95.5736C64.2208 97.9879 63.8413 99.7107 62.9909 100.85C62.3652 101.688 61.5145 102.159 60.7145 102.336C59.9433 102.505 59.115 102.418 58.6002 101.981C57.8142 101.313 57.6556 100.237 57.8557 99.2155C58.0584 98.1809 58.6422 97.0895 59.5133 96.227C60.2521 95.4954 61.2113 94.9154 62.3411 94.6813C62.0628 93.8664 61.6719 92.9609 61.1435 91.9571C60.017 89.8171 58.4167 89.0221 56.7142 89.0121C55.8242 89.0068 54.8896 89.2167 53.9655 89.5876C54.2086 90.8026 54.0993 92.1937 53.7831 93.515C53.3336 95.3938 52.4371 97.254 51.351 98.4665C50.8088 99.0718 50.1887 99.5499 49.5187 99.7588C48.8239 99.9754 48.1045 99.8911 47.4466 99.4208C46.7324 98.9101 46.3606 98.2025 46.2797 97.4042C46.2008 96.6245 46.4 95.781 46.771 94.953C47.513 93.2974 49.0026 91.5671 50.7786 90.2546C51.4034 89.7928 52.0721 89.3765 52.7655 89.0315C52.7154 88.9058 52.6594 88.7855 52.5973 88.671C52.2987 88.1203 51.8592 87.7016 51.2408 87.4603C50.6141 87.2156 49.7654 87.1387 48.6341 87.3481C48.3625 87.3983 48.1017 87.219 48.0514 86.9474ZM53.0265 90.0206C52.4596 90.3159 51.904 90.6663 51.3729 91.0588C49.7005 92.2947 48.3394 93.8984 47.6836 95.362C47.3557 96.0936 47.2192 96.756 47.2746 97.3035C47.3282 97.8324 47.5609 98.2732 48.0282 98.6073C48.4206 98.8878 48.8125 98.9315 49.2211 98.8041C49.6545 98.669 50.1298 98.3311 50.6061 97.7993C51.5571 96.7377 52.3902 95.0393 52.8106 93.2823C53.0888 92.1198 53.1742 90.984 53.0265 90.0206ZM62.6298 95.6437C61.6756 95.8217 60.8562 96.3045 60.2169 96.9376C59.4777 97.6695 58.9985 98.5839 58.837 99.4078C58.6729 100.245 58.8488 100.88 59.2475 101.219C59.4283 101.372 59.8851 101.494 60.4992 101.359C61.0844 101.23 61.7191 100.882 62.1896 100.251C62.8239 99.4019 63.2182 97.9426 62.6298 95.6437Z" fill="#FF7433"/>
<path d="M255.606 52.8169C256.001 57.2291 248.576 53.7115 250.12 51.932C251.856 49.9301 257.218 56.728 252.839 58.532C248.46 60.3359 247.872 57.4828 248.468 56.9015C249.483 55.9115 252.77 58.2507 250.423 60.9568C249.652 61.8465 247.482 63.0264 246.531 62.5603" stroke="#FFDD33"/>
<path d="M213.867 36.5214C214.075 42.8031 221.887 37.751 219.405 35.5125C216.613 32.9942 216.217 44.4697 222.696 46.2514" stroke="#FF7433"/>
<path d="M224.581 70.2522L224.375 69.4905C224.001 68.1321 222.971 67.0322 221.612 66.5455C222.971 66.0587 224.001 64.9588 224.372 63.5976L224.579 62.8359L224.785 63.5976C225.156 64.9588 226.186 66.056 227.545 66.5455C226.186 67.0322 225.156 68.1321 224.785 69.4933L224.581 70.2522Z" stroke="#FFDD33" stroke-miterlimit="10" stroke-linejoin="round"/>
<path fill-rule="evenodd" clip-rule="evenodd" d="M216.667 99.1749C216.681 98.8992 216.469 98.6641 216.194 98.6498C215.204 98.5986 214.393 98.7547 213.759 99.104C213.117 99.4575 212.694 99.989 212.454 100.614C212.423 100.695 212.395 100.778 212.371 100.862C211.599 100.683 210.819 100.623 210.073 100.726C208.449 100.95 207.053 101.942 206.306 103.969C205.982 104.847 205.758 105.645 205.619 106.368C204.614 106.506 203.562 107.005 202.526 107.973C201.739 108.71 200.884 110.041 200.331 111.375C200.053 112.047 199.841 112.742 199.757 113.387C199.674 114.021 199.707 114.669 199.988 115.192C200.119 115.435 200.422 115.526 200.666 115.396C200.909 115.265 201 114.962 200.869 114.718C200.731 114.461 200.678 114.059 200.749 113.516C200.818 112.985 200.998 112.377 201.255 111.758C201.772 110.511 202.556 109.315 203.209 108.704C204.008 107.956 204.775 107.565 205.471 107.41C205.312 109.236 205.772 110.49 206.54 111.277C207.119 111.871 207.837 112.155 208.487 112.21C209.107 112.263 209.77 112.113 210.151 111.692C210.719 111.063 210.723 110.18 210.462 109.406C210.197 108.618 209.631 107.831 208.867 107.251C208.25 106.784 207.492 106.441 206.641 106.352C206.77 105.746 206.966 105.07 207.244 104.315C207.869 102.62 208.966 101.889 210.21 101.717C210.838 101.63 211.518 101.685 212.21 101.852C212.167 102.794 212.393 103.816 212.755 104.76C213.289 106.152 214.164 107.489 215.126 108.314C215.606 108.726 216.143 109.04 216.7 109.137C217.283 109.237 217.857 109.091 218.336 108.643C218.852 108.16 219.075 107.554 219.056 106.909C219.037 106.283 218.791 105.644 218.421 105.043C217.68 103.842 216.361 102.668 214.871 101.844C214.38 101.572 213.861 101.334 213.33 101.144C213.347 101.085 213.367 101.028 213.388 100.972C213.55 100.548 213.824 100.21 214.241 99.9799C214.667 99.7454 215.279 99.6038 216.142 99.6485C216.418 99.6627 216.653 99.4507 216.667 99.1749ZM213.206 102.165C213.605 102.319 214.001 102.505 214.388 102.719C215.765 103.48 216.939 104.546 217.57 105.568C217.885 106.079 218.044 106.547 218.056 106.939C218.068 107.313 217.948 107.637 217.653 107.913C217.412 108.138 217.157 108.201 216.87 108.151C216.557 108.097 216.182 107.903 215.777 107.555C214.968 106.862 214.177 105.677 213.688 104.402C213.389 103.62 213.218 102.848 213.206 102.165ZM206.481 107.341C207.151 107.4 207.759 107.666 208.262 108.048C208.878 108.515 209.318 109.141 209.514 109.725C209.716 110.322 209.637 110.769 209.409 111.021C209.322 111.117 209.032 111.253 208.572 111.214C208.142 111.177 207.654 110.988 207.256 110.579C206.734 110.044 206.3 109.048 206.481 107.341Z" fill="#FF7433"/>
<path d="M1 6C1 3.23858 3.23858 1 6 1H272C274.761 1 277 3.23858 277 6V19H1V6Z" fill="#FF7535"/>
<circle cx="10" cy="10" r="2" fill="white"/>
<circle cx="18" cy="10" r="2" fill="white"/>
<circle cx="26" cy="10" r="2" fill="white"/>
<path d="M139.78 148.944L139.587 148.231C139.237 146.959 138.272 145.929 137 145.473C138.272 145.018 139.237 143.988 139.584 142.713L139.778 142L139.971 142.713C140.318 143.988 141.283 145.015 142.555 145.473C141.283 145.929 140.318 146.959 139.971 148.233L139.78 148.944Z" fill="#FAD1D8" stroke="#FF9DB3" stroke-miterlimit="10" stroke-linejoin="round"/>
<path d="M99.5255 95.5C102.63 114.5 119.122 129 139 129C161.091 129 179 111.091 179 89C179 66.9086 161.091 49 139 49C118.259 49 101.204 64.7867 99.1975 85" stroke="#166969" stroke-width="2"/>
<path fill-rule="evenodd" clip-rule="evenodd" d="M93 77.5L97.5 85.2942L98.5 87.0263L100.232 86.0263L108.026 81.5263L107.026 79.7942L99.232 84.2942L94.7321 76.5L93 77.5Z" fill="#166969"/>
<circle cx="139" cy="89" r="29" fill="#D5F6F6"/>
<path fill-rule="evenodd" clip-rule="evenodd" d="M136 99L126 88.9038L128.8 86.0769L136 93.3462L151.2 78L154 80.8269L136 99Z" fill="#166969"/>
</svg>
