<svg width="48" height="76" xmlns="http://www.w3.org/2000/svg"><g fill="none" fill-rule="evenodd"><path d="M25 4l4.5 23H19l5-23h1zm10.5 52L47 75H36c0-5.5228475-5.4248678-10.5-11.5-10.5S12 69.4771525 12 75H1.5L14 56h21.5zM13 53l6-25h10l6 25H13zm5-1h12l-2.5324675-12h-6.935065L18 52z" fill="#D0EDE7" fill-rule="nonzero"/><path fill="#44CDC8" fill-rule="nonzero" d="M24 13l2 12h-4z"/><path d="M21.5 37l.5 1h-1l.5-1zm4 0l-.5-1h1l-.5 1z" stroke="#44CDC8" stroke-width="1.6"/><path d="M29.5 60l.5 1h-1l.5-1zm-10 0l.5 1h-1l.5-1zm5 0l-.5-1h1l-.5 1z" stroke="#44CDC8" stroke-width="2"/><path d="M35.5193736 58h1.919886L47.879807 74.6662731C48.231673 75.2660804 47.7688253 76 47.0386897 76H35.3906448c-.5984175 0-1.0509772-.5077464-.9446761-1.0598733.0753623-.3914311.1134619-.788769.1134619-1.1901267 0-4.4335128-4.6928249-8.1-10.559373-8.1-5.866548 0-10.559373 3.6664872-10.559373 8.1 0 .4013577.0380997.7986956.113462 1.1901267C13.6604477 75.4922536 13.207888 76 12.6094704 76H.9614256c-.74615839 0-1.20703966-.7631741-.82314433-1.3630462L11.5334501 58h2.0206965L2.65686769 74.2h8.87658241c-.008425-.1495559-.0126515-.299583-.0126515-.45 0-5.5076127 5.621922-9.9 12.479259-9.9 6.8573371 0 12.479259 4.3923873 12.479259 9.9 0 .150417-.0042265.3004441-.0126515.45h8.9485006L35.5193736 58zM23 0h3v3h-3z" fill="#394149" fill-rule="nonzero"/><g transform="translate(8 51)"><rect width="32" height="6" rx="1" fill="#D0EDE7" fill-rule="nonzero"/><rect stroke="#394149" stroke-width="2" x="1" y="1" width="30" height="4" rx="1"/></g><g transform="translate(14 27)"><rect width="20" height="6" rx="1" fill="#D0EDE7" fill-rule="nonzero"/><rect stroke="#394149" stroke-width="2" x="1" y="1" width="18" height="4" rx="1"/></g><path d="M19.8461538 26H18l4.2949596-22h4.3623364L30 26h-1.8461538L25.0350117 6h-1.1761252l-4.0127327 20zm9.4147158 8h1.9130434L35 50h-1.9130435l-3.8260869-16zm-10.5217392 0H16.826087L13 50h1.9130435l3.8260869-16zm1.9942029 7.7021277L18.8666667 50H17l2.0371901-10h9.9256198L31 50h-1.8666667l-1.8666666-8.2978723h-6.5333334z" fill="#394149" fill-rule="nonzero"/></g></svg>
