<svg width="58" height="76" xmlns="http://www.w3.org/2000/svg"><g transform="translate(1 4)" fill="none" fill-rule="evenodd"><path d="M55.0967742 30.13368V68.08H33.4193548V30.13368h-.0090322c-.1670968-3.91184-2.5127742-6.69668-5.0490323-6.69668-3.2326451 0-5.6036129 2.78484-5.7716129 6.6976h-.0090322V68.08H.9032258V0h54.1935484v30.13368z" fill="#FBDEA4" fill-rule="nonzero"/><path d="M37.9354839 46.92h12.6451613V64.4H37.9354839V46.92zm0-23h12.6451613v9.2H37.9354839v-9.2zm-32.51612906 23H18.0645161V64.4H5.41935484V46.92zm0-23H18.0645161v9.2H5.41935484v-9.2z" fill="#FFAF00" fill-rule="nonzero"/><rect stroke="#394149" stroke-width="1.83525526" y="15.64" width="56" height="3.68" rx=".61848102"/><rect stroke="#394149" stroke-width="1.83525526" y=".92" width="56" height="3.68" rx=".61848102"/><rect stroke="#394149" stroke-width="1.83525526" y="37.72" width="23.483871" height="3.68" rx=".61848102"/><rect stroke="#394149" stroke-width="1.83525526" x="32.516129" y="37.72" width="23.483871" height="3.68" rx=".61848102"/><path d="M20.7741935 67.16V43.24h1.8064517v24.5042c0 .69-.5274839 1.2558-1.1868387 1.2558H2.09006452c-.65935484 0-1.18683871-.5658-1.18683871-1.2558V43.24h1.80645161v23.92H20.7741935zm32.5161291 0V43.24h1.8064516v24.5042c0 .69-.5274839 1.2558-1.1868387 1.2558h-19.303742c-.6593548 0-1.1868387-.5658-1.1868387-1.2558V43.24h1.8064517v23.92h18.0645161zM.9032258 21.16h1.80645162v14.72H.90322581V21.16zm0-14.72h1.80645162v7.36H.90322581V6.44zm52.3870968 14.72h1.8064516v14.72h-1.8064516V21.16zm0-14.72h1.8064516v7.36h-1.8064516V6.44zM33.4193548 30.36c0-2.90352-2.5687742-5.52-5.4193548-5.52s-5.4193548 2.61648-5.4193548 5.52h10.8387096zm-12.6451613 0c0-4.0648158 3.2351038-7.36 7.2258065-7.36s7.2258065 3.2951842 7.2258065 7.36v4.6h-1.8064517v-4.6H22.5806452v4.6h-1.8064517v-4.6z" fill="#394149" fill-rule="nonzero"/></g></svg>
