<svg width="96px" height="96px" viewBox="0 0 96 96" version="1.1" xmlns="http://www.w3.org/2000/svg" xmlns:xlink="http://www.w3.org/1999/xlink">
    <!-- Generator: Sketch 54.1 (76490) - https://sketchapp.com -->
    <title>sacre-coeur</title>
    <desc>Created with Sketch.</desc>
    <g id="sacre-coeur" stroke="none" stroke-width="1" fill="none" fill-rule="evenodd">
        <path d="M15,84 L15,64 L16,64 L16,54.0731201 L18,50.0313721 L18,48 L22,38.0389404 L28,34.0078125 L33.064209,38.0389404 L36,41.039917 C36.0436815,34.0264893 37.0546019,29.3603109 39.0327611,27.0413818 C41.0109204,24.7224528 43.3370768,22.0300293 46.0112305,18.9641113 L46.0112305,11.9785156 L48,9.94934082 L50.00354,11.9785156 L50.00354,18.9641113 C53.1382243,22.0198568 55.4703776,24.7122803 57,27.0413818 C58.5296224,29.3704834 59.5296224,34.0366618 60,41.039917 L68,34.0078125 L74.9893799,40 L78.0021667,48 L78.0021667,51 L80,63 L80,64 L80,86 L17,86 C15.8954305,86 15,85.1045695 15,84 Z" id="Path-11" fill="#D1EEFC" fill-rule="nonzero"></path>
        <g id="Windows" transform="translate(20.000000, 35.000000)" fill="#738CE6">
            <path d="M20.5,0 L20.5,0 C21.3284271,-1.52179594e-16 22,0.671572875 22,1.5 L22,7 L19,7 L19,1.5 C19,0.671572875 19.6715729,1.52179594e-16 20.5,0 Z" id="Rectangle-4-Copy-20"></path>
            <path d="M25.5,0 L25.5,0 C26.3284271,-1.52179594e-16 27,0.671572875 27,1.5 L27,7 L24,7 L24,1.5 C24,0.671572875 24.6715729,1.52179594e-16 25.5,0 Z" id="Rectangle-4-Copy-20"></path>
            <path d="M30.5,0 L30.5,0 C31.3284271,-1.52179594e-16 32,0.671572875 32,1.5 L32,7 L29,7 L29,1.5 C29,0.671572875 29.6715729,1.52179594e-16 30.5,0 Z" id="Rectangle-4-Copy-20"></path>
            <path d="M35.5,0 L35.5,0 C36.3284271,-1.52179594e-16 37,0.671572875 37,1.5 L37,7 L34,7 L34,1.5 C34,0.671572875 34.6715729,1.52179594e-16 35.5,0 Z" id="Rectangle-4-Copy-20"></path>
            <path d="M28,33 L28,33 C30.209139,33 32,34.790861 32,37 L32,47 L24,47 L24,37 C24,34.790861 25.790861,33 28,33 Z" id="Rectangle-4-Copy-20"></path>
            <path d="M18,33 L18,33 C20.209139,33 22,34.790861 22,37 L22,47 L14,47 L14,37 C14,34.790861 15.790861,33 18,33 Z" id="Rectangle-4-Copy-20"></path>
            <path d="M38,33 L38,33 C40.209139,33 42,34.790861 42,37 L42,47 L34,47 L34,37 C34,34.790861 35.790861,33 38,33 Z" id="Rectangle-4-Copy-20"></path>
            <path d="M2.5,33 L2.5,33 C3.88071187,33 5,34.1192881 5,35.5 L5,47 L0,47 L0,35.5 C-1.69088438e-16,34.1192881 1.11928813,33 2.5,33 Z" id="Rectangle-4-Copy-20"></path>
            <path d="M53.5,33 L53.5,33 C54.8807119,33 56,34.1192881 56,35.5 L56,47 L51,47 L51,35.5 C51,34.1192881 52.1192881,33 53.5,33 Z" id="Rectangle-4-Copy-20"></path>
            <path d="M28,16 L28,16 C29.1045695,16 30,16.8954305 30,18 L30,28 L26,28 L26,18 C26,16.8954305 26.8954305,16 28,16 Z" id="Rectangle-4-Copy-20"></path>
            <path d="M5.5,16 L5.5,16 C6.32842712,16 7,16.6715729 7,17.5 L7,28 L4,28 L4,17.5 C4,16.6715729 4.67157288,16 5.5,16 Z" id="Rectangle-4-Copy-20"></path>
            <path d="M50.5,16 L50.5,16 C51.3284271,16 52,16.6715729 52,17.5 L52,28 L49,28 L49,17.5 C49,16.6715729 49.6715729,16 50.5,16 Z" id="Rectangle-4-Copy-20"></path>
        </g>
        <g id="Outlines" transform="translate(16.000000, 4.000000)" fill="#394149" fill-rule="nonzero">
            <path d="M13,60 L51,60 L51,82 L13,82 L13,60 Z M15,62 L15,80 L49,80 L49,62 L15,62 Z" id="Rectangle"></path>
            <path d="M63,80.0124512 L52,80.0124512 L52,82.0124512 L63,82.0124512 C64.1045695,82.0124512 65,81.1170207 65,80.0124512 L65,60.0031128 L52,60.0031128 L52,62.0031128 L63,62.0031128 L63,80.0124512 Z" id="Path-15"></path>
            <path d="M4,50.3571429 L4,59 L6,59 L6,50.3571429 C6,47.6652701 5.25643792,46.6062246 3.72886699,45.2517681 L3.11305258,44.7057419 L2.45877512,45.2050344 C0.802713703,46.468809 0,47.5508222 0,50.3571429 L0,59 L2,59 L2,50.3571429 C2,48.6162702 2.34840315,48.3277436 3.02128037,47.4471723 C3.6673514,48.3764278 4,48.6683808 4,50.3571429 Z" id="Rectangle"></path>
            <path d="M62,50.3571429 L62,59 L64,59 L64,50.3571429 C64,47.6652701 63.1433853,46.6062246 61.6158144,45.2517681 L61,44.7057419 L60.3457225,45.2050344 C58.6896611,46.468809 58,47.5508222 58,50.3571429 L58,59 L60,59 L60,50.3571429 C60,48.6162702 60.3271228,48.3277436 61,47.4471723 C61.646071,48.3764278 62,48.6683808 62,50.3571429 Z" id="Rectangle"></path>
            <path d="M18,44.7057419 L18,59 L20,59 L20,44.7057419 C20,42.0138691 18.7351575,40.9272069 17.2075866,39.5727504 L16.5917722,39.0267242 L15.9374947,39.5260168 C14.2814333,40.7897913 13,41.8994212 13,44.7057419 L13,59 L15,59 L15,44.7057419 C15,42.9648692 15.8271228,42.648726 16.5,41.7681547 C17.146071,42.6974101 18,43.0169798 18,44.7057419 Z" id="Rectangle"></path>
            <rect id="Rectangle" x="51" y="24" width="2" height="3"></rect>
            <path d="M43,34 L43,38 L45,38 L45,34 C45,26.1133859 40.8095947,19.4785775 32.5410508,14.1590101 L32,13.8109251 L31.4589492,14.1590101 C23.1904053,19.4785775 19,26.1133859 19,34 L19,38 L21,38 L21,34 C21,27.0157619 24.6318329,21.1004653 32,16.195063 C39.3681671,21.1004653 43,27.0157619 43,34 Z" id="Rectangle"></path>
            <path d="M33,10.651401 L33,16.2942581 L35,16.2942581 L35,10.651401 C35,7.95952826 34.1433853,6.90048276 32.6158144,5.54602626 L32,5 L31.3457225,5.49929258 C29.6896611,6.76306711 29,7.84508036 29,10.651401 L29,16.2942581 L31,16.2942581 L31,10.651401 C31,8.91052831 31.3484032,8.62200178 32.0212804,7.74143049 C32.6673514,8.67068592 33,8.96263889 33,10.651401 Z" id="Rectangle"></path>
            <rect id="Rectangle" x="31" y="0" width="2" height="4"></rect>
            <rect id="Rectangle" transform="translate(12.000000, 25.500000) scale(-1, 1) translate(-12.000000, -25.500000) " x="11" y="24" width="2" height="3"></rect>
            <path d="M18.9959412,38 L21.0021667,38 C20.2316932,36.0491299 19.2399452,34.4436922 18.028841,33.0289966 C16.5393044,31.289063 14.717958,29.8376561 12.5683705,28.3869885 L11.9949341,28 L11.4305892,28.4001304 C5.07263974,32.9080283 2,37.9791332 2,44 L3.99562073,44 C3.99562073,38.8604518 6.50821031,34.4978687 11.9949341,30.4395137 C14.6559137,32.3013752 16.6675995,34.3538722 18.0010939,36.3129743 C18.390903,36.885662 18.7227593,37.4503688 18.9959412,38 Z" id="Rectangle"></path>
            <path d="M59.9959412,38 L62.0021667,38 C61.2316932,36.0491299 60.2399452,34.4436922 59.028841,33.0289966 C57.5393044,31.289063 55.717958,29.8376561 53.5683705,28.3869885 L52.9949341,28 L52.4305892,28.4001304 C46.0726397,32.9080283 43,37.9791332 43,44 L44.9956207,44 C44.9956207,38.8604518 47.5082103,34.4978687 52.9949341,30.4395137 C55.6559137,32.3013752 57.6675995,34.3538722 59.0010939,36.3129743 C59.390903,36.885662 59.7227593,37.4503688 59.9959412,38 Z" id="Rectangle" transform="translate(52.501083, 36.000000) scale(-1, 1) translate(-52.501083, -36.000000) "></path>
            <path d="M27.0545224,43.8280218 L27.0655223,45.9391804 L19,48.9602149 L19.0157231,46.843 L27.0545224,43.8280218 Z" id="Path-5"></path>
            <path d="M45,46.9230173 L44.9075589,49 L37.0928257,46.0583305 L37.0294571,43.9211213 L45,46.9230173 Z" id="Path-5"></path>
            <polygon id="Path-8" points="32.0247776 39.5246236 36 43.8974308 36 59.0427246 38 59.0427246 38 43.1242252 32.0333584 36.5608256 26 43.1208935 26 59.0427246 28 59.0427246 28 43.9007624"></polygon>
            <path d="M49,44.7057419 L49,59 L51,59 L51,44.7057419 C51,42.0138691 49.7351575,40.9272069 48.2075866,39.5727504 L47.5917722,39.0267242 L46.9374947,39.5260168 C45.2814333,40.7897913 44,41.8994212 44,44.7057419 L44,59 L46,59 L46,44.7057419 C46,42.9648692 46.8271228,42.648726 47.5,41.7681547 C48.146071,42.6974101 49,43.0169798 49,44.7057419 Z" id="Rectangle"></path>
        </g>
        <path d="M26,84.0124512 L15,84.0124512 L15,86.0124512 L26,86.0124512 C27.1045695,86.0124512 28,85.1170207 28,84.0124512 L28,64.0031128 L15,64.0031128 L15,66.0031128 L26,66.0031128 L26,84.0124512 Z" id="Path-15" fill="#394149" fill-rule="nonzero" transform="translate(21.500000, 75.007782) scale(-1, 1) translate(-21.500000, -75.007782) "></path>
    </g>
</svg>
