<svg width="76" height="78" xmlns="http://www.w3.org/2000/svg"><g fill="none" fill-rule="evenodd"><path d="M0 1h76v77H0z"/><path d="M6 24V10l27-1V3h10v6h27v15h4v52h-8V35h-3v41h-8V35h-3v41h-8V35H32v41h-8V35h-3v41h-8V35h-3v41H2V24h4z" fill="#D0EDE7"/><path d="M9 37v39c0 .5522847-.44771525 1-1 1H4c-.55228475 0-1-.4477153-1-1V37M51 37v39c0 .5522847-.4477153 1-1 1h-4c-.5522847 0-1-.4477153-1-1V37M20 37v39c0 .5522847-.4477153 1-1 1h-4c-.5522847 0-1-.4477153-1-1V37M62 37v39c0 .5522847-.4477153 1-1 1h-4c-.5522847 0-1-.4477153-1-1V37M31 37v39c0 .5522847-.4477153 1-1 1h-4c-.5522847 0-1-.4477153-1-1V37M73 37v39c0 .5522847-.4477153 1-1 1h-4c-.5522847 0-1-.4477153-1-1V37" stroke="#394149" stroke-width="2"/><rect stroke="#394149" stroke-width="2" x="1" y="23" width="74" height="12" rx=".67368421"/><path d="M45 10h24.8c.1104569 0 .2.0895431.2.2v9.6c0 .1104569-.0895431.2-.2.2H45M31 20H7c-.5522847 0-1-.4477153-1-1v-8.5c0-.2761424.2238576-.5.5-.5H31M33 21V3.75789474C33 3.33932103 33.2513489 3 33.5614035 3h8.877193C42.7486511 3 43 3.33932103 43 3.75789474V21" stroke="#394149" stroke-width="2"/><path fill="#394149" d="M35 0h6v2h-6z"/><path d="M4 26h68v6H4v-6zm4-13h22v4H8v-4zm38 0h22v4H46v-4zm-10 6V7h4v12h-4z" fill="#44CDC8"/></g></svg>
