<svg width="73" height="75" xmlns="http://www.w3.org/2000/svg"><g fill="none" fill-rule="evenodd"><path d="M1 6c0-2.31337038 3.81923488-4.39280484 7.5-4.5C12.7746517 1.37550904 17 3.58203334 17 6v29h8V5c6.6666667-5 12-4.33333333 16 2v28h27.5L73 48v26.0000029c0 .5522848-.4477153 1-1 1H3c-1.1045695 0-2-.8954305-2-2V6z" fill="#FBDEA4"/><path d="M25.7880481 5.37034644C24.7379386 8.5795559 24.6941023 11.1108413 25.5963605 13h14.7487633c.7719787-2.0092709.7325198-4.57173949-.1357009-7.64125152C39.225087 2.79758679 36.7328965 1.5 32.5 1.5l-.0288615-.00041658c-3.2337083-.09336872-5.4024892 1.17072274-6.6830904 3.87076302zM1.78800823 5.37046815C.7379375 8.5796199.69411371 11.1108652 1.59636045 13H16.3451238c.7719787-2.0092709.7325198-4.57173949-.1357009-7.64125152C15.2212674 2.78764866 12.869449 1.5 8.92385819 1.5l-.02678698-.00035884c-3.52360763-.09442067-5.83071877 1.17932673-7.10906298 3.87082699zM15 74H3c-.55228475 0-1-.4477153-1-1V16h13" stroke="#394149" stroke-width="2"/><path fill="#394149" d="M15 15h2v19h-2z"/><path stroke="#394149" stroke-width="2" d="M26 34V16h14v18"/><path fill="#394149" d="M4 45h8v2H4zM4 27h10v2H4zM28 27h10v2H28zM4 57h8v2H4z"/><path d="M14 50v24h58V50H14zM17.7385747 36l-3.3846154 11h57.2416702l-3.8076923-11H17.7385747z" stroke="#394149" stroke-width="2"/><path d="M9 38c-1.65685425 0-3-1.3431458-3-3s1.34314575-3 3-3c1.6568542 0 3 1.3431458 3 3s-1.3431458 3-3 3zm11 18c1.6666667-2.6666667 2.6666667-4 3-4 .3229696 0 1.2717951 1.251712 2.8464767 3.7551361.1003031.1594765.1535233.3440413.1535233.5324383V72h-6V56zm10 0c1.6666667-2.6666667 2.6666667-4 3-4 .3229696 0 1.2717951 1.251712 2.8464767 3.7551361.1003031.1594765.1535233.3440413.1535233.5324383V72h-6V56zm1-34.6c1.1111111-1.6 1.7777778-2.4 2-2.4.2098253 0 .8158905.7132318 1.8181956 2.1396955l.0000133-.0000093c.1183074.168373.1817911.3691445.1817911.5749261V25h-4v-3.6zm-24 0C8.11111111 19.8 8.77777778 19 9 19c.2098253 0 .8158905.7132318 1.8181956 2.1396955l.0000133-.0000093c.1183074.168373.1817911.3691445.1817911.5749261V25H7v-3.6zM40 56c1.6666667-2.6666667 2.6666667-4 3-4 .3229696 0 1.2717951 1.251712 2.8464767 3.7551361.1003031.1594765.1535233.3440413.1535233.5324383V72h-6V56zm10 0c1.6666667-2.6666667 2.6666667-4 3-4 .3229696 0 1.2717951 1.251712 2.8464767 3.7551361.1003031.1594765.1535233.3440413.1535233.5324383V72h-6V56zm10 0c1.6666667-2.6666667 2.6666667-4 3-4 .3229696 0 1.2717951 1.251712 2.8464767 3.7551361.1003031.1594765.1535233.3440413.1535233.5324383V72h-6V56z" fill="#FFAF00"/></g></svg>
