<svg width="16" height="76" xmlns="http://www.w3.org/2000/svg"><g fill="none" fill-rule="evenodd"><path fill="#FBDEA4" d="M5 41.5V32h6v9.5z"/><path fill="#D1EEFC" d="M4 43v32h8V43l-1-7v-2H5v2z"/><rect stroke="#394149" stroke-width="2" x="5" y="37" width="6" height="4" rx=".53894737"/><path fill="#D1EEFC" d="M6 13l-1.5 7h7L10 13z"/><circle stroke="#394149" stroke-width="2" fill="#D1EEFC" cx="8" cy="27" r="7"/><path stroke="#394149" stroke-width="2" d="M5 15h6v2H5z"/><path fill="#394149" d="M7 0h1l2 13H6z"/><path d="M5.93891501 45c-.33292856 10.717295-.78690823 25.1158079-.90812693 29H10.972557c-.089681-3.0297508-.3981274-12.8645113-.9100888-29H5.93891501zM12 43c.6666667 21 1 31.6666667 1 32 0 .5-.5 1-1 1H4c-.57028765 0-1-.568254-1-1 0-.2800739.34501288-10.856997 1-32h8z" fill="#394149" fill-rule="nonzero"/><circle fill="#738CE6" cx="8" cy="27" r="4"/></g></svg>
