<svg xmlns="http://www.w3.org/2000/svg" width="24" height="24" viewBox="0 0 24 24">
    <g fill="#fff" fill-rule="evenodd">
        <path d="M16.012 5.128a.477.477 0 0 0-.651 0l-.218.207a.422.422 0 0 0 0 .619l.325.308c1.62 1.532 2.51 3.568 2.51 5.732 0 2.167-.893 4.206-2.515 5.741l-.327.31a.423.423 0 0 0 0 .62l.217.207c.18.17.472.17.653-.001l.327-.31c3.822-3.62 3.824-9.504.004-13.125l-.325-.308z"/>
        <path d="M13.362 7.453l-.327-.318a.464.464 0 0 0-.653-.001l-.217.215c-.18.18-.234.47-.055.65l.27.325v.003c2.21 2.073 2.134 5.304.037 7.514h.03l-.302.309a.456.456 0 0 0 .004.647l.22.213c.179.18.472.177.652-.004l.328-.327.008-.002c2.577-2.544 2.461-6.681.005-9.224M10 6L7 9H5c-.744.234-1 .517-1 1v4c0 .635.256.918 1 1h2l3 3V6z"/>
    </g>
</svg>
