<svg width="76" height="59" xmlns="http://www.w3.org/2000/svg"><g fill="none" fill-rule="evenodd"><path d="M57 59H35l.025-1H16v1H1c-.55228475 0-1-.4477153-1-1V8h3l4-8h2l4 8h3v8.0473684h3C19.9760407 14.509067 20.8093741 13.4932775 21.5 13c1.0359389-.7399163 3.5872773-1.5 4.5-1.5 1.1699316 0 3.2074325.577921 4.5 1.5 1.4694903 1.0482904 3.144597 4.486664 3.5 5.0473684L36 18v1h3l6-7 6 7h5V8h4l4-6h5l3 6h4v50c0 .5522847-.4477153 1-1 1H57z" fill="#D0EDE7"/><path d="M0 9h2.10526316l4.11695906-6.22222222V2c0-.55228475.44771525-1 1-1H8.6c.55228475 0 1 .44771525 1 1v.77777778L13.8947368 9H16M56 9h3.3684211L64 2.77777778V1h5v1.77777778L72.6315789 9H76M37 20h2.3684211L46 12l6.6315789 8H55" stroke="#394149" stroke-width="2"/><path d="M75 58H1" stroke="#394149" stroke-width="2" fill="#FBDEA4" stroke-linecap="round"/><path fill="#394149" fill-rule="nonzero" d="M0 11h2v45H0z"/><path d="M57 11v45M38 22v34" stroke="#394149" stroke-width="2" fill="#D8D8D8"/><path d="M5.5 21c.82842712 0 1.5.6715729 1.5 1.5V27H4v-4.5c0-.8284271.67157288-1.5 1.5-1.5zm0-9c.82842712 0 1.5.6715729 1.5 1.5V18H4v-4.5c0-.8284271.67157288-1.5 1.5-1.5zm0 18c.82842712 0 1.5.6715729 1.5 1.5V36H4v-4.5c0-.8284271.67157288-1.5 1.5-1.5zm0 9c.82842712 0 1.5.6715729 1.5 1.5V45H4v-4.5c0-.8284271.67157288-1.5 1.5-1.5zm5-18c.8284271 0 1.5.6715729 1.5 1.5V27H9v-4.5c0-.8284271.67157288-1.5 1.5-1.5zm0-9c.8284271 0 1.5.6715729 1.5 1.5V18H9v-4.5c0-.8284271.67157288-1.5 1.5-1.5zm0 18c.8284271 0 1.5.6715729 1.5 1.5V36H9v-4.5c0-.8284271.67157288-1.5 1.5-1.5zm0 9c.8284271 0 1.5.6715729 1.5 1.5V45H9v-4.5c0-.8284271.67157288-1.5 1.5-1.5zm-3 9c1.38071187 0 2.5 1.1192881 2.5 2.5V56H5v-5.5C5 49.1192881 6.11928813 48 7.5 48zM61.5 21c.8284271 0 1.5.6715729 1.5 1.5V27h-3v-4.5c0-.8284271.6715729-1.5 1.5-1.5zm.5-9c1.1045695 0 2 .8954305 2 2v4h-4v-4c0-1.1045695.8954305-2 2-2zm0 18c1.1045695 0 2 .8954305 2 2v4h-4v-4c0-1.1045695.8954305-2 2-2zm-.5 9c.8284271 0 1.5.6715729 1.5 1.5V45h-3v-4.5c0-.8284271.6715729-1.5 1.5-1.5zm4-18c.8284271 0 1.5.6715729 1.5 1.5V27h-3v-4.5c0-.8284271.6715729-1.5 1.5-1.5zm1-9c.8284271 0 1.5.6715729 1.5 1.5V18h-3v-4.5c0-.8284271.6715729-1.5 1.5-1.5zm0 18c.8284271 0 1.5.6715729 1.5 1.5V36h-3v-4.5c0-.8284271.6715729-1.5 1.5-1.5zm-1 9c.8284271 0 1.5.6715729 1.5 1.5V45h-3v-4.5c0-.8284271.6715729-1.5 1.5-1.5zm1 9c1.3807119 0 2.5 1.1192881 2.5 2.5V56h-5v-5.5c0-1.3807119 1.1192881-2.5 2.5-2.5zM70 21c1.1045695 0 2 .8954305 2 2v4h-4v-4c0-1.1045695.8954305-2 2-2zm.5-9c.8284271 0 1.5.6715729 1.5 1.5V18h-3v-4.5c0-.8284271.6715729-1.5 1.5-1.5zm0 18c.8284271 0 1.5.6715729 1.5 1.5V36h-3v-4.5c0-.8284271.6715729-1.5 1.5-1.5zm-.5 9c1.1045695 0 2 .8954305 2 2v4h-4v-4c0-1.1045695.8954305-2 2-2zM43.5 24c.8284271 0 1.5.6715729 1.5 1.5V28h-3v-2.5c0-.8284271.6715729-1.5 1.5-1.5zm0 6c.8284271 0 1.5.6715729 1.5 1.5V36h-3v-4.5c0-.8284271.6715729-1.5 1.5-1.5zm0 9c.8284271 0 1.5.6715729 1.5 1.5V45h-3v-4.5c0-.8284271.6715729-1.5 1.5-1.5zm2 9c1.3807119 0 2.5 1.1192881 2.5 2.5V56h-5v-5.5c0-1.3807119 1.1192881-2.5 2.5-2.5zm3-24c.8284271 0 1.5.6715729 1.5 1.5V28h-3v-2.5c0-.8284271.6715729-1.5 1.5-1.5zm0 6c.8284271 0 1.5.6715729 1.5 1.5V36h-3v-4.5c0-.8284271.6715729-1.5 1.5-1.5zm0 9c.8284271 0 1.5.6715729 1.5 1.5V45h-3v-4.5c0-.8284271.6715729-1.5 1.5-1.5z" fill="#44CDC8"/><path d="M23 20v3h2v-3h-2zm5 8v3h2v-3h-2zm0 8v3h2v-3h-2zm-5 14v5h2v-5h-2zm0-22v3h2v-3h-2zm0 8v3h2v-3h-2zm5-16v3h2v-3h-2zm0 35h2v-3c0-.5522847-.4477153-1-1-1s-1 .4477153-1 1v3zm-5-12v2h2v-2h-2zm5 0v2h2v-2h-2z" stroke="#44CDC8" stroke-width="2"/><path fill="#394149" fill-rule="nonzero" d="M14 11h2v45h-2z"/><path d="M75 11v45M54 22v34" stroke="#394149" stroke-width="2" fill="#D8D8D8"/><path fill="#394149" fill-rule="nonzero" d="M17 19h2v37h-2zM34 19h2v37h-2z"/><path d="M17 17h2.1859382c.5121869-3.3922941 3.5916748-6 7.3140618-6 3.722387 0 6.8018749 2.6077059 7.3140618 6H36" stroke="#394149" stroke-width="2"/></g></svg>
