<svg width="76" height="70" xmlns="http://www.w3.org/2000/svg"><g fill="none" fill-rule="evenodd"><path d="M-10-26h96v96h-96z"/><path d="M1 57.4738791V69h65.1229596L74.361712 6.38548156c.1440378-1.09468712-.1708158-2.20022545-.869988-3.05476922-1.3989103-1.70977925-3.9190011-1.96178833-5.6287803-.56287803L1 57.4738791z" stroke="#394149" stroke-width="2" fill="#FBDEA4"/><g fill="#FFAF00"><path d="M8 60.9444444L12 58v10H8zM18 55l4-3.5V68h-4zM28 47.5l4-2V68h-4zM38 42l4-2.5V68h-4zM48 35l4-2v35h-4z"/></g><path d="M67 12.2463363V55h2V10.1231682c0-.23246217-.0809874-.45766207-.2290382-.63688148-.35174-.42579042-.9820528-.48582022-1.4078432-.13408031L67 12.2463363zm1.6368814-1.3522064c-.4257904.3517399-1.0561032.2917101-1.4078432-.1340803C67.0809874 10.5808302 67 10.3556303 67 10.1231682v2.1231681l1.6368814-1.3522064zM67 10.1231682c0 .2324621.0809874.457662.2290382.6368814.35174.4257904.9820528.4858202 1.4078432.1340803L67 12.2463363v-2.1231681zm0 2.1231681V55h2V10.1231682c0-.23246217-.0809874-.45766207-.2290382-.63688148-.35174-.42579042-.9820528-.48582022-1.4078432-.13408031L2 60v2.9419885l65-50.6956522z" fill="#394149" fill-rule="nonzero"/><path d="M54 33L2 65v3h52V33zm0-3l13-20 2 1-13 20v39H2c-1.10246802 0-2-.9022729-2-2v-4l54-34z" fill="#394149" fill-rule="nonzero"/></g></svg>
