<svg width="65" height="76" xmlns="http://www.w3.org/2000/svg"><g fill="none" fill-rule="evenodd"><path d="M16 76V48h3V31c3-7.6666667 7.6666667-11.3333333 14-11 6.3333333.3333333 11 4 14 11v17h3v28H16z" fill="#D1EEFC"/><path stroke="#394149" stroke-width="2" d="M17 49h32v26H17zM20 46h26V33c0-7.1797017-5.8202983-13-13-13s-13 5.8202983-13 13v13z"/><path d="M33 58c2.7614237 0 5 2.2385763 5 5v9H28v-9c0-2.7614237 2.2385763-5 5-5z" fill="#738CE6"/><path d="M36.5355339 36.5355339c1.95262143-1.95262142 1.95262143-5.11844638 0-7.0710678-1.95262142-1.95262143-5.11844638-1.95262143-7.0710678 0-1.95262143 1.95262142-1.95262143 5.11844638 0 7.0710678 1.95262142 1.95262143 5.11844638 1.95262143 7.0710678 0z" stroke="#394149" stroke-width="2"/><g transform="rotate(-45 71.40559187 -18.67767008)"><rect stroke="#394149" stroke-width="2" fill="#D1EEFC" x="1" y="1" width="14" height="26" rx=".81"/><path d="M9 3h3.8947368v4H9V3zM3 3h3.89473684v4H3V3zm6 6h3.8947368v4H9V9zM3 9h3.89473684v4H3V9zm6 6h3.8947368v4H9v-4zm-6 0h3.89473684v4H3v-4zm6 6h3.8947368v4H9v-4zm-6 0h3.89473684v4H3v-4z" fill="#738CE6"/></g><g transform="rotate(45 26.82842666 64.97056268)"><rect stroke="#394149" stroke-width="2" fill="#D1EEFC" x="1" y="1" width="14" height="26" rx=".81"/><path d="M9 3h3.8947368v4H9V3zM3 3h3.89473684v4H3V3zm6 6h3.8947368v4H9V9zM3 9h3.89473684v4H3V9zm6 6h3.8947368v4H9v-4zm-6 0h3.89473684v4H3v-4zm6 6h3.8947368v4H9v-4zm-6 0h3.89473684v4H3v-4z" fill="#738CE6"/></g><g transform="rotate(45 -31.112698 40.97056303)"><rect stroke="#394149" stroke-width="2" fill="#D1EEFC" x="1" y="1" width="14" height="26" rx=".81"/><path d="M9 3h3.8947368v4H9V3zM3 3h3.89473684v4H3V3zm6 6h3.8947368v4H9V9zM3 9h3.89473684v4H3V9zm6 6h3.8947368v4H9v-4zm-6 0h3.89473684v4H3v-4zm6 6h3.8947368v4H9v-4zm-6 0h3.89473684v4H3v-4z" fill="#738CE6"/></g><g transform="rotate(-45 14.46446566 5.32233065)"><rect stroke="#394149" stroke-width="2" fill="#D1EEFC" x="1" y="1" width="14" height="26" rx=".81"/><path d="M9 3h3.8947368v4H9V3zM3 3h3.89473684v4H3V3zm6 6h3.8947368v4H9V9zM3 9h3.89473684v4H3V9zm6 6h3.8947368v4H9v-4zm-6 0h3.89473684v4H3v-4zm6 6h3.8947368v4H9v-4zm-6 0h3.89473684v4H3v-4z" fill="#738CE6"/></g><path fill="#394149" d="M28.75735917 37.24264073l1.41421356-1.41421356 7.07106782 7.07106781-1.41421357 1.41421357zM27.34314596 21.68629124l1.41421356-1.41421357 8.48528137 8.48528138-1.41421356 1.41421356zM44.31370848 27.34314539l1.41421356 1.41421356-8.48528137 8.48528138-1.41421356-1.41421357zM28.75735927 28.75735945l1.41421356 1.41421357-7.07106781 7.0710678-1.41421357-1.41421355z"/></g></svg>
