<svg width="88" height="88" viewBox="0 0 88 88" fill="none" xmlns="http://www.w3.org/2000/svg">
<path d="M0 0H88V88H0V0Z" fill="white"/>
<path d="M28 54V84H60V54H47L44 51L41 54H28Z" fill="#D1EEFC"/>
<path d="M42 58C42 56.8954 42.8954 56 44 56C45.1046 56 46 56.8954 46 58V64H42V58Z" fill="#738CE6"/>
<path d="M48 61C48 59.8954 48.8954 59 50 59C51.1046 59 52 59.8954 52 61V67H48V61Z" fill="#738CE6"/>
<path fill-rule="evenodd" clip-rule="evenodd" d="M44 10L38 27V27.9739L37.3333 27L34 31.8696V54H54V31.8696L50.6667 27L50 27.9739V27L44 10ZM20 58.0016L24 47L28 58.0016V84H22C20.8954 84 20 83.1046 20 82V58.0016ZM64 47L60 58.0016V84H66C67.1046 84 68 83.1046 68 82V58.0016L64 47Z" fill="#D1EEFC"/>
<path d="M36 61C36 59.8954 36.8954 59 38 59C39.1046 59 40 59.8954 40 61V67H36V61Z" fill="#738CE6"/>
<path d="M37 47C37 45.8954 37.8954 45 39 45C40.1046 45 41 45.8954 41 47V54H37V47Z" fill="#738CE6"/>
<path d="M37 34C37 33.4477 37.4477 33 38 33C38.5523 33 39 33.4477 39 34V41H37V34Z" fill="#738CE6"/>
<path d="M41 34C41 33.4477 41.4477 33 42 33C42.5523 33 43 33.4477 43 34V43H41V34Z" fill="#738CE6"/>
<path d="M45 34C45 33.4477 45.4477 33 46 33C46.5523 33 47 33.4477 47 34V43H45V34Z" fill="#738CE6"/>
<path d="M49 34C49 33.4477 49.4477 33 50 33C50.5523 33 51 33.4477 51 34V41H49V34Z" fill="#738CE6"/>
<path d="M47 47C47 45.8954 47.8954 45 49 45C50.1046 45 51 45.8954 51 47V54H47V47Z" fill="#738CE6"/>
<path d="M21 83V52.1777L24 43.9266L27 52.1777V83H21Z" fill="#D1EEFC" stroke="#394149" stroke-width="2" stroke-linejoin="round"/>
<path d="M44 10L44.943 9.66718L44 6.99537L43.057 9.66718L44 10ZM38.943 27.3328L44.943 10.3328L43.057 9.66718L37.057 26.6672L38.943 27.3328ZM43.057 10.3328L49.057 27.3328L50.943 26.6672L44.943 9.66718L43.057 10.3328Z" fill="#394149"/>
<path d="M61 83V52.1777L64 43.9266L67 52.1777V83H61Z" fill="#D1EEFC" stroke="#394149" stroke-width="2" stroke-linejoin="round"/>
<path d="M34 29.7391L37.3333 26L40.6667 29.7391L44 26L47.3333 29.7391L50.6667 26L54 29.7391" stroke="#394149" stroke-width="2"/>
<path d="M34 45L39 40L44 45L49 40L54 45" stroke="#394149" stroke-width="2" stroke-linejoin="round"/>
<path d="M36 55H40L44 50L48 55H52" stroke="#394149" stroke-width="2" stroke-linejoin="round"/>
<path d="M30 32.4547L32.5 24L35 32.4547V63H30V32.4547Z" fill="#D1EEFC"/>
<path d="M53 32.4547L55.5 24L58 32.4547V63H53V32.4547Z" fill="#D1EEFC"/>
<path d="M29 67.9999H38L44 62.5L50 67.9999H59" stroke="#394149" stroke-width="2" stroke-linejoin="round"/>
<path d="M34 29.4547H35C35 29.3651 34.988 29.2759 34.9642 29.1895L34 29.4547ZM31 29.4547L30.0358 29.1895C30.012 29.2759 30 29.3651 30 29.4547H31ZM32.5 24L33.4642 23.7348L32.5 20.2286L31.5358 23.7348L32.5 24ZM33 29.4547V66H35V29.4547H33ZM32 66V29.4547H30V66H32ZM31.9642 29.7198L33.4642 24.2652L31.5358 23.7348L30.0358 29.1895L31.9642 29.7198ZM31.5358 24.2652L33.0358 29.7198L34.9642 29.1895L33.4642 23.7348L31.5358 24.2652Z" fill="#394149"/>
<path d="M57 29.4547H58C58 29.3651 57.988 29.2759 57.9642 29.1895L57 29.4547ZM54 29.4547L53.0358 29.1895C53.012 29.2759 53 29.3651 53 29.4547H54ZM55.5 24L56.4642 23.7348L55.5 20.2286L54.5358 23.7348L55.5 24ZM56 29.4547V66H58V29.4547H56ZM55 66V29.4547H53V66H55ZM54.9642 29.7198L56.4642 24.2652L54.5358 23.7348L53.0358 29.1895L54.9642 29.7198ZM54.5358 24.2652L56.0358 29.7198L57.9642 29.1895L56.4642 23.7348L54.5358 24.2652Z" fill="#394149"/>
<path d="M44 70C45.675 70 46.9046 70.7244 47.7346 71.7116C48.586 72.7242 49 73.9974 49 75V83H39V75C39 73.9974 39.414 72.7242 40.2654 71.7116C41.0954 70.7244 42.325 70 44 70Z" stroke="#394149" stroke-width="2"/>
<path d="M23 54C23 53.4477 23.4477 53 24 53C24.5523 53 25 53.4477 25 54V69H23V54Z" fill="#738CE6"/>
<path d="M63 54C63 53.4477 63.4477 53 64 53C64.5523 53 65 53.4477 65 54V69H63V54Z" fill="#738CE6"/>
<path d="M30 72C30 71.4477 30.4477 71 31 71C31.5523 71 32 71.4477 32 72V81H30V72Z" fill="#738CE6"/>
<path d="M34 72C34 71.4477 34.4477 71 35 71C35.5523 71 36 71.4477 36 72V81H34V72Z" fill="#738CE6"/>
<path d="M52 72C52 71.4477 52.4477 71 53 71C53.5523 71 54 71.4477 54 72V81H52V72Z" fill="#738CE6"/>
<path d="M56 72C56 71.4477 56.4477 71 57 71C57.5523 71 58 71.4477 58 72V81H56V72Z" fill="#738CE6"/>
<rect x="29" y="82" width="30" height="2" fill="#394149"/>
<circle cx="44" cy="5" r="1" fill="#394149"/>
<rect x="41" y="11" width="6" height="3" rx="1.5" fill="#D1EEFC" stroke="#394149" stroke-width="2" stroke-linejoin="round"/>
</svg>
