<svg width="56" height="64" xmlns="http://www.w3.org/2000/svg"><g fill="none" fill-rule="evenodd"><path d="M-20-32h96v96h-96z"/><path d="M17 20v44h22V19l16-5v-3H32V4c-1.8432617-2.66666667-3.5099284-4-5-4-1.4900716 0-3.1567383 1.33333333-5 4v7H1v3.5L17 20z" fill="#D0EDE7"/><path d="M17 62h22v-2H17v2zm-1.32631579-4H40.3263158C40.6983813 58 41 58.3016187 41 58.6736842v4.6526316C41 63.6983813 40.6983813 64 40.3263158 64H15.67368421C15.3016187 64 15 63.6983813 15 63.3263158v-4.6526316C15 58.3016187 15.3016187 58 15.67368421 58z" fill="#394149" fill-rule="nonzero"/><path fill="#44CDC8" d="M33 51l-2-1v5h2zM25 45l-2-1v11h2zM29 48l-2-1v8h2z"/><path stroke="#394149" stroke-width="2" d="M18 36v20h20v-6M18 12h6v22h-6zM32 12v28h6V12h-6zM55 14.2671127l-17 5.368421V12h17v2.2671127z"/><path d="M37 46.706731V44h2v5h-2.028195l-13.9636218-8.2956316V38.5L37 46.706731z" fill="#394149"/><path d="M1 14.2671127l17 5.36842104V12H1v2.2671127z" stroke="#394149" stroke-width="2"/><path stroke="#394149" d="M25.5 11.5h7v1h-7z"/><path d="M31 9V5c0-2.209139-1.790861-4-4-4s-4 1.790861-4 4v4h8z" stroke="#394149" stroke-width="2"/><path d="M20 14h2v18h-2V14zm14 0h2v24h-2V14z" fill="#44CDC8"/></g></svg>
