<svg width="77" height="56" xmlns="http://www.w3.org/2000/svg"><g fill="none" fill-rule="evenodd"><g fill="#FBDEA4"><path d="M59.50000001 14c-7.79213526 6.93527795-9.45880189 13.9352779-5 21.00000003C57.20907597 39.29237911 62.70907593 45.62571253 71.00000003 54l1.00000002 3e-8C65.5296987 45.7302179 60.98690604 39.32943909 58.37162189 34.79766346 55.75633768 30.26588776 56.13246373 23.33333333 59.50000001 14zM17.01969499 14c7.79213526 6.93527795 9.45880189 13.9352779 5 21.00000003C19.3106191 39.29237918 13.81061907 45.62571253 5.51969497 54l-1.00000002 3e-8c6.47030134-8.26978212 11.01309401-14.67056093 13.62837816-19.20233656C20.76335732 30.26588776 20.38723127 23.33333333 17.01969499 14z"/><path d="M51.00000051 13.4999998c-6.0345397 8.20145407-6.94144302 15.93170907-2.72070996 23.19076473 2.2570653 3.88182872 8.22070996 13.30923524 12.72070996 17.30923528l1.00000002 2e-8c-4.13368882-7.24549838-7.58377775-13.47353962-10.35026664-18.68412388-2.7664889-5.2105841-2.98306667-12.48254285-.64973338-21.81587615zM25.00000018 11.00000035c6.32262195 9.86812076 7.37356638 18.431709 3.15283325 25.69076473-2.25706524 3.88182864-7.65283327 13.30923522-12.15283328 17.30923526l-1.06787663-5e-8c3.80035551-7.24549835 7.08377775-13.47353961 9.85026664-18.68412373 2.7664889-5.2105841 2.83902557-13.31587622.21761002-24.3158762zM41.2021559 11.49999985c-2.42938976 8.70680483-3.08119283 16.83280669-1.95540933 24.3780056.3340726 2.23901314 1.65254238 8.27967796 3.95540926 18.1219944l1.00000002 3e-8c-.49999997-5.00000004-.49999996-12.50000006-1.0339796-18.04611995-.5045119-5.24005662-1.15985208-13.39135-1.96602035-24.45388008zM34.5000002 11.99999996c2.30877234 8.3734715 2.90026677 16.3328067 1.77448321 23.87800567-.3340726 2.23901314-2.425567 8.27967794-6.2744832 18.12199439l-.99999995-5e-8c1.07520049-4.92737963 2.65949778-13.05077976 3.35305346-18.04611985.72860442-5.24777864 1.4442533-13.23240526 2.14694649-23.95388016z"/></g><g fill="#394149" fill-rule="nonzero"><path d="M59.5000007 13.99999976c-3.36753633 9.33333328-4.11528419 15.96822434-1.50000004 20.49999997 2.61528414 4.53177563 7.52969875 11.23021794 14.00000002 19.49999999l-.50000009 6e-8c-8.29092424-8.37428733-13.88469408-14.72241537-16.59376996-19.01479466-4.45880192-7.06472202-3.19836524-14.04992746 4.59377007-20.98520536zm-.92345451-1.50876233c-8.47149477 7.5399321-10.38941146 15.59518217-5.3616312 23.56141823 2.80646633 4.44668927 8.38401428 10.86932004 16.7700458 19.33967106l.51504017.60767266 5.9999997 4e-7-2.51860263-3.24721015c-6.41737628-8.20213778-10.91270738-14.53604343-13.47130645-18.9695949-2.25584282-3.90893415-1.90988982-10.28535576 1.27742934-19.11920608l2.67369871-7.41032012-5.88467344 5.2375689zM17.1115553 13.99999976c3.36753633 9.33333328 4.11528419 15.96822434 1.50000004 20.49999997-2.61528414 4.53177563-7.52969875 11.23021794-14.00000002 19.49999999l.50000001-1e-8c8.2909241-8.37428747 13.88469409-14.72241537 16.59377004-19.0147946 4.45880192-7.06472201 3.19836524-14.04992745-4.59377007-20.98520535zm.92345451-1.50876233c8.47149477 7.5399321 10.38941146 15.59518217 5.36163134 23.56141836-2.80646655 4.44668907-8.38401442 10.86931991-16.77004579 19.33967107l-.51503996.60767287-6.00000005 5e-8 2.51860262-3.24721015c6.41737628-8.20213778 10.91270738-14.53604343 13.47130645-18.9695949 2.25584282-3.90893415 1.90988982-10.28535576-1.27742934-19.11920608l-2.67369871-7.41032012 5.88467344 5.2375689z"/><path d="M51.09577986 13.35509802c-2.3333333 9.33333329-2.3622688 16.43431781.40422017 21.644902C54.26648892 40.21058412 57.86631115 46.75450169 62.00000005 54l-1.00000002-3e-8c-4.50000008-3.99999996-10.36786484-13.57230852-12.62493007-17.45413716-4.22073306-7.2590558-3.3138298-14.98931074 2.7207099-23.19076479zm-1.61092142-1.18529831c-6.4804446 8.80747678-7.48699277 17.38708382-2.83876648 25.38136663 3.90759938 6.72051063 9.23635309 14.34576608 13.12096032 17.7987503L60.49999998 56l5.00000003 4e-8-1.66705303-3.13598755c-4.12433786-7.22910797-7.56491215-13.43997364-10.32097286-18.63091672-2.49801166-4.70491676-2.70025418-11.4955465-.47590918-20.39292654l2.46004224-9.8401692-6.01124874 8.16979968zM26.0000001 13.0000004c1.95474893 9.99999999 1.22376972 17.71865878-1.5427191 22.92924296-2.7664889 5.21058411-5.65692531 10.82525863-9.45728082 18.07075698l.99999995 5e-8c4.5-4.00000004 9.5706589-12.81403988 11.82772414-16.69586852 4.22073313-7.25905573 3.82823117-15.43601072-1.82772416-24.30413148zm1.36112733-.96208984c6.03367852 9.46036293 6.82170928 18.31523689 2.19557484 26.27152484-.04527108.07785969-.49017588.8439628-.63689198 1.09608777-.2739338.47074317-.51623233.88524157-.76114958 1.30147195-.62939786 1.06964512-1.22686932 2.06653846-1.83299199 3.05316913-1.0617317 1.72825914-2.0936987 3.3323543-3.1116225 4.81997894-2.25499535 3.2955182-4.32162481 5.8491067-6.21042759 7.5280425-3.65901613.0628521-5.45260349.02579427-5.3807622-.11117348.2695571-.51391916.67389277-1.28479787 1.21300696-2.31263619 3.80180967-7.24827083 7.08675195-13.47919528 9.85495664-18.69301111 2.51360252-4.73428145 2.8961539-11.90262355 1.02122013-21.49430976L21.68808077 3.14299183l5.67304666 8.89491873z"/><path d="M41.25853388 11.59916799c.8061684 11.06253007 1.4615085 19.21382338 1.96602041 24.45388014.53397964 5.5461199.27544613 12.9469517.7754461 17.94695173l-.74146644-3e-8c-2.30286696-9.84231638-3.62133674-15.78381304-3.95540928-18.02282626-1.12578363-7.5451989-.4739805-15.6712007 1.9554092-24.37800558zm-1.92641637-.53751252c-2.50195825 8.96688635-3.17632979 17.37424868-2.00709565 25.21066148.34565707 2.31665385 1.66794067 8.3747922 3.98610694 18.28249728l.18887164 1.44518562 4.99999996-3e-8-.2513921-2.0998393c-.2156872-2.15687214-.27953877-3.42407127-.53206892-9.58840379-.01484442-.3612885-.01484442-.3612885-.02994156-.72288721-.14403195-3.43246251-.27374942-5.6761829-.47124939-7.7274948-.50269312-5.221166-1.15697216-13.35926136-1.9621041-24.4075688L42.41856234-1.8e-7l-3.08644482 11.06165565z"/><path d="M34.44333018 11.95234906c-.70269325 10.72147482-1.41834212 18.70610158-2.14694647 23.95388015-.69355568 4.99534009-2.22118296 13.1663914-3.29638359 18.09377104l1.00000002-2e-8c3.84891613-9.84231638 5.88374065-15.93063237 6.21781318-18.16964558 1.12578364-7.5451989.53428919-15.50453408-1.77448314-23.87800559zm1.92805317-.5316118c2.380651 8.63416169 2.99296853 16.87369924 1.82453272 24.70476084-.36625815 2.45472614-2.4716297 8.53547105-6.38994459 18.55525163l-.80597134 1.3192506-4.49999996-5e-8.48930971-2.47403677c1.25603437-5.75609679 2.71267616-13.47675869 3.32607624-17.89477712.72053973-5.1896929 1.43243329-13.13242187 2.13222587-23.80963815L33.22240485 3e-7l3.1489785 11.42073698z"/></g></g></svg>
