<svg width="68" height="62" xmlns="http://www.w3.org/2000/svg"><g fill="none" fill-rule="evenodd"><path d="M-15-34h96v96h-96z"/><path d="M12 0h10v18.1463415h4V0h12v54.4390244h29v7.0569106L0 62v-9.5772358h12V0zm10 23.1869919v31.2520325h4V23.1869919h-4z" fill="#D1EEFC"/><path fill="#738CE6" d="M30 4h4v48h-4zM14 4h4v48h-4z"/><path stroke="#394149" stroke-width="2" d="M11 52V1h10v51M27 53V1h10v52"/><path d="M22 18h4v2h-4v-2zm0 4h4v2h-4v-2z" fill="#394149"/><path d="M43.0451327 43c.5019107 5.5443701 5.1218551 10 10.4331282 10 6.164642 0 10.9682991-4.3350544 11.4771201-10H43.0451327zM22.9548673 52c-.5019107-5.5443701-5.1218551-10-10.4331282-10-6.164642 0-10.96829915 4.3350544-11.47712008 10H22.9548673z" stroke="#394149" stroke-width="2" fill="#D1EEFC"/><g stroke="#394149" stroke-width="2"><path d="M13 55h6v6h-6zM7 55h6v6H7zM7 61v-6H1v6h6zM19 55h6v6h-6zM25 55h6v6h-6zM31 55h6v6h-6zM37 55h6v6h-6zM43 55h6v6h-6zM49 55h6v6h-6zM55 55h6v6h-6zM61 55v6h6v-6h-6z"/></g></g></svg>
