<svg width="233" height="202" fill="none"
  xmlns="http://www.w3.org/2000/svg">
  <circle cx="133" cy="93" r="87" fill="#D1EEFC"/>
  <path fill-rule="evenodd" clip-rule="evenodd" d="M219.987 94.516c.009-.504.013-1.01.013-1.516 0-25.313-10.811-48.102-28.067-64H124a4 4 0 0 0-4 4v57.498a4 4 0 0 0 4 4h95.717c.091 0 .181.006.27.018z" fill="#E2CAEF"/>
  <path d="M194 31h-70a2 2 0 0 0-2 2v57.498a2 2 0 0 0 2 2h96v2h-96a4 4 0 0 1-4-4V33a4 4 0 0 1 4-4h67.933L194 31z" fill="#394149"/>
  <path fill-rule="evenodd" clip-rule="evenodd" d="M168.524 76.733c1.839-2.292 2.901-5.635 2.901-9.902 0-5.173-2.091-9.713-5.32-13.15 3.211-1.1 6.677-1.547 9.62-1.547 3.499 0 8.621 1.464 12.847 4.366.899.617 1.744 1.29 2.516 2.015-2.906 2.616-4.762 6.189-4.762 10.073 0 5.023 2.812 8.74 6.632 8.918 1.878.088 3.666-.762 4.921-2.376 1.233-1.587 1.897-3.819 1.897-6.542 0-3.54-1.076-6.621-2.781-9.233a12.694 12.694 0 0 1 6.844-1.083 2.001 2.001 0 0 0 .475-3.972c-3.523-.42-6.972.329-9.892 1.885a24.661 24.661 0 0 0-3.586-2.982c-4.831-3.319-10.734-5.07-15.111-5.07-3.873 0-8.716.685-13.049 2.597a22.043 22.043 0 0 0-4.966-2.583c-7.611-2.79-16.862-1.326-22.971 6.951a2 2 0 0 0 3.218 2.376c4.917-6.662 12.205-7.834 18.376-5.571.817.3 1.61.657 2.372 1.07-4.063 2.909-7.031 7.381-7.031 13.858 0 7.723 4.435 12.903 9.764 13.2 2.642.148 5.223-.977 7.086-3.298zm-6.311-21.278c-3.807 2.26-6.539 5.803-6.539 11.376 0 6.336 3.441 9.065 5.987 9.207 1.295.072 2.652-.45 3.743-1.809 1.114-1.387 2.021-3.756 2.021-7.398 0-4.506-2.052-8.503-5.212-11.376zm31.458 6.125c1.323 2.05 2.105 4.391 2.105 7.008 0 2.11-.516 3.393-1.055 4.087-.517.665-1.093.858-1.577.836-.905-.042-2.818-1.158-2.818-4.923 0-2.546 1.274-5.079 3.345-7.008z" fill="#738CE6"/>
  <path d="M72 77a3 3 0 0 1 3-3h35.904a3 3 0 0 1 3 3v28.16a3 3 0 0 1-3 3H89.202a3 3 0 0 0-1.93.703l-7.6 6.384a1 1 0 0 1-1.644-.766v-3.321c0-1.663-1.358-3-3.01-3-1.662 0-3.018-1.349-3.018-3V77z" fill="#D9ECBE" stroke="#394149" stroke-width="2" stroke-linejoin="round"/>
  <path fill-rule="evenodd" clip-rule="evenodd" d="M83.439 94.052c-.49-.72-.987-1.868-1.414-3.49a1.5 1.5 0 0 0-2.901.763c.471 1.792 1.078 3.303 1.835 4.415.744 1.093 1.797 2.024 3.192 2.12 1.4.096 2.594-.687 3.528-1.737.947-1.065 1.823-2.613 2.635-4.587.411-1 .873-1.736 1.318-2.214.448-.48.796-.616 1.004-.638.17-.019.47.013.92.414.474.421 1.045 1.198 1.628 2.502.945 2.111 2.466 3.772 4.53 3.711 1.999-.058 3.471-1.725 4.374-3.678.165-.356.31-.573.415-.698.138.139.322.383.525.772a1.5 1.5 0 1 0 2.66-1.386c-.321-.617-.709-1.183-1.18-1.62-.471-.436-1.101-.812-1.87-.859-1.641-.1-2.682 1.252-3.273 2.532-.765 1.655-1.507 1.932-1.74 1.939-.17.005-.901-.147-1.703-1.939-.68-1.52-1.466-2.712-2.373-3.518-.93-.828-2.038-1.282-3.23-1.156-1.154.123-2.124.763-2.882 1.577-.762.817-1.395 1.896-1.897 3.119-.75 1.822-1.473 3.024-2.104 3.733-.644.725-1.006.742-1.08.737-.078-.005-.415-.076-.917-.814zm20.92-3.236l.003.002a.012.012 0 0 0-.003-.001z" fill="#27B45A"/>
  <path d="M135 106a3 3 0 0 1 3-3h90.243a3 3 0 0 1 3 3v49.616a3 3 0 0 1-3 3h-55.976c-.714 0-1.405.254-1.948.718l-17.066 14.569a1 1 0 0 1-1.649-.76v-11.527a3 3 0 0 0-3-3H138a3 3 0 0 1-3-3V106z" fill="#FFDCDC" stroke="#394149" stroke-width="2" stroke-linejoin="round"/>
  <path d="M197 122s-4.82 3.348-13.255 3.348c-8.285 0-12.743-3.324-12.745-3.348l1.103 14.746a10 10 0 0 0 9.972 9.254h3.534a10 10 0 0 0 9.954-9.044L197 122z" fill="#F667AE"/>
  <mask id="a" fill="#fff">
    <path fill-rule="evenodd" clip-rule="evenodd" d="M202.087 113.591a1 1 0 0 1 1.825.818c-3.198 7.142-10.429 12.199-18.912 12.569V139a1 1 0 0 1-2 0v-12-.022c-8.483-.37-15.715-5.427-18.913-12.569a1 1 0 0 1 1.825-.818C168.909 120.284 175.867 125 184 125c8.133 0 15.09-4.716 18.087-11.409z"/>
  </mask>
  <path fill-rule="evenodd" clip-rule="evenodd" d="M202.087 113.591a1 1 0 0 1 1.825.818c-3.198 7.142-10.429 12.199-18.912 12.569V139a1 1 0 0 1-2 0v-12-.022c-8.483-.37-15.715-5.427-18.913-12.569a1 1 0 0 1 1.825-.818C168.909 120.284 175.867 125 184 125c8.133 0 15.09-4.716 18.087-11.409z" fill="#394149"/>
  <path d="M203.408 113.087l.818-1.825-.818 1.825zm-1.321.504l1.825.818-1.825-.818zm1.825.818l1.826.817-1.826-.817zM185 126.978l-2 .043-.042-1.956 1.954-.085.088 1.998zm-2 0l.087-1.998 1.954.085-.041 1.956-2-.043zm-18.913-12.569l1.825-.818-1.825.818zm.504-1.322l-.817-1.825.817 1.825zm1.321.504l1.826-.817-1.826.817zm36.679 1.322a1 1 0 0 0 1.321-.504l-3.65-1.635a3 3 0 0 1 3.964-1.512l-1.635 3.651zm-.504-1.322a1 1 0 0 0 .504 1.322l1.635-3.651a3 3 0 0 1 1.512 3.964l-3.651-1.635zm-17.175 11.389c7.739-.338 14.291-4.947 17.175-11.389l3.651 1.635c-3.512 7.843-11.423 13.348-20.651 13.75l-.175-3.996zM183 127v.021l3.999-.085.001.064h-4zm0 12v-12h4v12h-4zm1-1a1 1 0 0 0-1 1h4a3 3 0 0 1-3 3v-4zm1 1a1 1 0 0 0-1-1v4a3 3 0 0 1-3-3h4zm0-12v12h-4v-12h4zm0 .021V127h-4v-.064l4 .085zm-19.088-13.43c2.885 6.442 9.437 11.051 17.175 11.389l-.174 3.996c-9.229-.402-17.139-5.907-20.651-13.75l3.65-1.635zm-.504 1.322a1 1 0 0 0 .504-1.322l-3.65 1.635a3 3 0 0 1 1.512-3.964l1.634 3.651zm-1.321-.504c.226.504.817.729 1.321.504l-1.634-3.651a3 3 0 0 1 3.964 1.512l-3.651 1.635zM184 127c-8.912 0-16.59-5.17-19.913-12.591l3.651-1.635C170.409 118.739 176.646 123 184 123v4zm19.912-12.591C200.59 121.83 192.912 127 184 127v-4c7.353 0 13.591-4.261 16.262-10.226l3.65 1.635z" fill="#394149" mask="url(#a)"/>
  <path d="M140.968 133.619a3 3 0 0 0-3-3h-60.1a3 3 0 0 0-3 3v49.011a3 3 0 0 0 3 3h36.259c.715 0 1.405.255 1.948.718l13.893 11.861a1 1 0 0 0 1.65-.761v-8.818a3 3 0 0 1 3-3h3.35a3 3 0 0 0 3-3v-49.011z" fill="#D0EDE7" stroke="#394149" stroke-width="2" stroke-linejoin="round"/>
  <path d="M109.626 153.06l.135 1.545 1.352-.761a2.348 2.348 0 0 1 2.909.483l.745.83.744-.83a2.356 2.356 0 0 1 4.112 1.572v16.257a4 4 0 0 1-4 4h-4.544a4 4 0 0 1-4-4v-10.138c0-.196.014-.388.04-.575l.1-.691-.614-.331a2.399 2.399 0 0 1-.422-.291l-.935-.807-.595 1.083a2.356 2.356 0 0 1-4.279-.33l-5.357-14.718a2.357 2.357 0 1 1 4.428-1.612l3.503 9.625 1.936-.429-.972-11.109a2.357 2.357 0 0 1 4.695-.411l1.019 11.638z" fill="#44CDC8" stroke="#394149" stroke-width="2"/>
  <path fill-rule="evenodd" clip-rule="evenodd" d="M113.518 166.88a3.353 3.353 0 0 0 1.293-.861 3.357 3.357 0 0 0 5.812-2.288v-7.832a3.357 3.357 0 0 0-5.812-2.289 3.345 3.345 0 0 0-2.455-1.068c-.633 0-1.225.176-1.73.48l-1.022-11.687a3.357 3.357 0 0 0-6.688.585l.972 11.109-3.503-9.625a3.357 3.357 0 0 0-6.308 2.296l4.967 13.647a8.96 8.96 0 0 0-1.916 5.552v3.257a9 9 0 0 0 9 9h4.493c.327 0 .652-.037.958-.152 1.146-.43 4.009-1.862 4.009-5.442 0-2.499-1.046-3.603-1.971-4.577l-.099-.105zm-2.465-8.981l.013.154a3.37 3.37 0 0 1-.066 1.022v3.046c.625-.772 1.505-1.242 2.136-1.507a9.18 9.18 0 0 1 .577-.219v-2.496h-2.66zm2.66-2H111a1.357 1.357 0 1 1 2.713 0zm2.197 2v1.954c.392-.067.772-.12 1.125-.163.665-.08 1.029-.592 1.029-.994a.797.797 0 0 0-.797-.797h-1.357zm-2.197 4.646c-.875.405-1.481.967-1.481 1.745 0 .294.037.556.103.797h.021c.749 0 1.357-.607 1.357-1.356v-1.186zm-13.107-4.754a8.996 8.996 0 0 1 2.401-1.336l-4.502-12.367a1.357 1.357 0 1 0-2.549.928l4.65 12.775zm5.541-1.892l-1.238-14.153a1.356 1.356 0 1 1 2.702-.237l1.259 14.39h-2.723zm9.763 5.988c.459-.089.922-.158 1.365-.211a3.292 3.292 0 0 0 1.348-.476v2.531a1.356 1.356 0 1 1-2.713 0v-1.844zm2.713-5.638a2.786 2.786 0 0 0-1.356-.35h-1.357a1.358 1.358 0 0 1 2.713 0v.35z" fill="#394149"/>
  <path d="M117.267 157.899h-11.139a7 7 0 0 0-7 7v3.257a7 7 0 0 0 7 7h4.493a.819.819 0 0 0 .256-.025c.977-.366 2.711-1.326 2.711-3.569 0-.854-.157-1.4-.336-1.784-.186-.397-.444-.726-.812-1.125a11.61 11.61 0 0 0-.238-.248c-.716-.735-1.97-2.02-1.97-4.115 0-2.159 1.819-3.221 2.904-3.676 1.238-.52 2.719-.782 3.899-.924.665-.08 1.029-.592 1.029-.994a.797.797 0 0 0-.797-.797z" fill="#44CDC8"/>
  <path d="M65.039 89a3 3 0 0 0-3-3H3.999a3 3 0 0 0-3 3v40.746a1 1 0 0 0 1 1h37.693c.691 0 1.362.239 1.897.676l14.127 11.539a1 1 0 0 0 1.632-.775v-8.44a3 3 0 0 1 3-3h1.69a3 3 0 0 0 3-3V89z" fill="#FBDEA4" stroke="#394149" stroke-width="2" stroke-linejoin="round"/>
  <path d="M29.804 97.52a3.179 3.179 0 1 1 6.342 0l-.98 13.886a2.197 2.197 0 0 1-4.382 0l-.98-13.886zM30.337 119.433a2.843 2.843 0 1 1 5.685 0 2.843 2.843 0 0 1-5.685 0z" fill="#FF790F"/>
  <path d="M144.249 4a3 3 0 0 0-3-3H56.587a3 3 0 0 0-3 3v51.74a3 3 0 0 0 3 3h59.524c.714 0 1.404.254 1.947.718l14.743 12.586a1 1 0 0 0 1.649-.76V61.74a3 3 0 0 1 3-3h3.799a3 3 0 0 0 3-3V4zM134.45 71.29zm-1.649.754z" fill="#F9F3BB" stroke="#394149" stroke-width="2" stroke-linejoin="round"/>
  <path fill-rule="evenodd" clip-rule="evenodd" d="M82.537 16.213c-7.582 0-13.728 6.146-13.728 13.727 0 7.582 6.146 13.728 13.728 13.728h29.567c7.581 0 13.727-6.146 13.727-13.728 0-7.581-6.146-13.727-13.727-13.727H82.537z" fill="#FFAF00"/>
  <path fill-rule="evenodd" clip-rule="evenodd" d="M82.537 14.213h29.567c8.686 0 15.727 7.041 15.727 15.727s-7.041 15.728-15.727 15.728H82.537c-8.686 0-15.728-7.042-15.728-15.728s7.042-15.727 15.728-15.727zm0 2c-7.582 0-13.728 6.146-13.728 13.727 0 7.582 6.146 13.728 13.728 13.728h29.567c7.581 0 13.727-6.146 13.727-13.728 0-7.581-6.146-13.727-13.727-13.727H82.537z" fill="#394149"/>
  <path d="M73 29.5c0-5.247 4.277-9.5 9.552-9.5h29.895c5.276 0 9.553 4.253 9.553 9.5s-4.277 9.5-9.553 9.5H82.552C77.277 39 73 34.747 73 29.5z" fill="#394149"/>
  <path d="M80 37c3.078-5.621 9.757-10 17.5-10s14.422 4.379 17.5 10H80z" fill="#F667AE"/>
  <path d="M77 21.769V25a1 1 0 0 0 1 1h3a1 1 0 0 0 1-1v-4.984a9.535 9.535 0 0 0-5 1.753zM118 21.769a9.536 9.536 0 0 0-5-1.753V25a1 1 0 0 0 1 1h3a1 1 0 0 0 1-1v-3.231zM111 20h-5v5a1 1 0 0 0 1 1h3a1 1 0 0 0 1-1v-5zM104 20h-5v5a1 1 0 0 0 1 1h3a1 1 0 0 0 1-1v-5zM96 20h-5v5a1 1 0 0 0 1 1h3a1 1 0 0 0 1-1v-5zM89 20h-5v5a1 1 0 0 0 1 1h3a1 1 0 0 0 1-1v-5z" fill="#fff"/>
  <path d="M97.5 31c.828 0 1.5.593 1.5 1.326V37h-3v-4.674c0-.733.672-1.326 1.5-1.326z" fill="#394149"/>
</svg>
