<svg width="215" height="76" viewBox="0 0 215 76" fill="none" xmlns="http://www.w3.org/2000/svg">
<circle cx="132" cy="31" r="2" fill="#E1E5E7"/>
<circle cx="142" cy="31" r="2" fill="#E1E5E7"/>
<circle cx="73" cy="31" r="2" fill="#E1E5E7"/>
<circle cx="83" cy="31" r="2" fill="#E1E5E7"/>
<path d="M110 74.25L111.25 74.25L111.25 73L111.25 59L111.25 57.75L110 57.75L104 57.75L102.75 57.75L102.75 59L102.75 73L102.75 74.25L104 74.25L110 74.25Z" fill="#FFEFCC" stroke="#394149" stroke-width="2.5"/>
<path d="M110 69L104 69L104 55L110 55L110 69Z" fill="#FFAF00"/>
<rect x="96.94" y="9.33992" width="19.88" height="36.4831" rx="9.94" fill="#D1EEFC" stroke="#394149" stroke-width="2.84"/>
<path d="M126.76 41.3445C126.76 49.8295 117.511 56.4183 107.571 56.4183C97.6311 56.4183 87 49.8295 87 41.3445" stroke="#394149" stroke-width="2.84" stroke-linecap="round"/>
<path d="M89.8398 74.3107C89.8398 73.5868 90.4267 72.9999 91.1506 72.9999H122.609C123.333 72.9999 123.92 73.5868 123.92 74.3107C123.92 75.0346 123.333 75.6215 122.609 75.6215H91.1506C90.4267 75.6215 89.8398 75.0346 89.8398 74.3107Z" fill="#394149"/>
<path d="M96.9404 31.203H106.99C107.714 31.203 108.3 31.7899 108.3 32.5138C108.3 33.2377 107.714 33.8245 106.99 33.8245H96.9404V31.203Z" fill="#394149"/>
<path d="M96.9399 24.96H104.149C104.873 24.96 105.46 25.5468 105.46 26.2707C105.46 26.9946 104.873 27.5815 104.149 27.5815H96.9399V24.96Z" fill="#394149"/>
<path d="M96.9404 18.7168H104.15C104.874 18.7168 105.46 19.3036 105.46 20.0276C105.46 20.7515 104.874 21.3383 104.15 21.3383H96.9404V18.7168Z" fill="#394149"/>
<path d="M2 21.8246V39.6491" stroke="#E1E5E7" stroke-width="3.4" stroke-linecap="round" stroke-linejoin="round"/>
<path d="M28.4277 21.8246V39.6491" stroke="#E1E5E7" stroke-width="3.4" stroke-linecap="round" stroke-linejoin="round"/>
<path d="M37.2363 12.9124V48.5615" stroke="#E1E5E7" stroke-width="3.4" stroke-linecap="round" stroke-linejoin="round"/>
<path d="M10.8096 17.3684V44.1052" stroke="#E1E5E7" stroke-width="3.4" stroke-linecap="round" stroke-linejoin="round"/>
<path d="M54.8545 21.8246V39.6491" stroke="#E1E5E7" stroke-width="3.4" stroke-linecap="round" stroke-linejoin="round"/>
<path d="M19.6182 8.45605V53.0175" stroke="#E1E5E7" stroke-width="3.4" stroke-linecap="round" stroke-linejoin="round"/>
<path d="M46.0449 4V57.4737" stroke="#E1E5E7" stroke-width="3.4" stroke-linecap="round" stroke-linejoin="round"/>
<path d="M212.79 21.8246V39.6491" stroke="#E1E5E7" stroke-width="3.4" stroke-linecap="round" stroke-linejoin="round"/>
<path d="M186.362 21.8246V39.6491" stroke="#E1E5E7" stroke-width="3.4" stroke-linecap="round" stroke-linejoin="round"/>
<path d="M177.554 12.9124V48.5615" stroke="#E1E5E7" stroke-width="3.4" stroke-linecap="round" stroke-linejoin="round"/>
<path d="M203.98 17.3684V44.1052" stroke="#E1E5E7" stroke-width="3.4" stroke-linecap="round" stroke-linejoin="round"/>
<path d="M159.936 21.8246V39.6491" stroke="#E1E5E7" stroke-width="3.4" stroke-linecap="round" stroke-linejoin="round"/>
<path d="M195.172 8.45605V53.0175" stroke="#E1E5E7" stroke-width="3.4" stroke-linecap="round" stroke-linejoin="round"/>
<path d="M168.745 4V57.4737" stroke="#E1E5E7" stroke-width="3.4" stroke-linecap="round" stroke-linejoin="round"/>
</svg>
