<svg width="28" height="69" xmlns="http://www.w3.org/2000/svg"><g fill="none" fill-rule="evenodd"><path d="M-34-27h96v96h-96z"/><path d="M0 1v67c0 .5522847.44771525 1 1 1h26c.5522847 0 1-.4477153 1-1V1c0-.55228475-.4477153-1-1-1H1C.44771525 0 0 .44771525 0 1z" fill="#D0EDE7"/><path d="M3.41070191 2H2v65h16.4831657L3.41070191 2zM0 68V1c0-.55228475.44771525-1 1-1h4l16 69H1c-.55228475 0-1-.4477153-1-1zM8.51683433 2L23.5892981 67H26V54.1926405L15.851431 2H8.51683433zM6 0h11.5L28 54v14c0 .5522847-.4477153 1-1 1h-5L6 0zM21.5 2l4.4658144 28V2H21.5zM19 0h8c.5522847 0 1 .44771525 1 1v47l-2.0341856-10L19 0z" fill="#394149" fill-rule="nonzero"/><path d="M3 9h1l.5 2H3V9zm0 4h1l1 2H3v-2zm0 4h2l1 2H3v-2zm0 4h3l1 2H3v-2zm0 4h4l1 2H3v-2zm0 4h5l1 2H3v-2zm0 4h6l1 2H3v-2zm0 4h7l1 2H3v-2zm0 4h8l1 2H3v-2zm0 4h9l1 2H3v-2zm0 4h10l1 2H3v-2zm8-40h5l.5 2h-5L11 9zm12.5 0H25v2h-1l-.5-2zm.5 3h1v2h-.5l-.5-2zm.5 3h.5v2h-.25l-.25-2zM12 13h4.5l.5 2h-4.5l-.5-2zm1 4h4.4444444L18 19h-4.4444444L13 17zm1 4h3.9375l.5625 2h-3.9375L14 21zm1 4h4l.5 2h-4l-.5-2zm1 4h3.9375l.5625 2h-3.9375L16 29zm1 4h3.4285714L21 35h-3.4285714L17 33zm1 4h3.3333333L22 39h-3.3333333L18 37zm1 4h3.3333333L23 43h-3.3333333L19 41zm1 4.0264242c1.9823839-.0352323 2.9823839-.0352323 3 0 .0176161.0352322.1842828.7018988.5 2h-2.9285714l-.5714286-2zM21 49h2.5714286L24 51h-2.5714286L21 49z" fill="#44CDC8"/></g></svg>
