<svg width="75" height="60" xmlns="http://www.w3.org/2000/svg"><g fill="none" fill-rule="evenodd"><path d="M7.95218595 59H67.0110599C71.678027 50.1769834 74 43.1622737 74 38 74 17.4935912 57.8074454 1 38 1 17.3416066 1 1 17.3416066 1 38c0 7.6180991 2.45916267 14.9165888 6.95219683 21.0000005z" stroke="#394149" stroke-width="2" fill="#FBDEA4"/><path d="M43 33h3v3h-3v-3zm5 0h3v3h-3v-3zm5 0h3v3h-3v-3zm5 0h3v3h-3v-3zm0 5h3v3h-3v-3zm-5 0h3v3h-3v-3zm-5 0h3v3h-3v-3zm-5 0h3v3h-3v-3zm0 5h3v3h-3v-3zm5 0h3v3h-3v-3zm5 0h3v3h-3v-3zm5 0h3v3h-3v-3z" fill="#FFAF00"/></g></svg>
