<svg width="69" height="75" xmlns="http://www.w3.org/2000/svg"><g fill="none" fill-rule="evenodd"><path d="M49 75H1c-.55228475 0-1-.4477153-1-1V49c0-.5522847.44771525-1 1-1h48V28l1-2v-2c0-.5522847.4477153-1 1-1h1V10h14v13h1c.5522847 0 1 .4477153 1 1v2l1 2v46c0 .5522847-.4477153 1-1 1H49z" fill="#D1EEFC"/><path d="M60 63.3157895C60 61.4845295 60.6715729 61 61.5 61s1.5.4845295 1.5 2.3157895V69h-3v-5.6842105zm-38 1C22 62.4845295 22.6715729 62 23.5 62s1.5.4845295 1.5 2.3157895V70h-3v-5.6842105zm16 0C38 62.4845295 38.6715729 62 39.5 62s1.5.4845295 1.5 2.3157895V70h-3v-5.6842105zm-8 0C30 62.4845295 30.6715729 62 31.5 62s1.5.4845295 1.5 2.3157895V70h-3v-5.6842105zm-16 0C14 62.4845295 14.6715729 62 15.5 62s1.5.4845295 1.5 2.3157895V70h-3v-5.6842105zm-8 0C6 62.4845295 6.67157288 62 7.5 62s1.5.4845295 1.5 2.3157895V70H6v-5.6842105zm50-1C56 61.4845295 56.6715729 61 57.5 61s1.5.4845295 1.5 2.3157895V69h-3v-5.6842105zM65 2h-3V0l1.3333333 1.33333333L63.5 1l.5-1 .6666667 1.33333333L66 0v2h-1zM55 2h-3V0l1.3333333 1.33333333L54 0l.6666667 1.33333333L56 0v2h-1zm5 2h-3V2l1.3333333 1.33333333L59 2l.6666667 1.33333333L61 2v2h-1zm-5 29h2v4h-2v-4zm6 0h2v4h-2v-4zm-5 37h7v2h-7v-2z" fill="#738CE6"/><g fill="#394149"><path d="M50 26h18l1 2H49zM51 23h16c.5522847 0 1 .4477153 1 1v1H50v-1c0-.5522847.4477153-1 1-1zM52.8585786 8.87734591L59 8l6.1414214.87734591C65.6340701 8.9477243 66 9.36964503 66 9.8672954V11H52V9.8672954c0-.49765037.3659299-.9195711.8585786-.98994949z"/><path d="M51 31v42h16V31H51zm-2-2h20v45c0 .5522847-.4477153 1-1 1H49V29zM2 55v18h44V55H2zm-2-2h48v22H1c-.55228475 0-1-.4477153-1-1V53zM1 48h46c.5522847 0 1 .4477153 1 1v3H0v-3c0-.5522847.44771525-1 1-1z" fill-rule="nonzero"/><path d="M52 15h2v7h-2zM56 15h2v7h-2zM60 15h2v7h-2zM64 15h2v7h-2zM52 12h14v2H52zM58 5h2v4h-2z"/></g></g></svg>
