<svg width="173" height="125" fill="none"
  xmlns="http://www.w3.org/2000/svg">
  <path d="M151.012 104.001l-17.916-5.784-.179-.058-.173.075-27.009 11.654 5.884-18.122.155-.475-.476-.155-70.987-23.058 17.764-55.254 110.701 35.922L151.012 104z" fill="#fff" stroke="#5E25A3"/>
  <path d="M73.275 49.806l6.225 2.069 6.225-2.07a4 4 0 0 1 4.174 1.054L109 71.143C103.355 84.429 94.796 111 79.5 111S55.645 84.429 50 71.143l19.101-20.284a4 4 0 0 1 4.174-1.053z" fill="#FF7433"/>
  <path d="M79.5 102c12.704 0 19.812-18 24.5-29H55c4.688 11 11.796 29 24.5 29z" fill="#140B41"/>
  <path d="M55 73c1.313-7.317 11.813-13 24.5-13 12.688 0 23.188 5.683 24.5 13H55z" fill="#FFFCFE"/>
  <path d="M62.086 64.481v9.52M70.873 61.552V74M89.179 61.552V74M97.233 64.481v9.52M79.66 60.82V74" stroke="#140B41" stroke-miterlimit="10" stroke-linecap="round"/>
  <path d="M0 7.57L70.681 0 75 36.669l-22.825 2.58L53.746 53 36.471 40.843 4.122 44.238 0 7.57z" fill="#E2D4F7"/>
  <path d="M146.333 65.95l-32.342 5.42M129.378 86.759l-13.724-9.255M134.837 90.658l-3.639-2.6" stroke="#140B41" stroke-miterlimit="10" stroke-linecap="round"/>
  <path d="M131.668 52.382c-3.184 2.871-10.121 7.261-12.393 1.85-2.839-6.765 14.812-5.593-6.68 9.973" stroke="#000" stroke-linecap="round"/>
  <path d="M16.835 106.775L43.99 91.402M25.223 82.649l15.284 3.808M19.072 80.938l4.1 1.14" stroke="#140B41" stroke-miterlimit="10" stroke-linecap="round"/>
  <path d="M34.364 114.135c1.913-3.605 6.687-9.788 10.48-5.688 4.74 5.125-11.425 9.822 2.727-11.092" stroke="#000" stroke-linecap="round"/>
</svg>
