<svg width="24" height="75" xmlns="http://www.w3.org/2000/svg"><g fill="none" fill-rule="evenodd"><path d="M-36-21h96v96h-96z"/><path d="M0 74v-4.5L3 68V47l2-1.5V29.618034c0-.3787721.21400238-.7250352.5527864-.8944272L7 28V17l2-1V6h4v3h2v8c.4647261-.0153896.7980594-.0153896 1 0 .6061599.0461944 2 1 2 1.5V30h1c1.3333333.6382246 2 1.1382246 2 1.5v20h1c1.3333333 1.1261186 2 1.9594519 2 2.5v20c0 .5522847-.4477153 1-1 1H1c-.55228475 0-1-.4477153-1-1z" fill="#D0EDE7"/><path fill="#394149" d="M11 5l2 1v3H9V6z"/><circle fill="#394149" cx="11" cy="2" r="2"/><path d="M22 61.2299348c-.6823169.4759113-1.412377.946452-2.1901686 1.412037-2.1851082 1.3080027-8.0644067 3.8728221-17.80987024 7.7854236v2.5726277H22V61.2299348zm-22.00003899 8.521096c.00000263-.4087274.24873473-.7763156.6281498-.9283098 10.00170069-4.0066961 16.05319999-6.6389611 18.15449789-7.8967951C20.9275362 59.6419753 22.6666667 58.3333333 24 57v17.000017c0 .5522847-.4477153 1-1 1l-22.00003808.0000064c-.55228475 0-1-.4477153-1-1l-9e-7-4.2489926z" fill="#394149" fill-rule="nonzero"/><path d="M7.99996456 24.5738606c1.01183549-.4038745 2.01497394-.8855582 3.00957274-1.4453228C12.2461276 22.4325794 13.2432406 21.7431963 14 21.0659511v-9.4106173c-1.2912913 1.137758-3.2506146 2.6217846-5.99995854 4.6073939.00000354-.0000123.00000544-.0000187.00000544-.0000241l-.00008234 8.311157z" stroke="#394149" stroke-width="2"/><path d="M22 51.5v6c1.3333333-1.4333113 2-2.599978 2-3.5 0-.900022-.6666667-1.7333554-2-2.5zM19 30v5c1.3333333-1.4722039 2-2.583315 2-3.3333333 0-.7500184-.6666667-1.3055739-2-1.6666667zm-3-13v4c1.3333333-1.1777631 2-2.066652 2-2.6666667 0-.6000146-.6666667-1.0444591-2-1.3333333zM6 72c-.55228475 0-1-.4477153-1-1s.44771525-1 1-1 1 .4477153 1 1-.44771525 1-1 1zm6 0c-.5522847 0-1-.4477153-1-1s.4477153-1 1-1 1 .4477153 1 1-.4477153 1-1 1zm6 0c-.5522847 0-1-.4477153-1-1s.4477153-1 1-1 1 .4477153 1 1-.4477153 1-1 1zM7 48l2-1v13.5l-2 1V48zm2-17.5l2-1v7l-2 1v-7zm3-1.5l2-1v7l-2 1v-7zm-1 17l2-1v13.5l-2 1V46zm4-2l2-1v13.5l-2 1V44z" fill="#44CDC8"/><path d="M5.99997322 41.5866457c1.47749438-.575499 3.14666266-1.393625 5.00387448-2.4548888C13.2703854 37.8365924 15.2692971 36.6143906 17 35.4658195V23.4552872c-2.0010918 1.4786541-5.5698219 3.4332521-11.00001267 6.1620626-.00000865.0000043-.00001411.0000132-.00001411.0000209v11.969275z" stroke="#394149" stroke-width="2"/><path d="M5.00003321 47.2965331l-.00003042 16.2338216c2.31579148-.9530039 4.54504446-1.9056774 6.68772031-2.8579778 2.5648491-1.1399329 5.0021184-2.4040521 7.312277-3.7922746 7e-7-7.0409281.0000084-12.6575762.000023-16.8499451-2.9355484 2.0263192-7.5420175 4.3624276-13.99998989 7.2663759zM21.0000488 35C21.0000275 37.8398708 21.0000112 45.5065375 21 58c-3.7855692 2.1639567-6.6189026 3.6639567-8.5 4.5-1.7229072.7657365-4.88957382 2.0990698-9.5 4v-1.4808558l.00003443-18.3701359c0-.3943256.23173801-.7518313.59170106-.912826C15.1972457 40.5455785 21.0000168 36.9668511 21.0000488 35z" fill="#394149" fill-rule="nonzero"/></g></svg>
