<svg width="76" height="66" xmlns="http://www.w3.org/2000/svg"><g fill="none" fill-rule="evenodd"><path d="M20 3v8H3l7 5.5V23H7v16H3c-.55228475 0-1 .4477153-1 1v3h70v-4h-3V23c0-1.1045695-.8954305-2-2-2h-1v-4l6-6H56V3c0-1.1045695-.8954305-2-2-2H22c-1.1045695 0-2 .8954305-2 2z" fill="#FBDEA4"/><path d="M10.8276582 16h54.8231175l4.8133334-4H5.76099158l5.06666662 4zm-.9668067 1.7848828l-7.6-6c-.43347878-.3422201-.50745856-.9710483-.16523847-1.4045271C2.28525311 10.1401449 2.5744491 10 2.88049579 10H73.2320545c.5522848 0 1 .4477153 1 1 0 .297257-.1322454.579106-.3608639.7690937l-7.22 6C66.4716319 17.9183115 66.2455224 18 66.0120545 18H10.4804958c-.2248592 0-.4431562-.0757845-.6196443-.2151172zM4 41v2h68v-2H4zm-1-2h70c.5522847 0 1 .4477153 1 1v4c0 .5522847-.4477153 1-1 1H3c-.55228475 0-1-.4477153-1-1v-4c0-.5522847.44771525-1 1-1zM22 9h-2V2c0-1.1045695.8954305-2 2-2h32c1.1045695 0 2 .8954305 2 2v7h-2V2H22v7z" fill="#394149" fill-rule="nonzero"/><path d="M8 38V23c0-.5522847.44771525-1 1-1h58c.5522847 0 1 .4477153 1 1v15" stroke="#394149" stroke-width="2"/><path fill="#FBDEA4" fill-rule="nonzero" d="M17 20.5l.5 11.5h40L59 21.5l-.5-1.5z"/><path d="M18 23c0 1.4434674.2501841 4.1288717.7516214 8.000001l37.6953967.0000422c.9886412-3.9425057 1.5069725-6.6650742 1.5541732-8.069062.0244351-.7076502-.0628104-1.3472073-.2592605-1.9309809l-39.4474623.0000181C18.0989847 21.6065015 18 22.2705017 18 23zm-1.2989917-3.4145706c.1624433-.3565685.5181689-.5854107.9099965-.5854107L58.4099309 19c.3818584 0 .730382.2174665.8982228.5604611C59.8129429 20.5920229 60.0435583 21.7385359 60 23c-.0564562 1.6793207-.6584251 4.7619305-1.8059069 9.2478292-.1132175.4426063-.5119919.7522149-.9688492.7522149L17.8743726 33c-.501308 0-.9251502-.3711759-.9912788-.8681032C16.2943704 27.7077668 16 24.6638019 16 23c0-1.2505558.2336694-2.3887461.7010083-3.4145706z" fill="#394149" fill-rule="nonzero"/><path d="M19 32h2v8h-2zm4 0h2v8h-2zm4 0h2v8h-2zm4 0h2v8h-2zm4 0h2v8h-2zm4 0h2v8h-2zm4 0h2v8h-2zm4 0h2v8h-2zm4 0h2v8h-2zm4 0h2v8h-2z" fill="#394149"/><path d="M23 22h2v2h-2v-2zm4 0h2v2h-2v-2zm4 0h2v2h-2v-2zm4 0h2v2h-2v-2zm4 0h2v2h-2v-2zm4 0h2v2h-2v-2zm4 0h2v2h-2v-2zm4 0h2v2h-2v-2zm-28 3h2v2h-2v-2zm4 0h2v2h-2v-2zm4 0h2v2h-2v-2zm4 0h2v2h-2v-2zm-12 3h2v2h-2v-2zm4 0h2v2h-2v-2zm4 0h2v2h-2v-2zm4 0h2v2h-2v-2zm4-3h2v2h-2v-2zm4 0h2v2h-2v-2zm4 0h2v2h-2v-2zm4 0h2v2h-2v-2zm-12 3h2v2h-2v-2zm4 0h2v2h-2v-2zm4 0h2v2h-2v-2zm4 0h2v2h-2v-2z" fill="#FFAF00"/><rect fill="#394149" x="22" y="52" width="20" height="2" rx="1"/><rect fill="#394149" x="30" y="58" width="16" height="2" rx="1"/><rect fill="#394149" x="47" y="52" width="6" height="2" rx="1"/><rect fill="#394149" x="35" y="64" width="6" height="2" rx="1"/><rect fill="#394149" y="46" width="76" height="2" rx="1"/></g></svg>
