<svg width="76" height="72" xmlns="http://www.w3.org/2000/svg"><g fill="none" fill-rule="evenodd"><path d="M21.5 23.5v10.7291667H29V26.125h18v8.1041667h25V65.875h3V72H1v-7.1458333h3V22l2-6v-6c0-.55228475.44771525-1 1-1h1V7c0-.55228475.44771525-1 1-1h8c.5522847 0 1 .44771525 1 1v2h1c.5522847 0 1 .44771525 1 1v6l2 6v1.5h-.5zM54 34v-.026334c0-.6448926.1039673-1.2855678.3079002-1.8973666L56 27v-6c0-.5522847.4477153-1 1-1h1v-2c0-.5522847.4477153-1 1-1h8c.5522847 0 1 .4477153 1 1v2h1c.5522847 0 1 .4477153 1 1v6l1.6920998 5.0762994C71.8960327 32.6880982 72 33.3287734 72 33.973666V34H54z" fill="#D1EEFC"/><path d="M44 48h4v8h-4v-8zm-16 0h4v8h-4v-8zm10-4c1.1045695 0 2 .8954305 2 2v22h-4V46c0-1.1045695.8954305-2 2-2zm8 0c1.1045695 0 2 .8954305 2 2v1h-4v-1c0-1.1045695.8954305-2 2-2zm-16 0c1.1045695 0 2 .8954305 2 2v1h-4v-1c0-1.1045695.8954305-2 2-2zM13 57c1.1045695 0 2 .8954305 2 2v3h-4v-3c0-1.1045695.8954305-2 2-2zm0-9c1.1045695 0 2 .8954305 2 2v3h-4v-3c0-1.1045695.8954305-2 2-2zm0-9c1.1045695 0 2 .8954305 2 2v3h-4v-3c0-1.1045695.8954305-2 2-2zm50 18c1.1045695 0 2 .8954305 2 2v3h-4v-3c0-1.1045695.8954305-2 2-2zm0-9c1.1045695 0 2 .8954305 2 2v3h-4v-3c0-1.1045695.8954305-2 2-2zm0-9c1.1045695 0 2 .8954305 2 2v3h-4v-3c0-1.1045695.8954305-2 2-2zm-50-9c1.1045695 0 2 .8954305 2 2v3h-4v-3c0-1.1045695.8954305-2 2-2z" fill="#738CE6"/><path d="M25 34.7727273h-2l2-2v2zm0 0h5V30h16v4.7727273h5V63h2V32.7727273h-5v-3.9772728C48 28.3561371 47.5522847 28 47 28H29c-.5522847 0-1 .3561371-1 .7954545v3.9772728h-5V63h2V34.7727273zm5-5.9772728C30 29.5741839 29.4646883 30 29 30h1v-1.2045455zm16 0C46 29.5741839 46.5353117 30 47 30h-1v-1.2045455zm7 5.9772728l-2-2v2h2zm-2-2l2 2h-2v-2zM51 63h2V32.7727273h-5v-3.9772728C48 28.3561371 47.5522847 28 47 28H29c-.5522847 0-1 .3561371-1 .7954545v3.9772728h-5V63h2V34.7727273h5V30h16v4.7727273h5V63zM29 30c.4646883 0 1-.4258161 1-1.2045455V30h-1z" fill="#394149" fill-rule="nonzero"/><path stroke="#394149" stroke-width="2" d="M5 63V24h16v39"/><path d="M74 66v4H44v-6h2v2h28zm1-2H48v-2h-6v10h33c.5522847 0 1-.4477153 1-1v-6c0-.5522847-.4477153-1-1-1zM2 66v4h30v-6h-2v2H2zm-1-2h27v-2h6v10H1c-.55228475 0-1-.4477153-1-1v-6c0-.5522847.44771525-1 1-1z" fill="#394149" fill-rule="nonzero"/><path d="M59 17h8c.5522847 0 1 .4477153 1 1v1H58v-1c0-.5522847.4477153-1 1-1z" fill="#394149"/><path stroke="#394149" stroke-width="2" d="M55 63V35h16v28"/><path d="M7.44151844 18l-.66666667 2H19.2251482l-.6666666-2H7.44151844zm-.72075922-2H19.2792408c.4304304 0 .8125692.2754301.9486833.6837722l1.3333333 4c.1746478.5239434-.1085122 1.0902633-.6324555 1.2649111A1.00000098 1.00000098 0 0 1 20.6125741 22H5.38742589c-.55228475 0-1-.4477153-1-1 0-.1074821.01732788-.2142613.0513167-.3162278l1.33333333-4C5.90818997 16.2754301 6.29032881 16 6.72075922 16zM56.7748518 31h12.4502964l-.6666666-2H57.4415184l-.6666666 2zm-.0540926-4h12.5584816c.4304304 0 .8125692.2754301.9486833.6837722l1.3333333 4c.1746478.5239434-.1085122 1.0902633-.6324555 1.2649111A1.00000098 1.00000098 0 0 1 70.6125741 33H55.3874259c-.5522848 0-1-.4477153-1-1 0-.1074821.0173279-.2142613.0513167-.3162278l1.3333333-4C55.90819 27.2754301 56.2903288 27 56.7207592 27zM18 13v-2H8v2h10zm1 2H7c-.5522847 0-1-.44771525-1-1v-4c0-.5522847.4477153-1 1-1h12c.55228475 0 1 .4477153 1 1v4c0 .55228475-.44771525 1-1 1zm49 9v-2H58v2h10zm1 2H57c-.5522847 0-1-.4477153-1-1v-4c0-.5522847.4477153-1 1-1h12c.5522847 0 1 .4477153 1 1v4c0 .5522847-.4477153 1-1 1z" fill="#394149" fill-rule="nonzero"/><path d="M30 25h16c.5522847 0 1 .4477153 1 1v1H29v-1c0-.5522847.4477153-1 1-1zm32-10.3333333V11h2v3.6666667L66 17h-6l2-2.3333333zM39 19.625L42 23h1c.5522847 0 1 .4477153 1 1v1H32v-1c0-.5522847.4477153-1 1-1h1l3-3.375V16h2v3.625zM9 6h8c.5522847 0 1 .44771525 1 1v1H8V7c0-.55228475.44771525-1 1-1zm3-2.33333333V0h2v3.66666667L16 6h-6l2-2.33333333zM35 70h6v2h-6z" fill="#394149"/></g></svg>
