<?xml version="1.0" encoding="UTF-8" standalone="no"?><svg xmlns="http://www.w3.org/2000/svg" xmlns:xlink="http://www.w3.org/1999/xlink" contentScriptType="application/ecmascript" contentStyleType="text/css" height="362px" preserveAspectRatio="none" style="width:558px;height:362px;" version="1.1" viewBox="0 0 558 362" width="558px" zoomAndPan="magnify"><defs><filter height="300%" id="fb039f8h7iruh" width="300%" x="-1" y="-1"><feGaussianBlur result="blurOut" stdDeviation="2.0"/><feColorMatrix in="blurOut" result="blurOut2" type="matrix" values="0 0 0 0 0 0 0 0 0 0 0 0 0 0 0 0 0 0 .4 0"/><feOffset dx="4.0" dy="4.0" in="blurOut2" result="blurOut3"/><feBlend in="SourceGraphic" in2="blurOut3" mode="normal"/></filter></defs><g><!--MD5=[5381797e68a94d77adf15c3203f51bbe]
cluster Babbel--><rect fill="#FFFFFF" filter="url(#fb039f8h7iruh)" height="338" style="stroke: #000000; stroke-width: 1.5;" width="534" x="7" y="7"/><text fill="#000000" font-family="sans-serif" font-size="14" font-weight="bold" lengthAdjust="spacingAndGlyphs" textLength="47" x="250.5" y="21.9951">Babbel</text><!--MD5=[d841c4c2f84d4e18d352f800547f43fc]
cluster platform--><polygon fill="#FFFFFF" filter="url(#fb039f8h7iruh)" points="77,34,203,34,210,56.2969,533,56.2969,533,227,77,227,77,34" style="stroke: #000000; stroke-width: 1.5;"/><line style="stroke: #000000; stroke-width: 1.5;" x1="77" x2="210" y1="56.2969" y2="56.2969"/><text fill="#000000" font-family="sans-serif" font-size="14" font-weight="bold" lengthAdjust="spacingAndGlyphs" textLength="120" x="81" y="48.9951">lesson-player.spa</text><!--MD5=[1e9204083aa66e691856924869ece9f5]
entity Input--><ellipse cx="42" cy="84" fill="#FEFECE" filter="url(#fb039f8h7iruh)" rx="8" ry="8" style="stroke: #A80036; stroke-width: 2.0;"/><text fill="#000000" font-family="sans-serif" font-size="14" lengthAdjust="spacingAndGlyphs" textLength="34" x="25" y="113.9951">Input</text><!--MD5=[3cd0b4c0f20a4f42a056082dd1dfbee9]
entity Output--><ellipse cx="452" cy="308" fill="#FEFECE" filter="url(#fb039f8h7iruh)" rx="8" ry="8" style="stroke: #A80036; stroke-width: 2.0;"/><text fill="#000000" font-family="sans-serif" font-size="14" lengthAdjust="spacingAndGlyphs" textLength="45" x="429.5" y="337.9951">Output</text><!--MD5=[3ab6bc66408bc465e62c4c0dcccb802d]
entity Services--><rect fill="#FEFECE" filter="url(#fb039f8h7iruh)" height="46.2969" style="stroke: #A80036; stroke-width: 1.5;" width="93" x="250.5" y="173"/><rect fill="#FEFECE" height="10" style="stroke: #A80036; stroke-width: 1.5;" width="15" x="323.5" y="178"/><rect fill="#FEFECE" height="2" style="stroke: #A80036; stroke-width: 1.5;" width="4" x="321.5" y="180"/><rect fill="#FEFECE" height="2" style="stroke: #A80036; stroke-width: 1.5;" width="4" x="321.5" y="184"/><text fill="#000000" font-family="sans-serif" font-size="14" lengthAdjust="spacingAndGlyphs" textLength="53" x="265.5" y="205.9951">Services</text><!--MD5=[a4f48cdc01c6e517683669a4d7ddb3ef]
entity Denormalisation--><rect fill="#FEFECE" filter="url(#fb039f8h7iruh)" height="46.2969" style="stroke: #A80036; stroke-width: 1.5;" width="146" x="379" y="173"/><rect fill="#FEFECE" height="10" style="stroke: #A80036; stroke-width: 1.5;" width="15" x="505" y="178"/><rect fill="#FEFECE" height="2" style="stroke: #A80036; stroke-width: 1.5;" width="4" x="503" y="180"/><rect fill="#FEFECE" height="2" style="stroke: #A80036; stroke-width: 1.5;" width="4" x="503" y="184"/><text fill="#000000" font-family="sans-serif" font-size="14" lengthAdjust="spacingAndGlyphs" textLength="106" x="394" y="205.9951">Denormalisation</text><!--MD5=[2a0870688f6a578869677d4a01daeb82]
entity Normalisation--><rect fill="#FEFECE" filter="url(#fb039f8h7iruh)" height="46.2969" style="stroke: #A80036; stroke-width: 1.5;" width="130" x="85" y="173"/><rect fill="#FEFECE" height="10" style="stroke: #A80036; stroke-width: 1.5;" width="15" x="195" y="178"/><rect fill="#FEFECE" height="2" style="stroke: #A80036; stroke-width: 1.5;" width="4" x="193" y="180"/><rect fill="#FEFECE" height="2" style="stroke: #A80036; stroke-width: 1.5;" width="4" x="193" y="184"/><text fill="#000000" font-family="sans-serif" font-size="14" lengthAdjust="spacingAndGlyphs" textLength="90" x="100" y="205.9951">Normalisation</text><!--MD5=[726680f31c158bc04241cc7cd1744931]
entity Application Code--><rect fill="#FEFECE" filter="url(#fb039f8h7iruh)" height="46.2969" style="stroke: #A80036; stroke-width: 1.5;" width="148" x="223" y="61"/><rect fill="#FEFECE" height="10" style="stroke: #A80036; stroke-width: 1.5;" width="15" x="351" y="66"/><rect fill="#FEFECE" height="2" style="stroke: #A80036; stroke-width: 1.5;" width="4" x="349" y="68"/><rect fill="#FEFECE" height="2" style="stroke: #A80036; stroke-width: 1.5;" width="4" x="349" y="72"/><text fill="#000000" font-family="sans-serif" font-size="14" lengthAdjust="spacingAndGlyphs" textLength="108" x="238" y="93.9951">Application Code</text><!--MD5=[3eec66fc52196b510f8e9768bb938ce1]
link Services to Denormalisation--><path d="M343.6211,196 C353.5953,196 363.5695,196 373.5437,196 " fill="none" id="Services-&gt;Denormalisation" style="stroke: #A80036; stroke-width: 1.0;"/><polygon fill="#A80036" points="378.7596,196,369.7596,192,373.7596,196,369.7596,200,378.7596,196" style="stroke: #A80036; stroke-width: 1.0;"/><!--MD5=[c27c0bb21b52e99eb4330ca5316f168f]
link Normalisation to Services--><path d="M215.1738,196 C225.1541,196 235.1343,196 245.1145,196 " fill="none" id="Normalisation-&gt;Services" style="stroke: #A80036; stroke-width: 1.0;"/><polygon fill="#A80036" points="250.3335,196,241.3335,192,245.3335,196,241.3335,200,250.3335,196" style="stroke: #A80036; stroke-width: 1.0;"/><!--MD5=[90360d2770dfbe34a26b9dd4dceb593a]
link Application Code to Services--><path d="M297,112.3284 C297,129.287 297,150.768 297,167.7183 " fill="none" id="Application Code-Services" style="stroke: #A80036; stroke-width: 1.0;"/><polygon fill="#A80036" points="297,172.8233,301,163.8233,297,167.8233,293,163.8233,297,172.8233" style="stroke: #A80036; stroke-width: 1.0;"/><polygon fill="#A80036" points="297,107.2065,293,116.2065,297,112.2065,301,116.2065,297,107.2065" style="stroke: #A80036; stroke-width: 1.0;"/><!--MD5=[61835c1e9a7f4e6716b7b3845d6112ff]
link Input to Normalisation--><path d="M50.8381,93.1654 C66.6186,109.5304 100.2064,144.3622 123.9058,168.9394 " fill="none" id="Input-&gt;Normalisation" style="stroke: #A80036; stroke-width: 1.0;"/><polygon fill="#A80036" points="127.6203,172.7914,124.2525,163.5362,124.1496,169.1922,118.4937,169.0893,127.6203,172.7914" style="stroke: #A80036; stroke-width: 1.0;"/><!--MD5=[a36ece4a0fb6c4063ece164427acda95]
link Denormalisation to Output--><path d="M452,219.2065 C452,241.504 452,274.5112 452,293.3687 " fill="none" id="Denormalisation-&gt;Output" style="stroke: #A80036; stroke-width: 1.0;"/><polygon fill="#A80036" points="452,298.7393,456,289.7393,452,293.7393,448,289.7393,452,298.7393" style="stroke: #A80036; stroke-width: 1.0;"/><!--MD5=[0ff0b293ac615ea36624bd339ee2a45b]
@startuml data-normalisation
rectangle Babbel {
  package "lesson-player.spa" as platform {
    [Services] -> [Denormalisation]
    [Normalisation] -> [Services]
    [Application Code] <-down-> [Services]
  }

  Input -down-> [Normalisation]
  [Denormalisation] -down-> Output
}
@enduml

PlantUML version 1.2020.14(Sat Jun 20 14:14:34 GMT 2020)
(GPL source distribution)
Java Runtime: Java(TM) SE Runtime Environment
JVM: Java HotSpot(TM) 64-Bit Server VM
Default Encoding: ANSI_X3.4-1968
Language: en
Country: US
--></g></svg>