<?xml version="1.0" encoding="UTF-8" standalone="no"?><svg xmlns="http://www.w3.org/2000/svg" xmlns:xlink="http://www.w3.org/1999/xlink" contentScriptType="application/ecmascript" contentStyleType="text/css" height="819px" preserveAspectRatio="none" style="width:514px;height:819px;" version="1.1" viewBox="0 0 514 819" width="514px" zoomAndPan="magnify"><defs><filter height="300%" id="f7i6kuewwntt9" width="300%" x="-1" y="-1"><feGaussianBlur result="blurOut" stdDeviation="2.0"/><feColorMatrix in="blurOut" result="blurOut2" type="matrix" values="0 0 0 0 0 0 0 0 0 0 0 0 0 0 0 0 0 0 .4 0"/><feOffset dx="4.0" dy="4.0" in="blurOut2" result="blurOut3"/><feBlend in="SourceGraphic" in2="blurOut3" mode="normal"/></filter></defs><g><rect fill="#FFFFFF" filter="url(#f7i6kuewwntt9)" height="378.6426" style="stroke: #A80036; stroke-width: 1.0;" width="10" x="210" y="266.1426"/><rect fill="#FFFFFF" filter="url(#f7i6kuewwntt9)" height="565.5005" style="stroke: #A80036; stroke-width: 1.0;" width="10" x="318" y="148.5747"/><rect fill="#FFFFFF" filter="url(#f7i6kuewwntt9)" height="489.2104" style="stroke: #000000; stroke-width: 2.0;" width="482.5" x="13" y="194.7197"/><rect fill="#FFFFFF" filter="url(#f7i6kuewwntt9)" height="273.2197" style="stroke: #000000; stroke-width: 2.0;" width="462.5" x="23" y="310.2754"/><rect fill="#FFFFFF" filter="url(#f7i6kuewwntt9)" height="212.9541" style="stroke: #000000; stroke-width: 2.0;" width="442.5" x="33" y="363.541"/><rect fill="#FFFFFF" height="31.1328" style="stroke: none; stroke-width: 1.0;" width="442.5" x="33" y="501.2295"/><rect fill="#FFFFFF" height="44.1328" style="stroke: none; stroke-width: 1.0;" width="442.5" x="33" y="532.3623"/><line style="stroke: #A80036; stroke-width: 1.0; stroke-dasharray: 5.0,5.0;" x1="70" x2="70" y1="86.2969" y2="732.0752"/><line style="stroke: #A80036; stroke-width: 1.0; stroke-dasharray: 5.0,5.0;" x1="215" x2="215" y1="86.2969" y2="732.0752"/><line style="stroke: #A80036; stroke-width: 1.0; stroke-dasharray: 5.0,5.0;" x1="323" x2="323" y1="86.2969" y2="732.0752"/><line style="stroke: #A80036; stroke-width: 1.0; stroke-dasharray: 5.0,5.0;" x1="443.5" x2="443.5" y1="86.2969" y2="732.0752"/><text fill="#000000" font-family="sans-serif" font-size="14" lengthAdjust="spacingAndGlyphs" textLength="48" x="43" y="82.9951">Learner</text><ellipse cx="70" cy="13" fill="#FEFECE" filter="url(#f7i6kuewwntt9)" rx="8" ry="8" style="stroke: #A80036; stroke-width: 2.0;"/><path d="M70,21 L70,48 M57,29 L83,29 M70,48 L57,63 M70,48 L83,63 " fill="none" filter="url(#f7i6kuewwntt9)" style="stroke: #A80036; stroke-width: 2.0;"/><text fill="#000000" font-family="sans-serif" font-size="14" lengthAdjust="spacingAndGlyphs" textLength="48" x="43" y="744.0703">Learner</text><ellipse cx="70" cy="757.3721" fill="#FEFECE" filter="url(#f7i6kuewwntt9)" rx="8" ry="8" style="stroke: #A80036; stroke-width: 2.0;"/><path d="M70,765.3721 L70,792.3721 M57,773.3721 L83,773.3721 M70,792.3721 L57,807.3721 M70,792.3721 L83,807.3721 " fill="none" filter="url(#f7i6kuewwntt9)" style="stroke: #A80036; stroke-width: 2.0;"/><rect fill="#FEFECE" filter="url(#f7i6kuewwntt9)" height="30.2969" style="stroke: #A80036; stroke-width: 1.5;" width="84" x="171" y="51"/><text fill="#000000" font-family="sans-serif" font-size="14" lengthAdjust="spacingAndGlyphs" textLength="70" x="178" y="70.9951">Interaction</text><rect fill="#FEFECE" filter="url(#f7i6kuewwntt9)" height="30.2969" style="stroke: #A80036; stroke-width: 1.5;" width="84" x="171" y="731.0752"/><text fill="#000000" font-family="sans-serif" font-size="14" lengthAdjust="spacingAndGlyphs" textLength="70" x="178" y="751.0703">Interaction</text><rect fill="#FEFECE" filter="url(#f7i6kuewwntt9)" height="30.2969" style="stroke: #A80036; stroke-width: 1.5;" width="58" x="292" y="51"/><text fill="#000000" font-family="sans-serif" font-size="14" lengthAdjust="spacingAndGlyphs" textLength="44" x="299" y="70.9951">Trainer</text><rect fill="#FEFECE" filter="url(#f7i6kuewwntt9)" height="30.2969" style="stroke: #A80036; stroke-width: 1.5;" width="58" x="292" y="731.0752"/><text fill="#000000" font-family="sans-serif" font-size="14" lengthAdjust="spacingAndGlyphs" textLength="44" x="299" y="751.0703">Trainer</text><rect fill="#FEFECE" filter="url(#f7i6kuewwntt9)" height="30.2969" style="stroke: #A80036; stroke-width: 1.5;" width="39" x="422.5" y="51"/><text fill="#000000" font-family="sans-serif" font-size="14" lengthAdjust="spacingAndGlyphs" textLength="25" x="429.5" y="70.9951">App</text><rect fill="#FEFECE" filter="url(#f7i6kuewwntt9)" height="30.2969" style="stroke: #A80036; stroke-width: 1.5;" width="39" x="422.5" y="731.0752"/><text fill="#000000" font-family="sans-serif" font-size="14" lengthAdjust="spacingAndGlyphs" textLength="25" x="429.5" y="751.0703">App</text><rect fill="#FFFFFF" filter="url(#f7i6kuewwntt9)" height="378.6426" style="stroke: #A80036; stroke-width: 1.0;" width="10" x="210" y="266.1426"/><rect fill="#FFFFFF" filter="url(#f7i6kuewwntt9)" height="565.5005" style="stroke: #A80036; stroke-width: 1.0;" width="10" x="318" y="148.5747"/><polygon fill="#A80036" points="432,113.4297,442,117.4297,432,121.4297,436,117.4297" style="stroke: #A80036; stroke-width: 1.0;"/><line style="stroke: #A80036; stroke-width: 1.0;" x1="70" x2="438" y1="117.4297" y2="117.4297"/><text fill="#000000" font-family="sans-serif" font-size="13" lengthAdjust="spacingAndGlyphs" textLength="95" x="77" y="112.3638">"I start a lesson"</text><polygon fill="#A80036" points="339,144.5747,329,148.5747,339,152.5747,335,148.5747" style="stroke: #A80036; stroke-width: 1.0;"/><line style="stroke: #A80036; stroke-width: 1.0;" x1="333" x2="443" y1="148.5747" y2="148.5747"/><text fill="#000000" font-family="monospace" font-size="13" lengthAdjust="spacingAndGlyphs" textLength="49" x="345" y="143.0518">Initialise</text><polygon fill="#A80036" points="432,175.7197,442,179.7197,432,183.7197,436,179.7197" style="stroke: #A80036; stroke-width: 1.0;"/><line style="stroke: #A80036; stroke-width: 1.0; stroke-dasharray: 2.0,2.0;" x1="328" x2="438" y1="179.7197" y2="179.7197"/><text fill="#000000" font-family="monospace" font-size="13" lengthAdjust="spacingAndGlyphs" textLength="53" x="335" y="174.1968">onStart()</text><path d="M13,194.7197 L86,194.7197 L86,201.7197 L76,211.7197 L13,211.7197 L13,194.7197 " fill="#EEEEEE" style="stroke: #000000; stroke-width: 1.0;"/><rect fill="none" height="489.2104" style="stroke: #000000; stroke-width: 2.0;" width="482.5" x="13" y="194.7197"/><text fill="#000000" font-family="sans-serif" font-size="13" font-weight="bold" lengthAdjust="spacingAndGlyphs" textLength="28" x="28" y="207.7866">loop</text><text fill="#000000" font-family="sans-serif" font-size="11" font-weight="bold" lengthAdjust="spacingAndGlyphs" textLength="170" x="101" y="206.9302">[While interactive items remain]</text><polygon fill="#A80036" points="226,230.9976,216,234.9976,226,238.9976,222,234.9976" style="stroke: #A80036; stroke-width: 1.0;"/><line style="stroke: #A80036; stroke-width: 1.0;" x1="220" x2="317" y1="234.9976" y2="234.9976"/><text fill="#000000" font-family="monospace" font-size="13" lengthAdjust="spacingAndGlyphs" textLength="49" x="232" y="229.4746">Initialise</text><polygon fill="#A80036" points="231,262.1426,221,266.1426,231,270.1426,227,266.1426" style="stroke: #A80036; stroke-width: 1.0;"/><line style="stroke: #A80036; stroke-width: 1.0;" x1="225" x2="317" y1="266.1426" y2="266.1426"/><text fill="#000000" font-family="monospace" font-size="13" lengthAdjust="spacingAndGlyphs" textLength="57" x="237" y="260.6196">Set active</text><polygon fill="#A80036" points="81,291.2754,71,295.2754,81,299.2754,77,295.2754" style="stroke: #A80036; stroke-width: 1.0;"/><line style="stroke: #A80036; stroke-width: 1.0;" x1="75" x2="209" y1="295.2754" y2="295.2754"/><text fill="#000000" font-family="sans-serif" font-size="13" lengthAdjust="spacingAndGlyphs" textLength="110" x="87" y="290.2095">Present interaction</text><path d="M23,310.2754 L96,310.2754 L96,317.2754 L86,327.2754 L23,327.2754 L23,310.2754 " fill="#EEEEEE" style="stroke: #000000; stroke-width: 1.0;"/><rect fill="none" height="273.2197" style="stroke: #000000; stroke-width: 2.0;" width="462.5" x="23" y="310.2754"/><text fill="#000000" font-family="sans-serif" font-size="13" font-weight="bold" lengthAdjust="spacingAndGlyphs" textLength="28" x="38" y="323.3423">loop</text><text fill="#000000" font-family="sans-serif" font-size="11" font-weight="bold" lengthAdjust="spacingAndGlyphs" textLength="190" x="111" y="322.4858">[While Interactive elements remain]</text><polygon fill="#A80036" points="81,344.541,71,348.541,81,352.541,77,348.541" style="stroke: #A80036; stroke-width: 1.0;"/><line style="stroke: #A80036; stroke-width: 1.0;" x1="75" x2="209" y1="348.541" y2="348.541"/><text fill="#000000" font-family="sans-serif" font-size="13" lengthAdjust="spacingAndGlyphs" textLength="94" x="87" y="343.4751">Present element</text><path d="M33,363.541 L106,363.541 L106,370.541 L96,380.541 L33,380.541 L33,363.541 " fill="#EEEEEE" style="stroke: #000000; stroke-width: 1.0;"/><rect fill="none" height="212.9541" style="stroke: #000000; stroke-width: 2.0;" width="442.5" x="33" y="363.541"/><text fill="#000000" font-family="sans-serif" font-size="13" font-weight="bold" lengthAdjust="spacingAndGlyphs" textLength="28" x="48" y="376.6079">loop</text><text fill="#000000" font-family="sans-serif" font-size="11" font-weight="bold" lengthAdjust="spacingAndGlyphs" textLength="87" x="121" y="375.7515">[While try again]</text><polygon fill="#A80036" points="198,397.8066,208,401.8066,198,405.8066,202,401.8066" style="stroke: #A80036; stroke-width: 1.0;"/><line style="stroke: #A80036; stroke-width: 1.0;" x1="70" x2="204" y1="401.8066" y2="401.8066"/><text fill="#000000" font-family="sans-serif" font-size="13" lengthAdjust="spacingAndGlyphs" textLength="115" x="77" y="396.7407">"I make an attempt"</text><polygon fill="#A80036" points="306,428.9517,316,432.9517,306,436.9517,310,432.9517" style="stroke: #A80036; stroke-width: 1.0;"/><line style="stroke: #A80036; stroke-width: 1.0; stroke-dasharray: 2.0,2.0;" x1="220" x2="312" y1="432.9517" y2="432.9517"/><text fill="#000000" font-family="monospace" font-size="13" lengthAdjust="spacingAndGlyphs" textLength="74" x="227" y="427.4287">onAttempt()</text><polygon fill="#A80036" points="432,460.0967,442,464.0967,432,468.0967,436,464.0967" style="stroke: #A80036; stroke-width: 1.0;"/><line style="stroke: #A80036; stroke-width: 1.0; stroke-dasharray: 2.0,2.0;" x1="328" x2="438" y1="464.0967" y2="464.0967"/><text fill="#000000" font-family="monospace" font-size="13" lengthAdjust="spacingAndGlyphs" textLength="85" x="335" y="458.5737">attemptItem()</text><polygon fill="#A80036" points="198,489.2295,208,493.2295,198,497.2295,202,493.2295" style="stroke: #A80036; stroke-width: 1.0;"/><line style="stroke: #A80036; stroke-width: 1.0;" x1="70" x2="204" y1="493.2295" y2="493.2295"/><text fill="#000000" font-family="sans-serif" font-size="13" lengthAdjust="spacingAndGlyphs" textLength="115" x="77" y="488.1636">"I want to try again"</text><line style="stroke: #000000; stroke-width: 1.0; stroke-dasharray: 2.0,2.0;" x1="33" x2="475.5" y1="502.2295" y2="502.2295"/><polygon fill="#A80036" points="198,520.3623,208,524.3623,198,528.3623,202,524.3623" style="stroke: #A80036; stroke-width: 1.0;"/><line style="stroke: #A80036; stroke-width: 1.0;" x1="70" x2="204" y1="524.3623" y2="524.3623"/><text fill="#000000" font-family="sans-serif" font-size="13" lengthAdjust="spacingAndGlyphs" textLength="116" x="77" y="519.2964">"I want to move on"</text><line style="stroke: #000000; stroke-width: 1.0; stroke-dasharray: 2.0,2.0;" x1="33" x2="475.5" y1="533.3623" y2="533.3623"/><line style="stroke: #A80036; stroke-width: 1.0;" x1="220" x2="262" y1="555.4951" y2="555.4951"/><line style="stroke: #A80036; stroke-width: 1.0;" x1="262" x2="262" y1="555.4951" y2="568.4951"/><line style="stroke: #A80036; stroke-width: 1.0;" x1="221" x2="262" y1="568.4951" y2="568.4951"/><polygon fill="#A80036" points="231,564.4951,221,568.4951,231,572.4951,227,568.4951" style="stroke: #A80036; stroke-width: 1.0;"/><text fill="#000000" font-family="sans-serif" font-size="13" lengthAdjust="spacingAndGlyphs" textLength="80" x="227" y="550.4292">Auto proceed</text><polygon fill="#A80036" points="306,609.6401,316,613.6401,306,617.6401,310,613.6401" style="stroke: #A80036; stroke-width: 1.0;"/><line style="stroke: #A80036; stroke-width: 1.0;" x1="220" x2="312" y1="613.6401" y2="613.6401"/><text fill="#000000" font-family="monospace" font-size="13" lengthAdjust="spacingAndGlyphs" textLength="59" x="227" y="608.1172">onFinish()</text><polygon fill="#A80036" points="226,640.7852,216,644.7852,226,648.7852,222,644.7852" style="stroke: #A80036; stroke-width: 1.0;"/><line style="stroke: #A80036; stroke-width: 1.0;" x1="220" x2="317" y1="644.7852" y2="644.7852"/><text fill="#000000" font-family="monospace" font-size="13" lengthAdjust="spacingAndGlyphs" textLength="68" x="232" y="639.2622">Set inactive</text><polygon fill="#A80036" points="432,671.9302,442,675.9302,432,679.9302,436,675.9302" style="stroke: #A80036; stroke-width: 1.0;"/><line style="stroke: #A80036; stroke-width: 1.0; stroke-dasharray: 2.0,2.0;" x1="328" x2="438" y1="675.9302" y2="675.9302"/><text fill="#000000" font-family="monospace" font-size="13" lengthAdjust="spacingAndGlyphs" textLength="92" x="335" y="670.4072">completeItem()</text><polygon fill="#A80036" points="432,710.0752,442,714.0752,432,718.0752,436,714.0752" style="stroke: #A80036; stroke-width: 1.0;"/><line style="stroke: #A80036; stroke-width: 1.0;" x1="323" x2="438" y1="714.0752" y2="714.0752"/><text fill="#000000" font-family="monospace" font-size="13" lengthAdjust="spacingAndGlyphs" textLength="59" x="330" y="708.5522">onFinish()</text><!--MD5=[f3625cf925eee40f5ff382d90df1b440]
@startuml interface-sequencing
actor Learner
participant Interaction
participant Trainer
participant App

Learner -> App: "I start a lesson"
App -> Trainer: ""Initialise""
activate Trainer
App <- - Trainer: ""onStart()""
loop While interactive items remain
  Trainer -> Interaction: ""Initialise""
  Trainer -> Interaction: ""Set active""
  activate Interaction
  Learner <- Interaction: Present interaction
  loop While Interactive elements remain
    Learner <- Interaction: Present element
    loop While try again
      Learner -> Interaction: "I make an attempt"
      Trainer <- - Interaction: ""onAttempt()""
      App <- - Trainer: ""attemptItem()""
      Learner -> Interaction: "I want to try again"
      else
      Learner -> Interaction: "I want to move on"
      else
      Interaction -> Interaction: Auto proceed
    end
  end
  Trainer <- Interaction: ""onFinish()""
  Trainer -> Interaction: ""Set inactive""
  deactivate Interaction
  App <- - Trainer: ""completeItem()""
end
App <- Trainer: ""onFinish()""
deactivate Trainer
@enduml

PlantUML version 1.2020.14(Sat Jun 20 14:14:34 GMT 2020)
(GPL source distribution)
Java Runtime: Java(TM) SE Runtime Environment
JVM: Java HotSpot(TM) 64-Bit Server VM
Default Encoding: ANSI_X3.4-1968
Language: en
Country: US
--></g></svg>