<?xml version="1.0" encoding="UTF-8" standalone="no"?><svg xmlns="http://www.w3.org/2000/svg" xmlns:xlink="http://www.w3.org/1999/xlink" contentScriptType="application/ecmascript" contentStyleType="text/css" height="662px" preserveAspectRatio="none" style="width:234px;height:662px;" version="1.1" viewBox="0 0 234 662" width="234px" zoomAndPan="magnify"><defs><filter height="300%" id="fjh666dexdh64" width="300%" x="-1" y="-1"><feGaussianBlur result="blurOut" stdDeviation="2.0"/><feColorMatrix in="blurOut" result="blurOut2" type="matrix" values="0 0 0 0 0 0 0 0 0 0 0 0 0 0 0 0 0 0 .4 0"/><feOffset dx="4.0" dy="4.0" in="blurOut2" result="blurOut3"/><feBlend in="SourceGraphic" in2="blurOut3" mode="normal"/></filter></defs><g><ellipse cx="99.5" cy="20" fill="#000000" filter="url(#fjh666dexdh64)" rx="10" ry="10" style="stroke: none; stroke-width: 1.0;"/><rect fill="#FFFFFF" filter="url(#fjh666dexdh64)" height="563.0234" style="stroke: #000000; stroke-width: 2.0;" width="206" x="11" y="40"/><path d="M91,41 L91,49.2969 L81,59.2969 L11,59.2969 " fill="none" style="stroke: #000000; stroke-width: 2.0;"/><text fill="#000000" font-family="sans-serif" font-size="14" lengthAdjust="spacingAndGlyphs" textLength="70" x="14" y="53.9951">Interaction</text><rect fill="#FEFECE" filter="url(#fjh666dexdh64)" height="33.9688" rx="12.5" ry="12.5" style="stroke: #A80036; stroke-width: 1.5;" width="95" x="52" y="76.2969"/><text fill="#000000" font-family="sans-serif" font-size="12" lengthAdjust="spacingAndGlyphs" textLength="75" x="62" y="97.4355">wait for active</text><polygon fill="#FEFECE" filter="url(#fjh666dexdh64)" points="37.5,130.2656,161.5,130.2656,171.5,147.25,161.5,164.2344,37.5,164.2344" style="stroke: #A80036; stroke-width: 1.5;"/><text fill="#000000" font-family="sans-serif" font-size="12" lengthAdjust="spacingAndGlyphs" textLength="104" x="47.5" y="151.4043">Present interaction</text><polygon fill="#FEFECE" filter="url(#fjh666dexdh64)" points="44,238.2031,155,238.2031,165,255.1875,155,272.1719,44,272.1719" style="stroke: #A80036; stroke-width: 1.5;"/><text fill="#000000" font-family="sans-serif" font-size="12" lengthAdjust="spacingAndGlyphs" textLength="91" x="54" y="259.3418">Present element</text><polygon fill="#FEFECE" filter="url(#fjh666dexdh64)" points="61.5,346.1406,147.5,346.1406,137.5,363.125,147.5,380.1094,61.5,380.1094" style="stroke: #A80036; stroke-width: 1.5;"/><text fill="#000000" font-family="sans-serif" font-size="12" lengthAdjust="spacingAndGlyphs" textLength="56" x="71.5" y="367.2793">User input</text><rect fill="#FEFECE" filter="url(#fjh666dexdh64)" height="33.9688" style="stroke: #A80036; stroke-width: 1.5;" width="89" x="55" y="415.0859"/><line style="stroke: #A80036; stroke-width: 1.5;" x1="60" x2="60" y1="415.0859" y2="449.0547"/><line style="stroke: #A80036; stroke-width: 1.5;" x1="139" x2="139" y1="415.0859" y2="449.0547"/><text fill="#000000" font-family="sans-serif" font-size="12" lengthAdjust="spacingAndGlyphs" textLength="69" x="65" y="436.2246">Assess input</text><polygon fill="#FEFECE" filter="url(#fjh666dexdh64)" points="42,469.0547,157,469.0547,167,486.0391,157,503.0234,42,503.0234" style="stroke: #A80036; stroke-width: 1.5;"/><text fill="#000000" font-family="sans-serif" font-size="12" lengthAdjust="spacingAndGlyphs" textLength="95" x="52" y="490.1934">Present feedback</text><rect fill="#FEFECE" filter="url(#fjh666dexdh64)" height="33.9688" rx="12.5" ry="12.5" style="stroke: #A80036; stroke-width: 1.5;" width="120" x="39.5" y="292.1719"/><text fill="#000000" font-family="sans-serif" font-size="12" lengthAdjust="spacingAndGlyphs" textLength="100" x="49.5" y="313.3105">Wait for user input</text><polygon fill="#FEFECE" filter="url(#fjh666dexdh64)" points="41.5,523.0234,157.5,523.0234,169.5,535.0234,157.5,547.0234,41.5,547.0234,29.5,535.0234,41.5,523.0234" style="stroke: #A80036; stroke-width: 1.5;"/><text fill="#000000" font-family="sans-serif" font-size="11" lengthAdjust="spacingAndGlyphs" textLength="116" x="41.5" y="538.8315">Make another attempt?</text><rect fill="#FEFECE" filter="url(#fjh666dexdh64)" height="33.9688" rx="12.5" ry="12.5" style="stroke: #A80036; stroke-width: 1.5;" width="155" x="22" y="184.2344"/><text fill="#000000" font-family="sans-serif" font-size="12" lengthAdjust="spacingAndGlyphs" textLength="135" x="32" y="205.373">Next interactive element</text><polygon fill="#FEFECE" filter="url(#fjh666dexdh64)" points="33,567.0234,166,567.0234,178,579.0234,166,591.0234,33,591.0234,21,579.0234,33,567.0234" style="stroke: #A80036; stroke-width: 1.5;"/><text fill="#000000" font-family="sans-serif" font-size="11" lengthAdjust="spacingAndGlyphs" textLength="133" x="33" y="582.8315">More interactive elements?</text><ellipse cx="99.5" cy="634.0234" fill="#FFFFFF" filter="url(#fjh666dexdh64)" rx="11" ry="11" style="stroke: #000000; stroke-width: 1.0;"/><ellipse cx="99.5" cy="634.0234" fill="#000000" rx="6" ry="6" style="stroke: #7F7F7F; stroke-width: 1.0;"/><line style="stroke: #A80036; stroke-width: 1.5;" x1="99.5" x2="99.5" y1="110.2656" y2="130.2656"/><polygon fill="#A80036" points="95.5,120.2656,99.5,130.2656,103.5,120.2656,99.5,124.2656" style="stroke: #A80036; stroke-width: 1.0;"/><line style="stroke: #A80036; stroke-width: 1.5;" x1="99.5" x2="99.5" y1="380.1094" y2="415.0859"/><polygon fill="#A80036" points="95.5,405.0859,99.5,415.0859,103.5,405.0859,99.5,409.0859" style="stroke: #A80036; stroke-width: 1.0;"/><line style="stroke: #A80036; stroke-width: 1.5;" x1="99.5" x2="99.5" y1="449.0547" y2="469.0547"/><polygon fill="#A80036" points="95.5,459.0547,99.5,469.0547,103.5,459.0547,99.5,463.0547" style="stroke: #A80036; stroke-width: 1.0;"/><line style="stroke: #A80036; stroke-width: 1.5;" x1="99.5" x2="99.5" y1="326.1406" y2="346.1406"/><polygon fill="#A80036" points="95.5,336.1406,99.5,346.1406,103.5,336.1406,99.5,340.1406" style="stroke: #A80036; stroke-width: 1.0;"/><line style="stroke: #A80036; stroke-width: 1.5;" x1="169.5" x2="181.5" y1="535.0234" y2="535.0234"/><polygon fill="#A80036" points="177.5,439.5781,181.5,429.5781,185.5,439.5781,181.5,435.5781" style="stroke: #A80036; stroke-width: 1.5;"/><line style="stroke: #A80036; stroke-width: 1.5;" x1="181.5" x2="181.5" y1="309.1563" y2="535.0234"/><line style="stroke: #A80036; stroke-width: 1.5;" x1="181.5" x2="159.5" y1="309.1563" y2="309.1563"/><polygon fill="#A80036" points="169.5,305.1563,159.5,309.1563,169.5,313.1563,165.5,309.1563" style="stroke: #A80036; stroke-width: 1.0;"/><line style="stroke: #A80036; stroke-width: 1.5;" x1="99.5" x2="99.5" y1="503.0234" y2="523.0234"/><polygon fill="#A80036" points="95.5,513.0234,99.5,523.0234,103.5,513.0234,99.5,517.0234" style="stroke: #A80036; stroke-width: 1.0;"/><line style="stroke: #A80036; stroke-width: 1.5;" x1="99.5" x2="99.5" y1="272.1719" y2="292.1719"/><polygon fill="#A80036" points="95.5,282.1719,99.5,292.1719,103.5,282.1719,99.5,286.1719" style="stroke: #A80036; stroke-width: 1.0;"/><line style="stroke: #A80036; stroke-width: 1.5;" x1="99.5" x2="99.5" y1="218.2031" y2="238.2031"/><polygon fill="#A80036" points="95.5,228.2031,99.5,238.2031,103.5,228.2031,99.5,232.2031" style="stroke: #A80036; stroke-width: 1.0;"/><line style="stroke: #A80036; stroke-width: 1.5;" x1="178" x2="201" y1="579.0234" y2="579.0234"/><polygon fill="#A80036" points="197,400.1094,201,390.1094,205,400.1094,201,396.1094" style="stroke: #A80036; stroke-width: 1.5;"/><line style="stroke: #A80036; stroke-width: 1.5;" x1="201" x2="201" y1="201.2188" y2="579.0234"/><line style="stroke: #A80036; stroke-width: 1.5;" x1="201" x2="177" y1="201.2188" y2="201.2188"/><polygon fill="#A80036" points="187,197.2188,177,201.2188,187,205.2188,183,201.2188" style="stroke: #A80036; stroke-width: 1.0;"/><line style="stroke: #A80036; stroke-width: 1.5;" x1="99.5" x2="99.5" y1="547.0234" y2="567.0234"/><polygon fill="#A80036" points="95.5,557.0234,99.5,567.0234,103.5,557.0234,99.5,561.0234" style="stroke: #A80036; stroke-width: 1.0;"/><line style="stroke: #A80036; stroke-width: 1.5;" x1="99.5" x2="99.5" y1="164.2344" y2="184.2344"/><polygon fill="#A80036" points="95.5,174.2344,99.5,184.2344,103.5,174.2344,99.5,178.2344" style="stroke: #A80036; stroke-width: 1.0;"/><line style="stroke: #A80036; stroke-width: 1.5;" x1="99.5" x2="99.5" y1="30" y2="76.2969"/><polygon fill="#A80036" points="95.5,66.2969,99.5,76.2969,103.5,66.2969,99.5,70.2969" style="stroke: #A80036; stroke-width: 1.0;"/><line style="stroke: #A80036; stroke-width: 1.5;" x1="99.5" x2="99.5" y1="591.0234" y2="623.0234"/><polygon fill="#A80036" points="95.5,613.0234,99.5,623.0234,103.5,613.0234,99.5,617.0234" style="stroke: #A80036; stroke-width: 1.0;"/><!--MD5=[9e6eaebece94a41ab7657d6679c32e3f]
@startuml interaction
start
partition "Interaction" {
  :wait for active;
  :Present interaction>
  repeat :Next interactive element;
    :Present element>
    repeat :Wait for user input;
      :User input<
      :Assess input|
      :Present feedback>
    repeat while (Make another attempt?)
  repeat while (More interactive elements?)
}
stop
@enduml

PlantUML version 1.2020.14(Sat Jun 20 14:14:34 GMT 2020)
(GPL source distribution)
Java Runtime: Java(TM) SE Runtime Environment
JVM: Java HotSpot(TM) 64-Bit Server VM
Default Encoding: ANSI_X3.4-1968
Language: en
Country: US
--></g></svg>