<?xml version="1.0" encoding="UTF-8" standalone="no"?><svg xmlns="http://www.w3.org/2000/svg" xmlns:xlink="http://www.w3.org/1999/xlink" contentScriptType="application/ecmascript" contentStyleType="text/css" height="505px" preserveAspectRatio="none" style="width:268px;height:505px;" version="1.1" viewBox="0 0 268 505" width="268px" zoomAndPan="magnify"><defs><filter height="300%" id="f18kvpdowi7p21" width="300%" x="-1" y="-1"><feGaussianBlur result="blurOut" stdDeviation="2.0"/><feColorMatrix in="blurOut" result="blurOut2" type="matrix" values="0 0 0 0 0 0 0 0 0 0 0 0 0 0 0 0 0 0 .4 0"/><feOffset dx="4.0" dy="4.0" in="blurOut2" result="blurOut3"/><feBlend in="SourceGraphic" in2="blurOut3" mode="normal"/></filter></defs><g><ellipse cx="144" cy="16" fill="#000000" filter="url(#f18kvpdowi7p21)" rx="10" ry="10" style="stroke: none; stroke-width: 1.0;"/><g id="INACTIVE"><rect fill="#FEFECE" filter="url(#f18kvpdowi7p21)" height="50.2656" rx="12.5" ry="12.5" style="stroke: #A80036; stroke-width: 1.5;" width="173" x="57.5" y="87"/><line style="stroke: #A80036; stroke-width: 1.5;" x1="57.5" x2="230.5" y1="113.2969" y2="113.2969"/><text fill="#000000" font-family="sans-serif" font-size="14" lengthAdjust="spacingAndGlyphs" textLength="59" x="114.5" y="104.9951">INACTIVE</text><text fill="#000000" font-family="sans-serif" font-size="12" lengthAdjust="spacingAndGlyphs" textLength="153" x="62.5" y="129.4355">Interaction is not interactive</text></g><g id="INPUT"><rect fill="#FEFECE" filter="url(#f18kvpdowi7p21)" height="50.2656" rx="12.5" ry="12.5" style="stroke: #A80036; stroke-width: 1.5;" width="136" x="7" y="214"/><line style="stroke: #A80036; stroke-width: 1.5;" x1="7" x2="143" y1="240.2969" y2="240.2969"/><text fill="#000000" font-family="sans-serif" font-size="14" lengthAdjust="spacingAndGlyphs" textLength="40" x="55" y="231.9951">INPUT</text><text fill="#000000" font-family="sans-serif" font-size="12" lengthAdjust="spacingAndGlyphs" textLength="116" x="12" y="256.4355">Waiting for user input</text></g><g id="FEEDBACK"><rect fill="#FEFECE" filter="url(#f18kvpdowi7p21)" height="50.2656" rx="12.5" ry="12.5" style="stroke: #A80036; stroke-width: 1.5;" width="229" x="20.5" y="341"/><line style="stroke: #A80036; stroke-width: 1.5;" x1="20.5" x2="249.5" y1="367.2969" y2="367.2969"/><text fill="#000000" font-family="sans-serif" font-size="14" lengthAdjust="spacingAndGlyphs" textLength="65" x="102.5" y="358.9951">FEEDBACK</text><text fill="#000000" font-family="sans-serif" font-size="12" lengthAdjust="spacingAndGlyphs" textLength="209" x="25.5" y="383.4355">Presenting feedback for latest attempt</text></g><ellipse cx="135" cy="478" fill="none" filter="url(#f18kvpdowi7p21)" rx="10" ry="10" style="stroke: #000000; stroke-width: 1.0;"/><ellipse cx="135.5" cy="478.5" fill="#000000" rx="6" ry="6" style="stroke: none; stroke-width: 1.0;"/><!--MD5=[0545605ca8a770faaef76b49b3f5b7b2]
link *start to INACTIVE--><path d="M144,26.2737 C144,39.3608 144,62.5555 144,81.5207 " fill="none" id="*start-&gt;INACTIVE" style="stroke: #A80036; stroke-width: 1.0;"/><polygon fill="#A80036" points="144,86.7458,148,77.7458,144,81.7458,140,77.7458,144,86.7458" style="stroke: #A80036; stroke-width: 1.0;"/><!--MD5=[43819c8cf20de9794f02b8bf5e0ba86a]
link INACTIVE to INPUT--><path d="M98.1002,137.0814 C87.622,145.1629 77.8568,155.1559 72,167 C65.7335,179.6725 65.5837,195.186 67.3716,208.5634 " fill="none" id="INACTIVE-&gt;INPUT" style="stroke: #A80036; stroke-width: 1.0;"/><polygon fill="#A80036" points="68.1763,213.766,70.7536,204.2603,67.412,208.8248,62.8476,205.4832,68.1763,213.766" style="stroke: #A80036; stroke-width: 1.0;"/><text fill="#000000" font-family="sans-serif" font-size="13" lengthAdjust="spacingAndGlyphs" textLength="27" x="73" y="180.0669">Start</text><!--MD5=[7a0b98b1b9e11342092551d7af322959]
link INPUT to INACTIVE--><path d="M88.7555,213.8184 C93.863,204.4587 99.7017,193.7473 105,184 C112.5582,170.095 120.9182,154.6675 127.9532,141.6714 " fill="none" id="INPUT-&gt;INACTIVE" style="stroke: #A80036; stroke-width: 1.0;"/><polygon fill="#A80036" points="130.4812,137.0006,122.6794,143.0115,128.1012,141.3978,129.7149,146.8196,130.4812,137.0006" style="stroke: #A80036; stroke-width: 1.0;"/><text fill="#000000" font-family="sans-serif" font-size="13" lengthAdjust="spacingAndGlyphs" textLength="39" x="114" y="180.0669">Cancel</text><!--MD5=[2f381fe5ef67384e795bc3147115e1db]
link INPUT to FEEDBACK--><path d="M52.6193,264.2892 C42.9534,278.3891 35.5754,296.0644 44,311 C50.0311,321.6922 59.0694,330.5408 69.1455,337.7821 " fill="none" id="INPUT-&gt;FEEDBACK" style="stroke: #A80036; stroke-width: 1.0;"/><polygon fill="#A80036" points="73.5217,340.7878,68.3675,332.3953,69.4002,337.9571,63.8384,338.9898,73.5217,340.7878" style="stroke: #A80036; stroke-width: 1.0;"/><text fill="#000000" font-family="sans-serif" font-size="13" lengthAdjust="spacingAndGlyphs" textLength="46" x="45" y="307.0669">Attempt</text><!--MD5=[e7b7c385ff993edf3cb54b96a5d73633]
link FEEDBACK to INPUT--><path d="M123.1706,340.961 C113.3572,320.1894 99.382,290.6087 89.0099,268.6543 " fill="none" id="FEEDBACK-&gt;INPUT" style="stroke: #A80036; stroke-width: 1.0;"/><polygon fill="#A80036" points="86.8541,264.0911,87.082,273.9373,88.99,268.612,94.3153,270.52,86.8541,264.0911" style="stroke: #A80036; stroke-width: 1.0;"/><text fill="#000000" font-family="sans-serif" font-size="13" lengthAdjust="spacingAndGlyphs" textLength="53" x="109" y="307.0669">Try again</text><!--MD5=[f47ab6ea182609b4fd577ccda44ccde4]
link FEEDBACK to INACTIVE--><path d="M155.7506,340.9818 C161.9023,332.0738 167.8369,321.6083 171,311 C188.3526,252.804 169.5931,181.6768 155.829,142.1557 " fill="none" id="FEEDBACK-&gt;INACTIVE" style="stroke: #A80036; stroke-width: 1.0;"/><polygon fill="#A80036" points="154.009,137.0276,153.2495,146.8471,155.6813,141.7396,160.7888,144.1714,154.009,137.0276" style="stroke: #A80036; stroke-width: 1.0;"/><text fill="#000000" font-family="sans-serif" font-size="13" lengthAdjust="spacingAndGlyphs" textLength="39" x="178" y="243.5669">Cancel</text><!--MD5=[d589476f6a031eb6f9f376a967031249]
link FEEDBACK to *end--><path d="M135,391.135 C135,412.9947 135,443.9793 135,462.4282 " fill="none" id="FEEDBACK-&gt;*end" style="stroke: #A80036; stroke-width: 1.0;"/><polygon fill="#A80036" points="135,467.7272,139,458.7272,135,462.7272,131,458.7272,135,467.7272" style="stroke: #A80036; stroke-width: 1.0;"/><text fill="#000000" font-family="sans-serif" font-size="13" lengthAdjust="spacingAndGlyphs" textLength="48" x="136" y="434.0669">Proceed</text><!--MD5=[d06be2b684d0731f964919a0ce58e0ab]
@startuml interaction-states-actions

[*] - -> INACTIVE
INACTIVE: Interaction is not interactive
INACTIVE - -> INPUT : Start

INPUT: Waiting for user input
INPUT - -> FEEDBACK : Attempt
INPUT - -> INACTIVE : Cancel

FEEDBACK: Presenting feedback for latest attempt
FEEDBACK - -> INACTIVE : Cancel
FEEDBACK - -> INPUT : Try again

FEEDBACK - -> [*] : Proceed

@enduml

PlantUML version 1.2020.14(Sat Jun 20 14:14:34 GMT 2020)
(GPL source distribution)
Java Runtime: Java(TM) SE Runtime Environment
JVM: Java HotSpot(TM) 64-Bit Server VM
Default Encoding: ANSI_X3.4-1968
Language: en
Country: US
--></g></svg>