<?xml version="1.0" encoding="UTF-8" standalone="no"?><svg xmlns="http://www.w3.org/2000/svg" xmlns:xlink="http://www.w3.org/1999/xlink" contentScriptType="application/ecmascript" contentStyleType="text/css" height="409px" preserveAspectRatio="none" style="width:324px;height:409px;" version="1.1" viewBox="0 0 324 409" width="324px" zoomAndPan="magnify"><defs><filter height="300%" id="fda8abz8t6av6" width="300%" x="-1" y="-1"><feGaussianBlur result="blurOut" stdDeviation="2.0"/><feColorMatrix in="blurOut" result="blurOut2" type="matrix" values="0 0 0 0 0 0 0 0 0 0 0 0 0 0 0 0 0 0 .4 0"/><feOffset dx="4.0" dy="4.0" in="blurOut2" result="blurOut3"/><feBlend in="SourceGraphic" in2="blurOut3" mode="normal"/></filter></defs><g><ellipse cx="146" cy="20" fill="#000000" filter="url(#fda8abz8t6av6)" rx="10" ry="10" style="stroke: none; stroke-width: 1.0;"/><rect fill="#FFFFFF" filter="url(#fda8abz8t6av6)" height="310.1953" style="stroke: #000000; stroke-width: 2.0;" width="296" x="11" y="40"/><path d="M210,41 L210,49.2969 L200,59.2969 L11,59.2969 " fill="none" style="stroke: #000000; stroke-width: 2.0;"/><text fill="#000000" font-family="sans-serif" font-size="14" lengthAdjust="spacingAndGlyphs" textLength="189" x="14" y="53.9951">Trainer (Item Playback Sound)</text><polygon fill="#FEFECE" filter="url(#fda8abz8t6av6)" points="98.5,130.2656,193.5,130.2656,205.5,142.2656,193.5,154.2656,98.5,154.2656,86.5,142.2656,98.5,130.2656" style="stroke: #A80036; stroke-width: 1.5;"/><text fill="#000000" font-family="sans-serif" font-size="11" lengthAdjust="spacingAndGlyphs" textLength="95" x="98.5" y="146.0737">Trainer.dictate flag?</text><text fill="#000000" font-family="sans-serif" font-size="11" lengthAdjust="spacingAndGlyphs" textLength="17" x="69.5" y="139.6714">yes</text><text fill="#000000" font-family="sans-serif" font-size="11" lengthAdjust="spacingAndGlyphs" textLength="12" x="205.5" y="139.6714">no</text><polygon fill="#FEFECE" filter="url(#fda8abz8t6av6)" points="23,164.2656,130,164.2656,140,181.25,130,198.2344,23,198.2344" style="stroke: #A80036; stroke-width: 1.5;"/><text fill="#000000" font-family="sans-serif" font-size="12" lengthAdjust="spacingAndGlyphs" textLength="87" x="33" y="185.4043">Play item sound</text><rect fill="#FEFECE" filter="url(#fda8abz8t6av6)" height="33.9688" style="stroke: #A80036; stroke-width: 1.5;" width="80" x="36.5" y="230.2266"/><line style="stroke: #A80036; stroke-width: 1.5;" x1="41.5" x2="41.5" y1="230.2266" y2="264.1953"/><line style="stroke: #A80036; stroke-width: 1.5;" x1="111.5" x2="111.5" y1="230.2266" y2="264.1953"/><text fill="#000000" font-family="sans-serif" font-size="12" lengthAdjust="spacingAndGlyphs" textLength="60" x="46.5" y="251.3652">Interaction</text><rect fill="#FEFECE" filter="url(#fda8abz8t6av6)" height="33.9688" style="stroke: #A80036; stroke-width: 1.5;" width="80" x="175.5" y="164.2656"/><line style="stroke: #A80036; stroke-width: 1.5;" x1="180.5" x2="180.5" y1="164.2656" y2="198.2344"/><line style="stroke: #A80036; stroke-width: 1.5;" x1="250.5" x2="250.5" y1="164.2656" y2="198.2344"/><text fill="#000000" font-family="sans-serif" font-size="12" lengthAdjust="spacingAndGlyphs" textLength="60" x="185.5" y="185.4043">Interaction</text><polygon fill="#FEFECE" filter="url(#fda8abz8t6av6)" points="162,230.2266,269,230.2266,279,247.2109,269,264.1953,162,264.1953" style="stroke: #A80036; stroke-width: 1.5;"/><text fill="#000000" font-family="sans-serif" font-size="12" lengthAdjust="spacingAndGlyphs" textLength="87" x="172" y="251.3652">Play item sound</text><polygon fill="#FEFECE" filter="url(#fda8abz8t6av6)" points="146,270.1953,158,282.1953,146,294.1953,134,282.1953,146,270.1953" style="stroke: #A80036; stroke-width: 1.5;"/><rect fill="#FEFECE" filter="url(#fda8abz8t6av6)" height="33.9688" rx="12.5" ry="12.5" style="stroke: #A80036; stroke-width: 1.5;" width="134" x="79" y="76.2969"/><text fill="#000000" font-family="sans-serif" font-size="12" lengthAdjust="spacingAndGlyphs" textLength="114" x="89" y="97.4355">Next interactive item</text><polygon fill="#FEFECE" filter="url(#fda8abz8t6av6)" points="77.5,314.1953,214.5,314.1953,226.5,326.1953,214.5,338.1953,77.5,338.1953,65.5,326.1953,77.5,314.1953" style="stroke: #A80036; stroke-width: 1.5;"/><text fill="#000000" font-family="sans-serif" font-size="11" lengthAdjust="spacingAndGlyphs" textLength="137" x="77.5" y="330.0034">Has more interactive items?</text><ellipse cx="146" cy="381.1953" fill="#FFFFFF" filter="url(#fda8abz8t6av6)" rx="11" ry="11" style="stroke: #000000; stroke-width: 1.0;"/><ellipse cx="146" cy="381.1953" fill="#000000" rx="6" ry="6" style="stroke: #7F7F7F; stroke-width: 1.0;"/><line style="stroke: #A80036; stroke-width: 1.5;" x1="76.5" x2="76.5" y1="198.2344" y2="230.2266"/><polygon fill="#A80036" points="72.5,220.2266,76.5,230.2266,80.5,220.2266,76.5,224.2266" style="stroke: #A80036; stroke-width: 1.0;"/><line style="stroke: #A80036; stroke-width: 1.5;" x1="215.5" x2="215.5" y1="198.2344" y2="230.2266"/><polygon fill="#A80036" points="211.5,220.2266,215.5,230.2266,219.5,220.2266,215.5,224.2266" style="stroke: #A80036; stroke-width: 1.0;"/><line style="stroke: #A80036; stroke-width: 1.5;" x1="86.5" x2="76.5" y1="142.2656" y2="142.2656"/><line style="stroke: #A80036; stroke-width: 1.5;" x1="76.5" x2="76.5" y1="142.2656" y2="164.2656"/><polygon fill="#A80036" points="72.5,154.2656,76.5,164.2656,80.5,154.2656,76.5,158.2656" style="stroke: #A80036; stroke-width: 1.0;"/><line style="stroke: #A80036; stroke-width: 1.5;" x1="205.5" x2="215.5" y1="142.2656" y2="142.2656"/><line style="stroke: #A80036; stroke-width: 1.5;" x1="215.5" x2="215.5" y1="142.2656" y2="164.2656"/><polygon fill="#A80036" points="211.5,154.2656,215.5,164.2656,219.5,154.2656,215.5,158.2656" style="stroke: #A80036; stroke-width: 1.0;"/><line style="stroke: #A80036; stroke-width: 1.5;" x1="76.5" x2="76.5" y1="264.1953" y2="282.1953"/><line style="stroke: #A80036; stroke-width: 1.5;" x1="76.5" x2="134" y1="282.1953" y2="282.1953"/><polygon fill="#A80036" points="124,278.1953,134,282.1953,124,286.1953,128,282.1953" style="stroke: #A80036; stroke-width: 1.0;"/><line style="stroke: #A80036; stroke-width: 1.5;" x1="215.5" x2="215.5" y1="264.1953" y2="282.1953"/><line style="stroke: #A80036; stroke-width: 1.5;" x1="215.5" x2="158" y1="282.1953" y2="282.1953"/><polygon fill="#A80036" points="168,278.1953,158,282.1953,168,286.1953,164,282.1953" style="stroke: #A80036; stroke-width: 1.0;"/><line style="stroke: #A80036; stroke-width: 1.5;" x1="146" x2="146" y1="110.2656" y2="130.2656"/><polygon fill="#A80036" points="142,120.2656,146,130.2656,150,120.2656,146,124.2656" style="stroke: #A80036; stroke-width: 1.0;"/><line style="stroke: #A80036; stroke-width: 1.5;" x1="226.5" x2="291" y1="326.1953" y2="326.1953"/><polygon fill="#A80036" points="287,218.2344,291,208.2344,295,218.2344,291,214.2344" style="stroke: #A80036; stroke-width: 1.5;"/><line style="stroke: #A80036; stroke-width: 1.5;" x1="291" x2="291" y1="93.2813" y2="326.1953"/><line style="stroke: #A80036; stroke-width: 1.5;" x1="291" x2="213" y1="93.2813" y2="93.2813"/><polygon fill="#A80036" points="223,89.2813,213,93.2813,223,97.2813,219,93.2813" style="stroke: #A80036; stroke-width: 1.0;"/><line style="stroke: #A80036; stroke-width: 1.5;" x1="146" x2="146" y1="294.1953" y2="314.1953"/><polygon fill="#A80036" points="142,304.1953,146,314.1953,150,304.1953,146,308.1953" style="stroke: #A80036; stroke-width: 1.0;"/><line style="stroke: #A80036; stroke-width: 1.5;" x1="146" x2="146" y1="30" y2="76.2969"/><polygon fill="#A80036" points="142,66.2969,146,76.2969,150,66.2969,146,70.2969" style="stroke: #A80036; stroke-width: 1.0;"/><line style="stroke: #A80036; stroke-width: 1.5;" x1="146" x2="146" y1="338.1953" y2="370.1953"/><polygon fill="#A80036" points="142,360.1953,146,370.1953,150,360.1953,146,364.1953" style="stroke: #A80036; stroke-width: 1.0;"/><!--MD5=[f7c4b27718ec593a15cfbbe712e5df96]
@startuml item-playback-sound
start
partition "Trainer (Item Playback Sound)" {
  repeat :Next interactive item;
    if (Trainer.dictate flag?) then (yes)
      :Play item sound>
      :Interaction|
    else (no)
      :Interaction|
      :Play item sound>
    endif
  repeat while (Has more interactive items?)
}
stop
@enduml

PlantUML version 1.2020.14(Sat Jun 20 14:14:34 GMT 2020)
(GPL source distribution)
Java Runtime: Java(TM) SE Runtime Environment
JVM: Java HotSpot(TM) 64-Bit Server VM
Default Encoding: ANSI_X3.4-1968
Language: en
Country: US
--></g></svg>