<?xml version="1.0" encoding="UTF-8" standalone="no"?><svg xmlns="http://www.w3.org/2000/svg" xmlns:xlink="http://www.w3.org/1999/xlink" contentScriptType="application/ecmascript" contentStyleType="text/css" height="686px" preserveAspectRatio="none" style="width:708px;height:686px;" version="1.1" viewBox="0 0 708 686" width="708px" zoomAndPan="magnify"><defs><filter height="300%" id="f15cw9hn20h5nw" width="300%" x="-1" y="-1"><feGaussianBlur result="blurOut" stdDeviation="2.0"/><feColorMatrix in="blurOut" result="blurOut2" type="matrix" values="0 0 0 0 0 0 0 0 0 0 0 0 0 0 0 0 0 0 .4 0"/><feOffset dx="4.0" dy="4.0" in="blurOut2" result="blurOut3"/><feBlend in="SourceGraphic" in2="blurOut3" mode="normal"/></filter></defs><g><ellipse cx="360" cy="20" fill="#000000" filter="url(#f15cw9hn20h5nw)" rx="10" ry="10" style="stroke: none; stroke-width: 1.0;"/><rect fill="#FEFECE" filter="url(#f15cw9hn20h5nw)" height="33.9688" rx="12.5" ry="12.5" style="stroke: #A80036; stroke-width: 1.5;" width="88" x="316" y="50"/><text fill="#000000" font-family="sans-serif" font-size="12" lengthAdjust="spacingAndGlyphs" textLength="68" x="326" y="71.1387">Start Lesson</text><rect fill="#FFFFFF" filter="url(#f15cw9hn20h5nw)" height="533.3511" style="stroke: #000000; stroke-width: 2.0;" width="680" x="11" y="93.9688"/><path d="M132,94.9688 L132,103.2656 L122,113.2656 L11,113.2656 " fill="none" style="stroke: #000000; stroke-width: 2.0;"/><text fill="#000000" font-family="sans-serif" font-size="14" lengthAdjust="spacingAndGlyphs" textLength="111" x="14" y="107.9639">Lesson Sequence</text><rect fill="#FEFECE" filter="url(#f15cw9hn20h5nw)" height="33.9688" rx="12.5" ry="12.5" style="stroke: #A80036; stroke-width: 1.5;" width="63" x="328.5" y="130.2656"/><text fill="#000000" font-family="sans-serif" font-size="12" lengthAdjust="spacingAndGlyphs" textLength="43" x="338.5" y="151.4043">Loading</text><polygon fill="#FEFECE" filter="url(#f15cw9hn20h5nw)" points="324.5,204.2344,395.5,204.2344,407.5,216.2344,395.5,228.2344,324.5,228.2344,312.5,216.2344,324.5,204.2344" style="stroke: #A80036; stroke-width: 1.5;"/><text fill="#000000" font-family="sans-serif" font-size="11" lengthAdjust="spacingAndGlyphs" textLength="71" x="324.5" y="220.0425">Data is loading</text><polygon fill="#FEFECE" filter="url(#f15cw9hn20h5nw)" points="33,248.2344,246,248.2344,258,260.2344,246,272.2344,33,272.2344,21,260.2344,33,248.2344" style="stroke: #A80036; stroke-width: 1.5;"/><text fill="#000000" font-family="sans-serif" font-size="11" lengthAdjust="spacingAndGlyphs" textLength="17" x="143.5" y="282.4448">yes</text><text fill="#000000" font-family="sans-serif" font-size="11" lengthAdjust="spacingAndGlyphs" textLength="213" x="33" y="264.0425">?showLessonLandingScreen param present?</text><rect fill="#FEFECE" filter="url(#f15cw9hn20h5nw)" height="33.9688" rx="12.5" ry="12.5" style="stroke: #A80036; stroke-width: 1.5;" width="146" x="66.5" y="303.9448"/><text fill="#000000" font-family="sans-serif" font-size="12" lengthAdjust="spacingAndGlyphs" textLength="126" x="76.5" y="325.0835">Lesson Landing Screen</text><polygon fill="#FEFECE" filter="url(#f15cw9hn20h5nw)" points="290,248.2344,456,248.2344,468,260.2344,456,272.2344,290,272.2344,278,260.2344,290,248.2344" style="stroke: #A80036; stroke-width: 1.5;"/><text fill="#000000" font-family="sans-serif" font-size="11" lengthAdjust="spacingAndGlyphs" textLength="17" x="377" y="282.4448">yes</text><text fill="#000000" font-family="sans-serif" font-size="11" lengthAdjust="spacingAndGlyphs" textLength="166" x="290" y="264.0425">Lesson contains speak interaction?</text><rect fill="#FEFECE" filter="url(#f15cw9hn20h5nw)" height="33.9688" rx="12.5" ry="12.5" style="stroke: #A80036; stroke-width: 1.5;" width="117" x="314.5" y="303.9448"/><text fill="#000000" font-family="sans-serif" font-size="12" lengthAdjust="spacingAndGlyphs" textLength="97" x="324.5" y="325.0835">Mic Settings Page</text><polygon fill="#FEFECE" filter="url(#f15cw9hn20h5nw)" points="500,248.2344,637,248.2344,649,260.2344,637,272.2344,500,272.2344,488,260.2344,500,248.2344" style="stroke: #A80036; stroke-width: 1.5;"/><text fill="#000000" font-family="sans-serif" font-size="11" lengthAdjust="spacingAndGlyphs" textLength="17" x="572.5" y="282.4448">yes</text><text fill="#000000" font-family="sans-serif" font-size="11" lengthAdjust="spacingAndGlyphs" textLength="137" x="500" y="264.0425">First trainer auto play audio?</text><text fill="#000000" font-family="sans-serif" font-size="11" lengthAdjust="spacingAndGlyphs" textLength="12" x="649" y="257.6401">no</text><rect fill="#FEFECE" filter="url(#f15cw9hn20h5nw)" height="33.9688" rx="12.5" ry="12.5" style="stroke: #A80036; stroke-width: 1.5;" width="124" x="506.5" y="303.9448"/><text fill="#000000" font-family="sans-serif" font-size="12" lengthAdjust="spacingAndGlyphs" textLength="104" x="516.5" y="325.0835">Leaning Tip Screen</text><rect fill="#FEFECE" filter="url(#f15cw9hn20h5nw)" height="33.9688" style="stroke: #A80036; stroke-width: 1.5;" width="117" x="301.5" y="421.9136"/><line style="stroke: #A80036; stroke-width: 1.5;" x1="306.5" x2="306.5" y1="421.9136" y2="455.8823"/><line style="stroke: #A80036; stroke-width: 1.5;" x1="413.5" x2="413.5" y1="421.9136" y2="455.8823"/><text fill="#000000" font-family="sans-serif" font-size="12" lengthAdjust="spacingAndGlyphs" textLength="97" x="311.5" y="443.0522">Trainer Sequence</text><rect fill="#FEFECE" filter="url(#f15cw9hn20h5nw)" height="33.9688" rx="12.5" ry="12.5" style="stroke: #A80036; stroke-width: 1.5;" width="123" x="298.5" y="483.3823"/><text fill="#000000" font-family="sans-serif" font-size="12" lengthAdjust="spacingAndGlyphs" textLength="103" x="308.5" y="504.521">Lesson End Screen</text><polygon fill="#FEFECE" filter="url(#f15cw9hn20h5nw)" points="360,377.9136,372,389.9136,360,401.9136,348,389.9136,360,377.9136" style="stroke: #A80036; stroke-width: 1.5;"/><polygon fill="#FEFECE" filter="url(#f15cw9hn20h5nw)" points="316.5,537.3511,403.5,537.3511,415.5,549.3511,403.5,561.3511,316.5,561.3511,304.5,549.3511,316.5,537.3511" style="stroke: #A80036; stroke-width: 1.5;"/><text fill="#000000" font-family="sans-serif" font-size="11" lengthAdjust="spacingAndGlyphs" textLength="87" x="316.5" y="553.1592">Correct mistakes?</text><polygon fill="#FEFECE" filter="url(#f15cw9hn20h5nw)" points="282.5,581.3511,447.5,581.3511,437.5,598.3354,447.5,615.3198,282.5,615.3198" style="stroke: #A80036; stroke-width: 1.5;"/><text fill="#000000" font-family="sans-serif" font-size="12" lengthAdjust="spacingAndGlyphs" textLength="135" x="292.5" y="602.4897">Continue Leaning / Close</text><ellipse cx="360" cy="658.3198" fill="#FFFFFF" filter="url(#f15cw9hn20h5nw)" rx="11" ry="11" style="stroke: #000000; stroke-width: 1.0;"/><ellipse cx="360" cy="658.3198" fill="#000000" rx="6" ry="6" style="stroke: #7F7F7F; stroke-width: 1.0;"/><line style="stroke: #A80036; stroke-width: 1.5;" x1="360" x2="360" y1="30" y2="50"/><polygon fill="#A80036" points="356,40,360,50,364,40,360,44" style="stroke: #A80036; stroke-width: 1.0;"/><line style="stroke: #A80036; stroke-width: 1.5;" x1="360" x2="360" y1="164.2344" y2="204.2344"/><polygon fill="#A80036" points="356,194.2344,360,204.2344,364,194.2344,360,198.2344" style="stroke: #A80036; stroke-width: 1.0;"/><line style="stroke: #A80036; stroke-width: 1.5;" x1="407.5" x2="419.5" y1="216.2344" y2="216.2344"/><polygon fill="#A80036" points="415.5,184.2344,419.5,174.2344,423.5,184.2344,419.5,180.2344" style="stroke: #A80036; stroke-width: 1.5;"/><line style="stroke: #A80036; stroke-width: 1.5;" x1="419.5" x2="419.5" y1="147.25" y2="216.2344"/><line style="stroke: #A80036; stroke-width: 1.5;" x1="419.5" x2="391.5" y1="147.25" y2="147.25"/><polygon fill="#A80036" points="401.5,143.25,391.5,147.25,401.5,151.25,397.5,147.25" style="stroke: #A80036; stroke-width: 1.0;"/><line style="stroke: #A80036; stroke-width: 1.5;" x1="139.5" x2="139.5" y1="272.2344" y2="303.9448"/><polygon fill="#A80036" points="135.5,293.9448,139.5,303.9448,143.5,293.9448,139.5,297.9448" style="stroke: #A80036; stroke-width: 1.0;"/><line style="stroke: #A80036; stroke-width: 1.5;" x1="139.5" x2="139.5" y1="337.9136" y2="357.9136"/><polygon fill="#A80036" points="135.5,347.9136,139.5,357.9136,143.5,347.9136,139.5,351.9136" style="stroke: #A80036; stroke-width: 1.0;"/><line style="stroke: #A80036; stroke-width: 1.5;" x1="373" x2="373" y1="272.2344" y2="303.9448"/><polygon fill="#A80036" points="369,293.9448,373,303.9448,377,293.9448,373,297.9448" style="stroke: #A80036; stroke-width: 1.0;"/><line style="stroke: #A80036; stroke-width: 1.5;" x1="373" x2="373" y1="337.9136" y2="357.9136"/><polygon fill="#A80036" points="369,347.9136,373,357.9136,377,347.9136,373,351.9136" style="stroke: #A80036; stroke-width: 1.0;"/><line style="stroke: #A80036; stroke-width: 1.5;" x1="568.5" x2="568.5" y1="272.2344" y2="303.9448"/><polygon fill="#A80036" points="564.5,293.9448,568.5,303.9448,572.5,293.9448,568.5,297.9448" style="stroke: #A80036; stroke-width: 1.0;"/><line style="stroke: #A80036; stroke-width: 1.5;" x1="568.5" x2="568.5" y1="337.9136" y2="357.9136"/><polygon fill="#A80036" points="564.5,347.9136,568.5,357.9136,572.5,347.9136,568.5,351.9136" style="stroke: #A80036; stroke-width: 1.0;"/><line style="stroke: #A80036; stroke-width: 1.5;" x1="258" x2="278" y1="260.2344" y2="260.2344"/><polygon fill="#A80036" points="268,256.2344,278,260.2344,268,264.2344,272,260.2344" style="stroke: #A80036; stroke-width: 1.0;"/><line style="stroke: #A80036; stroke-width: 1.5;" x1="468" x2="488" y1="260.2344" y2="260.2344"/><polygon fill="#A80036" points="478,256.2344,488,260.2344,478,264.2344,482,260.2344" style="stroke: #A80036; stroke-width: 1.0;"/><line style="stroke: #A80036; stroke-width: 1.5;" x1="360" x2="360" y1="228.2344" y2="233.2344"/><line style="stroke: #A80036; stroke-width: 1.5;" x1="360" x2="139.5" y1="233.2344" y2="233.2344"/><line style="stroke: #A80036; stroke-width: 1.5;" x1="139.5" x2="139.5" y1="233.2344" y2="248.2344"/><polygon fill="#A80036" points="135.5,238.2344,139.5,248.2344,143.5,238.2344,139.5,242.2344" style="stroke: #A80036; stroke-width: 1.0;"/><line style="stroke: #A80036; stroke-width: 1.5;" x1="649" x2="675" y1="260.2344" y2="260.2344"/><line style="stroke: #A80036; stroke-width: 1.5;" x1="675" x2="675" y1="260.2344" y2="357.9136"/><polygon fill="#A80036" points="671,347.9136,675,357.9136,679,347.9136,675,351.9136" style="stroke: #A80036; stroke-width: 1.0;"/><line style="stroke: #A80036; stroke-width: 1.5;" x1="139.5" x2="675" y1="357.9136" y2="357.9136"/><line style="stroke: #A80036; stroke-width: 1.5;" x1="360" x2="360" y1="455.8823" y2="483.3823"/><polygon fill="#A80036" points="356,473.3823,360,483.3823,364,473.3823,360,477.3823" style="stroke: #A80036; stroke-width: 1.0;"/><line style="stroke: #A80036; stroke-width: 1.5;" x1="360" x2="360" y1="401.9136" y2="421.9136"/><polygon fill="#A80036" points="356,411.9136,360,421.9136,364,411.9136,360,415.9136" style="stroke: #A80036; stroke-width: 1.0;"/><line style="stroke: #A80036; stroke-width: 1.5;" x1="415.5" x2="433.5" y1="549.3511" y2="549.3511"/><polygon fill="#A80036" points="429.5,475.8823,433.5,465.8823,437.5,475.8823,433.5,471.8823" style="stroke: #A80036; stroke-width: 1.5;"/><line style="stroke: #A80036; stroke-width: 1.5;" x1="433.5" x2="433.5" y1="389.9136" y2="549.3511"/><line style="stroke: #A80036; stroke-width: 1.5;" x1="433.5" x2="372" y1="389.9136" y2="389.9136"/><polygon fill="#A80036" points="382,385.9136,372,389.9136,382,393.9136,378,389.9136" style="stroke: #A80036; stroke-width: 1.0;"/><line style="stroke: #A80036; stroke-width: 1.5;" x1="360" x2="360" y1="517.3511" y2="537.3511"/><polygon fill="#A80036" points="356,527.3511,360,537.3511,364,527.3511,360,531.3511" style="stroke: #A80036; stroke-width: 1.0;"/><line style="stroke: #A80036; stroke-width: 1.5;" x1="360" x2="360" y1="357.9136" y2="377.9136"/><polygon fill="#A80036" points="356,367.9136,360,377.9136,364,367.9136,360,371.9136" style="stroke: #A80036; stroke-width: 1.0;"/><line style="stroke: #A80036; stroke-width: 1.5;" x1="360" x2="360" y1="561.3511" y2="581.3511"/><polygon fill="#A80036" points="356,571.3511,360,581.3511,364,571.3511,360,575.3511" style="stroke: #A80036; stroke-width: 1.0;"/><line style="stroke: #A80036; stroke-width: 1.5;" x1="360" x2="360" y1="83.9688" y2="130.2656"/><polygon fill="#A80036" points="356,120.2656,360,130.2656,364,120.2656,360,124.2656" style="stroke: #A80036; stroke-width: 1.0;"/><line style="stroke: #A80036; stroke-width: 1.5;" x1="360" x2="360" y1="615.3198" y2="647.3198"/><polygon fill="#A80036" points="356,637.3198,360,647.3198,364,637.3198,360,641.3198" style="stroke: #A80036; stroke-width: 1.0;"/><!--MD5=[ca9fce0ecb6785fa4660b2951c0985b0]
@startuml lesson-sequence
start
:Start Lesson;
partition "Lesson Sequence" {
  repeat :Loading;
  repeat while (Data is loading)
  if (?showLessonLandingScreen param present?) then (yes)
    :Lesson Landing Screen;
  else if (Lesson contains speak interaction?) then (yes)
    :Mic Settings Page;
  elseif (First trainer auto play audio?) then (yes)
    :Leaning Tip Screen;
  else (no)
  endif
  repeat
    :Trainer Sequence|
    :Lesson End Screen;
  repeat while (Correct mistakes?)
  :Continue Leaning / Close<
}
stop
@enduml

PlantUML version 1.2020.14(Sat Jun 20 14:14:34 GMT 2020)
(GPL source distribution)
Java Runtime: Java(TM) SE Runtime Environment
JVM: Java HotSpot(TM) 64-Bit Server VM
Default Encoding: ANSI_X3.4-1968
Language: en
Country: US
--></g></svg>