<?xml version="1.0" encoding="UTF-8" standalone="no"?><svg xmlns="http://www.w3.org/2000/svg" xmlns:xlink="http://www.w3.org/1999/xlink" contentScriptType="application/ecmascript" contentStyleType="text/css" height="518px" preserveAspectRatio="none" style="width:316px;height:518px;" version="1.1" viewBox="0 0 316 518" width="316px" zoomAndPan="magnify"><defs><filter height="300%" id="f1tjx6kxaw7kld" width="300%" x="-1" y="-1"><feGaussianBlur result="blurOut" stdDeviation="2.0"/><feColorMatrix in="blurOut" result="blurOut2" type="matrix" values="0 0 0 0 0 0 0 0 0 0 0 0 0 0 0 0 0 0 .4 0"/><feOffset dx="4.0" dy="4.0" in="blurOut2" result="blurOut3"/><feBlend in="SourceGraphic" in2="blurOut3" mode="normal"/></filter></defs><g><ellipse cx="131" cy="20" fill="#000000" filter="url(#f1tjx6kxaw7kld)" rx="10" ry="10" style="stroke: none; stroke-width: 1.0;"/><rect fill="#FFFFFF" filter="url(#f1tjx6kxaw7kld)" height="419.0078" style="stroke: #000000; stroke-width: 2.0;" width="288" x="11" y="40"/><path d="M131,41 L131,49.2969 L121,59.2969 L11,59.2969 " fill="none" style="stroke: #000000; stroke-width: 2.0;"/><text fill="#000000" font-family="sans-serif" font-size="14" lengthAdjust="spacingAndGlyphs" textLength="110" x="14" y="53.9951">Trainer Sequence</text><polygon fill="#FEFECE" filter="url(#f1tjx6kxaw7kld)" points="29,227.0703,243,227.0703,233,244.0547,243,261.0391,29,261.0391" style="stroke: #A80036; stroke-width: 1.5;"/><text fill="#000000" font-family="sans-serif" font-size="12" lengthAdjust="spacingAndGlyphs" textLength="184" x="39" y="248.209">Request microphone permissions</text><polygon fill="#FEFECE" filter="url(#f1tjx6kxaw7kld)" points="35,178.668,227,178.668,239,190.668,227,202.668,35,202.668,23,190.668,35,178.668" style="stroke: #A80036; stroke-width: 1.5;"/><text fill="#000000" font-family="sans-serif" font-size="11" lengthAdjust="spacingAndGlyphs" textLength="12" x="135" y="212.8784">no</text><text fill="#000000" font-family="sans-serif" font-size="11" lengthAdjust="spacingAndGlyphs" textLength="192" x="35" y="194.4761">User has given microphone permissions</text><polygon fill="#FEFECE" filter="url(#f1tjx6kxaw7kld)" points="131,281.0391,143,293.0391,131,305.0391,119,293.0391,131,281.0391" style="stroke: #A80036; stroke-width: 1.5;"/><polygon fill="#FEFECE" filter="url(#f1tjx6kxaw7kld)" points="60.5,130.2656,201.5,130.2656,213.5,142.2656,201.5,154.2656,60.5,154.2656,48.5,142.2656,60.5,130.2656" style="stroke: #A80036; stroke-width: 1.5;"/><text fill="#000000" font-family="sans-serif" font-size="11" lengthAdjust="spacingAndGlyphs" textLength="17" x="135" y="164.4761">yes</text><text fill="#000000" font-family="sans-serif" font-size="11" lengthAdjust="spacingAndGlyphs" textLength="141" x="60.5" y="146.0737">Required speech recognition?</text><polygon fill="#FEFECE" filter="url(#f1tjx6kxaw7kld)" points="131,325.0391,143,337.0391,131,349.0391,119,337.0391,131,325.0391" style="stroke: #A80036; stroke-width: 1.5;"/><rect fill="#FEFECE" filter="url(#f1tjx6kxaw7kld)" height="33.9688" style="stroke: #A80036; stroke-width: 1.5;" width="59" x="101.5" y="369.0391"/><line style="stroke: #A80036; stroke-width: 1.5;" x1="106.5" x2="106.5" y1="369.0391" y2="403.0078"/><line style="stroke: #A80036; stroke-width: 1.5;" x1="155.5" x2="155.5" y1="369.0391" y2="403.0078"/><text fill="#000000" font-family="sans-serif" font-size="12" lengthAdjust="spacingAndGlyphs" textLength="39" x="111.5" y="390.1777">Trainer</text><rect fill="#FEFECE" filter="url(#f1tjx6kxaw7kld)" height="33.9688" rx="12.5" ry="12.5" style="stroke: #A80036; stroke-width: 1.5;" width="85" x="88.5" y="76.2969"/><text fill="#000000" font-family="sans-serif" font-size="12" lengthAdjust="spacingAndGlyphs" textLength="65" x="98.5" y="97.4355">Next trainer</text><polygon fill="#FEFECE" filter="url(#f1tjx6kxaw7kld)" points="84.5,423.0078,177.5,423.0078,189.5,435.0078,177.5,447.0078,84.5,447.0078,72.5,435.0078,84.5,423.0078" style="stroke: #A80036; stroke-width: 1.5;"/><text fill="#000000" font-family="sans-serif" font-size="11" lengthAdjust="spacingAndGlyphs" textLength="93" x="84.5" y="438.8159">Has more trainers?</text><ellipse cx="131" cy="490.0078" fill="#FFFFFF" filter="url(#f1tjx6kxaw7kld)" rx="11" ry="11" style="stroke: #000000; stroke-width: 1.0;"/><ellipse cx="131" cy="490.0078" fill="#000000" rx="6" ry="6" style="stroke: #7F7F7F; stroke-width: 1.0;"/><line style="stroke: #A80036; stroke-width: 1.5;" x1="131" x2="131" y1="202.668" y2="227.0703"/><polygon fill="#A80036" points="127,217.0703,131,227.0703,135,217.0703,131,221.0703" style="stroke: #A80036; stroke-width: 1.0;"/><line style="stroke: #A80036; stroke-width: 1.5;" x1="239" x2="251" y1="190.668" y2="190.668"/><polygon fill="#A80036" points="247,234.0547,251,244.0547,255,234.0547,251,238.0547" style="stroke: #A80036; stroke-width: 1.5;"/><line style="stroke: #A80036; stroke-width: 1.5;" x1="251" x2="251" y1="190.668" y2="293.0391"/><line style="stroke: #A80036; stroke-width: 1.5;" x1="251" x2="143" y1="293.0391" y2="293.0391"/><polygon fill="#A80036" points="153,289.0391,143,293.0391,153,297.0391,149,293.0391" style="stroke: #A80036; stroke-width: 1.0;"/><line style="stroke: #A80036; stroke-width: 1.5;" x1="131" x2="131" y1="261.0391" y2="281.0391"/><polygon fill="#A80036" points="127,271.0391,131,281.0391,135,271.0391,131,275.0391" style="stroke: #A80036; stroke-width: 1.0;"/><line style="stroke: #A80036; stroke-width: 1.5;" x1="131" x2="131" y1="154.2656" y2="178.668"/><polygon fill="#A80036" points="127,168.668,131,178.668,135,168.668,131,172.668" style="stroke: #A80036; stroke-width: 1.0;"/><line style="stroke: #A80036; stroke-width: 1.5;" x1="213.5" x2="265" y1="142.2656" y2="142.2656"/><polygon fill="#A80036" points="261,234.0547,265,244.0547,269,234.0547,265,238.0547" style="stroke: #A80036; stroke-width: 1.5;"/><line style="stroke: #A80036; stroke-width: 1.5;" x1="265" x2="265" y1="142.2656" y2="337.0391"/><line style="stroke: #A80036; stroke-width: 1.5;" x1="265" x2="143" y1="337.0391" y2="337.0391"/><polygon fill="#A80036" points="153,333.0391,143,337.0391,153,341.0391,149,337.0391" style="stroke: #A80036; stroke-width: 1.0;"/><line style="stroke: #A80036; stroke-width: 1.5;" x1="131" x2="131" y1="305.0391" y2="325.0391"/><polygon fill="#A80036" points="127,315.0391,131,325.0391,135,315.0391,131,319.0391" style="stroke: #A80036; stroke-width: 1.0;"/><line style="stroke: #A80036; stroke-width: 1.5;" x1="131" x2="131" y1="349.0391" y2="369.0391"/><polygon fill="#A80036" points="127,359.0391,131,369.0391,135,359.0391,131,363.0391" style="stroke: #A80036; stroke-width: 1.0;"/><line style="stroke: #A80036; stroke-width: 1.5;" x1="131" x2="131" y1="110.2656" y2="130.2656"/><polygon fill="#A80036" points="127,120.2656,131,130.2656,135,120.2656,131,124.2656" style="stroke: #A80036; stroke-width: 1.0;"/><line style="stroke: #A80036; stroke-width: 1.5;" x1="189.5" x2="283" y1="435.0078" y2="435.0078"/><polygon fill="#A80036" points="279,281.6445,283,271.6445,287,281.6445,283,277.6445" style="stroke: #A80036; stroke-width: 1.5;"/><line style="stroke: #A80036; stroke-width: 1.5;" x1="283" x2="283" y1="93.2813" y2="435.0078"/><line style="stroke: #A80036; stroke-width: 1.5;" x1="283" x2="173.5" y1="93.2813" y2="93.2813"/><polygon fill="#A80036" points="183.5,89.2813,173.5,93.2813,183.5,97.2813,179.5,93.2813" style="stroke: #A80036; stroke-width: 1.0;"/><line style="stroke: #A80036; stroke-width: 1.5;" x1="131" x2="131" y1="403.0078" y2="423.0078"/><polygon fill="#A80036" points="127,413.0078,131,423.0078,135,413.0078,131,417.0078" style="stroke: #A80036; stroke-width: 1.0;"/><line style="stroke: #A80036; stroke-width: 1.5;" x1="131" x2="131" y1="30" y2="76.2969"/><polygon fill="#A80036" points="127,66.2969,131,76.2969,135,66.2969,131,70.2969" style="stroke: #A80036; stroke-width: 1.0;"/><line style="stroke: #A80036; stroke-width: 1.5;" x1="131" x2="131" y1="447.0078" y2="479.0078"/><polygon fill="#A80036" points="127,469.0078,131,479.0078,135,469.0078,131,473.0078" style="stroke: #A80036; stroke-width: 1.0;"/><!--MD5=[f0c5823aebdafa4a5f1a79f4b2123ee9]
@startuml trainer-sequence
start
partition "Trainer Sequence" {
  repeat :Next trainer;
    if (Required speech recognition?) then (yes)
      if (User has given microphone permissions) then (no)
        :Request microphone permissions<
      endif
    endif
    :Trainer|
  repeat while (Has more trainers?)
}
stop
@enduml

PlantUML version 1.2020.14(Sat Jun 20 14:14:34 GMT 2020)
(GPL source distribution)
Java Runtime: Java(TM) SE Runtime Environment
JVM: Java HotSpot(TM) 64-Bit Server VM
Default Encoding: ANSI_X3.4-1968
Language: en
Country: US
--></g></svg>