<?xml version="1.0" encoding="UTF-8" standalone="no"?><svg xmlns="http://www.w3.org/2000/svg" xmlns:xlink="http://www.w3.org/1999/xlink" contentScriptType="application/ecmascript" contentStyleType="text/css" height="343px" preserveAspectRatio="none" style="width:227px;height:343px;" version="1.1" viewBox="0 0 227 343" width="227px" zoomAndPan="magnify"><defs><filter height="300%" id="f1kclag5kw3ucz" width="300%" x="-1" y="-1"><feGaussianBlur result="blurOut" stdDeviation="2.0"/><feColorMatrix in="blurOut" result="blurOut2" type="matrix" values="0 0 0 0 0 0 0 0 0 0 0 0 0 0 0 0 0 0 .4 0"/><feOffset dx="4.0" dy="4.0" in="blurOut2" result="blurOut3"/><feBlend in="SourceGraphic" in2="blurOut3" mode="normal"/></filter></defs><g><ellipse cx="101.5" cy="20" fill="#000000" filter="url(#f1kclag5kw3ucz)" rx="10" ry="10" style="stroke: none; stroke-width: 1.0;"/><rect fill="#FFFFFF" filter="url(#f1kclag5kw3ucz)" height="244.1953" style="stroke: #000000; stroke-width: 2.0;" width="199" x="11" y="40"/><path d="M65,41 L65,49.2969 L55,59.2969 L11,59.2969 " fill="none" style="stroke: #000000; stroke-width: 2.0;"/><text fill="#000000" font-family="sans-serif" font-size="14" lengthAdjust="spacingAndGlyphs" textLength="44" x="14" y="53.9951">Trainer</text><polygon fill="#FEFECE" filter="url(#f1kclag5kw3ucz)" points="56.5,130.2656,146.5,130.2656,156.5,147.25,146.5,164.2344,56.5,164.2344" style="stroke: #A80036; stroke-width: 1.5;"/><text fill="#000000" font-family="sans-serif" font-size="12" lengthAdjust="spacingAndGlyphs" textLength="70" x="66.5" y="151.4043">Present item</text><rect fill="#FEFECE" filter="url(#f1kclag5kw3ucz)" height="33.9688" style="stroke: #A80036; stroke-width: 1.5;" width="80" x="61.5" y="194.2266"/><line style="stroke: #A80036; stroke-width: 1.5;" x1="66.5" x2="66.5" y1="194.2266" y2="228.1953"/><line style="stroke: #A80036; stroke-width: 1.5;" x1="136.5" x2="136.5" y1="194.2266" y2="228.1953"/><text fill="#000000" font-family="sans-serif" font-size="12" lengthAdjust="spacingAndGlyphs" textLength="60" x="71.5" y="215.3652">Interaction</text><rect fill="#FEFECE" filter="url(#f1kclag5kw3ucz)" height="33.9688" rx="12.5" ry="12.5" style="stroke: #A80036; stroke-width: 1.5;" width="134" x="34.5" y="76.2969"/><text fill="#000000" font-family="sans-serif" font-size="12" lengthAdjust="spacingAndGlyphs" textLength="114" x="44.5" y="97.4355">Next interactive item</text><polygon fill="#FEFECE" filter="url(#f1kclag5kw3ucz)" points="33,248.1953,170,248.1953,182,260.1953,170,272.1953,33,272.1953,21,260.1953,33,248.1953" style="stroke: #A80036; stroke-width: 1.5;"/><text fill="#000000" font-family="sans-serif" font-size="11" lengthAdjust="spacingAndGlyphs" textLength="137" x="33" y="264.0034">Has more interactive items?</text><ellipse cx="101.5" cy="315.1953" fill="#FFFFFF" filter="url(#f1kclag5kw3ucz)" rx="11" ry="11" style="stroke: #000000; stroke-width: 1.0;"/><ellipse cx="101.5" cy="315.1953" fill="#000000" rx="6" ry="6" style="stroke: #7F7F7F; stroke-width: 1.0;"/><line style="stroke: #A80036; stroke-width: 1.5;" x1="101.5" x2="101.5" y1="164.2344" y2="194.2266"/><polygon fill="#A80036" points="97.5,184.2266,101.5,194.2266,105.5,184.2266,101.5,188.2266" style="stroke: #A80036; stroke-width: 1.0;"/><line style="stroke: #A80036; stroke-width: 1.5;" x1="101.5" x2="101.5" y1="110.2656" y2="130.2656"/><polygon fill="#A80036" points="97.5,120.2656,101.5,130.2656,105.5,120.2656,101.5,124.2656" style="stroke: #A80036; stroke-width: 1.0;"/><line style="stroke: #A80036; stroke-width: 1.5;" x1="182" x2="194" y1="260.1953" y2="260.1953"/><polygon fill="#A80036" points="190,184.2344,194,174.2344,198,184.2344,194,180.2344" style="stroke: #A80036; stroke-width: 1.5;"/><line style="stroke: #A80036; stroke-width: 1.5;" x1="194" x2="194" y1="93.2813" y2="260.1953"/><line style="stroke: #A80036; stroke-width: 1.5;" x1="194" x2="168.5" y1="93.2813" y2="93.2813"/><polygon fill="#A80036" points="178.5,89.2813,168.5,93.2813,178.5,97.2813,174.5,93.2813" style="stroke: #A80036; stroke-width: 1.0;"/><line style="stroke: #A80036; stroke-width: 1.5;" x1="101.5" x2="101.5" y1="228.1953" y2="248.1953"/><polygon fill="#A80036" points="97.5,238.1953,101.5,248.1953,105.5,238.1953,101.5,242.1953" style="stroke: #A80036; stroke-width: 1.0;"/><line style="stroke: #A80036; stroke-width: 1.5;" x1="101.5" x2="101.5" y1="30" y2="76.2969"/><polygon fill="#A80036" points="97.5,66.2969,101.5,76.2969,105.5,66.2969,101.5,70.2969" style="stroke: #A80036; stroke-width: 1.0;"/><line style="stroke: #A80036; stroke-width: 1.5;" x1="101.5" x2="101.5" y1="272.1953" y2="304.1953"/><polygon fill="#A80036" points="97.5,294.1953,101.5,304.1953,105.5,294.1953,101.5,298.1953" style="stroke: #A80036; stroke-width: 1.0;"/><!--MD5=[93c1fcb341be12d33ef4bfbadb6f370e]
@startuml trainer
start
partition "Trainer" {
  repeat :Next interactive item;
    :Present item>
    :Interaction|
  repeat while (Has more interactive items?)
}
stop
@enduml

PlantUML version 1.2020.14(Sat Jun 20 14:14:34 GMT 2020)
(GPL source distribution)
Java Runtime: Java(TM) SE Runtime Environment
JVM: Java HotSpot(TM) 64-Bit Server VM
Default Encoding: ANSI_X3.4-1968
Language: en
Country: US
--></g></svg>