<?xml version="1.0" encoding="UTF-8" standalone="no"?><svg xmlns="http://www.w3.org/2000/svg" xmlns:xlink="http://www.w3.org/1999/xlink" contentScriptType="application/ecmascript" contentStyleType="text/css" height="388px" preserveAspectRatio="none" style="width:722px;height:388px;" version="1.1" viewBox="0 0 722 388" width="722px" zoomAndPan="magnify"><defs><filter height="300%" id="fbqcr3kb2ylsl" width="300%" x="-1" y="-1"><feGaussianBlur result="blurOut" stdDeviation="2.0"/><feColorMatrix in="blurOut" result="blurOut2" type="matrix" values="0 0 0 0 0 0 0 0 0 0 0 0 0 0 0 0 0 0 .4 0"/><feOffset dx="4.0" dy="4.0" in="blurOut2" result="blurOut3"/><feBlend in="SourceGraphic" in2="blurOut3" mode="normal"/></filter></defs><g><ellipse cx="501.4621" cy="32" fill="#000000" filter="url(#fbqcr3kb2ylsl)" rx="10" ry="10" style="stroke: none; stroke-width: 1.0;"/><g id="READY"><rect fill="#FEFECE" filter="url(#fbqcr3kb2ylsl)" height="64.2344" rx="12.5" ry="12.5" style="stroke: #A80036; stroke-width: 1.5;" width="245" x="260.9621" y="149"/><line style="stroke: #A80036; stroke-width: 1.5;" x1="260.9621" x2="505.9621" y1="175.2969" y2="175.2969"/><text fill="#000000" font-family="sans-serif" font-size="14" lengthAdjust="spacingAndGlyphs" textLength="41" x="362.9621" y="166.9951">READY</text><text fill="#000000" font-family="sans-serif" font-size="12" lengthAdjust="spacingAndGlyphs" textLength="162" x="265.9621" y="191.4355">Trainer is ready for user input.</text><text fill="#000000" font-family="sans-serif" font-size="12" lengthAdjust="spacingAndGlyphs" textLength="222" x="268.9621" y="205.4043">In this state the Interaction can be used.</text></g><g id="DONE"><rect fill="#FEFECE" filter="url(#fbqcr3kb2ylsl)" height="50.2656" rx="12.5" ry="12.5" style="stroke: #A80036; stroke-width: 1.5;" width="182" x="107.4621" y="7"/><line style="stroke: #A80036; stroke-width: 1.5;" x1="107.4621" x2="289.4621" y1="33.2969" y2="33.2969"/><text fill="#000000" font-family="sans-serif" font-size="14" lengthAdjust="spacingAndGlyphs" textLength="38" x="179.4621" y="24.9951">DONE</text><text fill="#000000" font-family="sans-serif" font-size="12" lengthAdjust="spacingAndGlyphs" textLength="162" x="112.4621" y="49.4355">No user interaction accepted.</text></g><g id="AWAITING_CONTINUE"><rect fill="#FEFECE" filter="url(#fbqcr3kb2ylsl)" height="64.2344" rx="12.5" ry="12.5" style="stroke: #A80036; stroke-width: 1.5;" width="233" x="81.9621" y="305"/><line style="stroke: #A80036; stroke-width: 1.5;" x1="81.9621" x2="314.9621" y1="331.2969" y2="331.2969"/><text fill="#000000" font-family="sans-serif" font-size="14" lengthAdjust="spacingAndGlyphs" textLength="142" x="127.4621" y="322.9951">AWAITING_CONTINUE</text><text fill="#000000" font-family="sans-serif" font-size="12" lengthAdjust="spacingAndGlyphs" textLength="153" x="86.9621" y="347.4355">Waiting for the user to press</text><text fill="#000000" font-family="sans-serif" font-size="12" lengthAdjust="spacingAndGlyphs" textLength="210" x="89.9621" y="361.4043">the final continue button of the trainer.</text></g><ellipse cx="26.4621" cy="181" fill="none" filter="url(#fbqcr3kb2ylsl)" rx="10" ry="10" style="stroke: #000000; stroke-width: 1.0;"/><ellipse cx="26.9621" cy="181.5" fill="#000000" rx="6" ry="6" style="stroke: none; stroke-width: 1.0;"/><!--MD5=[5d051701840a39d81aec12b7f4902293]
link *start to READY--><path d="M498.805,41.6933 C493.8033,58.6778 481.7268,94.3514 462.4621,119 C454.9467,128.6158 445.6346,137.6086 436.0703,145.6001 " fill="none" id="*start-&gt;READY" style="stroke: #A80036; stroke-width: 1.0;"/><polygon fill="#A80036" points="431.9603,148.9626,441.4589,146.3594,435.8302,145.7965,436.3931,140.1677,431.9603,148.9626" style="stroke: #A80036; stroke-width: 1.0;"/><text fill="#000000" font-family="sans-serif" font-size="13" lengthAdjust="spacingAndGlyphs" textLength="99" x="481.4621" y="107.5669">Trainer Mounted</text><!--MD5=[9698788b21852df834c544b22ec59b41]
reverse link DONE to READY--><path d="M286.0155,59.3191 C301.5661,66.6991 316.8121,75.828 329.4621,87 C348.3652,103.6944 362.2744,128.6666 371.2385,148.6767 " fill="none" id="DONE&lt;-READY" style="stroke: #A80036; stroke-width: 1.0;"/><polygon fill="#A80036" points="281.1822,57.0846,287.673,64.492,285.7207,59.1827,291.03,57.2304,281.1822,57.0846" style="stroke: #A80036; stroke-width: 1.0;"/><text fill="#000000" font-family="sans-serif" font-size="13" lengthAdjust="spacingAndGlyphs" textLength="84" x="358.4621" y="100.0669">Complete item</text><text fill="#000000" font-family="sans-serif" font-size="13" lengthAdjust="spacingAndGlyphs" textLength="91" x="356.4621" y="115.1997">(Sound Playing)</text><!--MD5=[900ee293daafcebe34880185d96c30be]
link DONE to READY--><path d="M198.8106,57.3693 C200.3766,76.4584 205.4393,102.1287 220.4621,119 C230.5017,130.2749 242.8143,139.5098 256.1335,147.0716 " fill="none" id="DONE-&gt;READY" style="stroke: #A80036; stroke-width: 1.0;"/><polygon fill="#A80036" points="260.6872,149.5725,254.7241,141.7341,256.3046,147.1656,250.8731,148.7462,260.6872,149.5725" style="stroke: #A80036; stroke-width: 1.0;"/><text fill="#000000" font-family="sans-serif" font-size="13" lengthAdjust="spacingAndGlyphs" textLength="84" x="227.4621" y="100.0669">Complete item</text><text fill="#000000" font-family="sans-serif" font-size="13" lengthAdjust="spacingAndGlyphs" textLength="99" x="221.4621" y="115.1997">(Sound Finished)</text><!--MD5=[6976270180b22ae2801cf66b4691f002]
link READY to READY--><path d="M506.289,167.4069 C526.8053,169.3088 540.9621,173.8398 540.9621,181 C540.9621,187.5448 529.134,191.893 511.4325,194.0445 " fill="none" id="READY-&gt;READY" style="stroke: #A80036; stroke-width: 1.0;"/><polygon fill="#A80036" points="506.289,194.5931,515.6625,197.616,511.2608,194.0628,514.814,189.6612,506.289,194.5931" style="stroke: #A80036; stroke-width: 1.0;"/><text fill="#000000" font-family="sans-serif" font-size="13" lengthAdjust="spacingAndGlyphs" textLength="84" x="585.4621" y="178.0669">Complete item</text><text fill="#000000" font-family="sans-serif" font-size="13" lengthAdjust="spacingAndGlyphs" textLength="164" x="546.9621" y="193.1997">(non-interactive / no sound)</text><!--MD5=[b1e9a35fa885274b42f3b07cb22bdcd0]
link READY to AWAITING_CONTINUE--><path d="M345.13,213.3233 C314.6424,239.0317 272.0332,274.9616 240.5933,301.4732 " fill="none" id="READY-&gt;AWAITING_CONTINUE" style="stroke: #A80036; stroke-width: 1.0;"/><polygon fill="#A80036" points="236.4282,304.9854,245.8872,302.2416,240.2507,301.7622,240.7301,296.1257,236.4282,304.9854" style="stroke: #A80036; stroke-width: 1.0;"/><text fill="#000000" font-family="sans-serif" font-size="13" lengthAdjust="spacingAndGlyphs" textLength="84" x="308.4621" y="256.0669">Complete item</text><text fill="#000000" font-family="sans-serif" font-size="13" lengthAdjust="spacingAndGlyphs" textLength="59" x="322.4621" y="271.1997">(Last item)</text><!--MD5=[07b7349c110fefd95631f2ca7c8d6f53]
link AWAITING_CONTINUE to DONE--><path d="M194.833,304.9365 C192.1929,279.9304 188.848,244.3072 187.4621,213 C186.2042,184.5834 186.1294,177.4132 187.4621,149 C188.8485,119.4431 192.1945,85.8242 194.8348,62.2322 " fill="none" id="AWAITING_CONTINUE-&gt;DONE" style="stroke: #A80036; stroke-width: 1.0;"/><polygon fill="#A80036" points="195.4206,57.0575,190.4334,65.5503,194.8581,62.0258,198.3826,66.4504,195.4206,57.0575" style="stroke: #A80036; stroke-width: 1.0;"/><text fill="#000000" font-family="sans-serif" font-size="13" lengthAdjust="spacingAndGlyphs" textLength="54" x="188.4621" y="185.5669">Continue</text><!--MD5=[ad73474698e21005f8a0eea3080e5769]
link DONE to *end--><path d="M107.0582,50.3626 C70.3958,59.7487 34.2499,72.3015 23.4621,87 C6.2575,110.4414 14.4414,146.758 21.0166,166.6926 " fill="none" id="DONE-&gt;*end" style="stroke: #A80036; stroke-width: 1.0;"/><polygon fill="#A80036" points="22.7215,171.6234,23.5608,161.8104,21.0876,166.8979,16,164.4247,22.7215,171.6234" style="stroke: #A80036; stroke-width: 1.0;"/><text fill="#000000" font-family="sans-serif" font-size="13" lengthAdjust="spacingAndGlyphs" textLength="115" x="24.4621" y="100.0669">Trainer unmounted</text><text fill="#000000" font-family="sans-serif" font-size="13" lengthAdjust="spacingAndGlyphs" textLength="67" x="49.9621" y="115.1997">by onFinish</text><!--MD5=[3028c76857171d548cd5afe6ed8bb066]
@startuml trainer-state

[*] - -> READY : Trainer Mounted
READY: Trainer is ready for user input. \n In this state the Interaction can be used.
READY -left-> DONE : Complete item \n(Sound Playing)
READY - -> READY : Complete item \n(non-interactive / no sound)
DONE - -> READY : Complete item \n(Sound Finished)
READY - -> AWAITING_CONTINUE : Complete item \n(Last item)
AWAITING_CONTINUE - -> DONE : Continue

AWAITING_CONTINUE: Waiting for the user to press \n the final continue button of the trainer. 

DONE: No user interaction accepted.
DONE - -> [*] : Trainer unmounted \nby onFinish

@enduml

PlantUML version 1.2020.14(Sat Jun 20 14:14:34 GMT 2020)
(GPL source distribution)
Java Runtime: Java(TM) SE Runtime Environment
JVM: Java HotSpot(TM) 64-Bit Server VM
Default Encoding: ANSI_X3.4-1968
Language: en
Country: US
--></g></svg>