<svg width="46" height="79" xmlns="http://www.w3.org/2000/svg"><g fill="none" fill-rule="evenodd"><path d="M-26-7h96v96h-96z"/><g transform="translate(-1 1)"><path d="M22 15v5c0 1.6568542 1.3431458 3 3 3s3-1.3431458 3-3v-5h-6zM39.15758731 27.02127882l-8.61926065 11.03215055 6.30408603 4.9252918 8.61926065-11.03215054-6.30408603-4.9252918z" stroke="#394149" stroke-width="2" fill="#D0EDE7"/><path fill="#44CDC8" d="M39.50228587 29.82862328l3.15204301 2.4626459-6.15661475 7.88010754-3.15204301-2.4626459z"/><path d="M18.7142857 24.8809524L19 25h17v51H13V48h1v-3.5-11l-1-1c-.2430025-.3367453-1.2430025-1.503412-3-3.5-1.75699745-1.996588-4.42366412-4.996588-8-9L6 8V3.5l3-3V17l10 7.5-.2857143.3809524z" fill="#D0EDE7"/><path fill="#44CDC8" d="M20 61.8421053L22 60.5V69h-2zM28 56.9482759L30 55.5v14h-2z"/><path stroke="#394149" stroke-width="2" d="M35 52v18H14v-6"/><path fill="#44CDC8" d="M24 59.375L26 58v11h-2z"/><path stroke="#394149" stroke-width="2" d="M29 26h6v24h-6z"/><path d="M13 76h23v-2H13v2zm-1.3263158-4h25.6526316C37.6983813 72 38 72.3016187 38 72.6736842v4.6526316C38 77.6983813 37.6983813 78 37.3263158 78H11.6736842C11.3016187 78 11 77.6983813 11 77.3263158v-4.6526316C11 72.3016187 11.3016187 72 11.6736842 72z" fill="#394149" fill-rule="nonzero"/><path d="M15.008184 60.6797904V58h-2v5h2v-.0213475L27.0000008 55v-2L15.008184 60.6797904z" fill="#394149"/><path fill="#394149" d="M13 60l2-1V46l12-6v-2l-14 7zM14 43.5l2-1v-7L27 30v-2l-13 6.5zM11 21v-1c0-.44318.3592684-.8024485.8024485-.8024485.158516 0 .3134812.0469484.4453447.134922l1.0318744.6884219L19.8435162 25h7.1443995v2h-7.4170144l-.0028668.002578L19.4140209 27H19v-.0069302l-.001059-.0000178L13 22.4984614V29.5l2 2-1.5 1.5-2.2279888-2.3916881c-.1556721-.1671099-.2489714-.3819126-.2656067-.6083119h-.0011158l-.0000092-.0173815c-.000966-.0172531-.0014868-.0345679-.0015563-.0519286L11 29l.0047585-.0023793-.0042294-7.9972243zM8 9h1c.55228475 0 1 .44771525 1 1v19H9l-7.68690028-7.2653895c-.18060881-.1707051-.29048626-.4018161-.30997311-.6477009l-.02479633-.0113383L1 21.0012673V21L4.5 9H8zm0 2H6.06866566l-2.68861541 9.6376643L8 25.0778296V11zM6 6h3v2H6z"/><path d="M7.5 5C8.32842712 5 9 4.32842712 9 3.5v-3l-1 1c-1.33333333.78104858-2 1.44771525-2 2C6 4.32842712 6.67157288 5 7.5 5z" stroke="#394149"/><path d="M29 12c-.9846161-.6666667-1.9846161-1-3-1-2.4974348 0-3.97435897.1428571-5 1" stroke="#394149" stroke-width="2" stroke-linecap="round"/><rect fill="#394149" x="24" y="4" width="2" height="5" rx="1"/><rect fill="#394149" transform="rotate(-15 21.483564 7.190671)" x="20.4835639" y="5.1906707" width="2" height="4" rx="1"/><rect fill="#394149" transform="rotate(-30 19.366025 9.366025)" x="18.3660254" y="8.3660254" width="2" height="2" rx="1"/><rect fill="#394149" transform="rotate(15 28.483564 7.190671)" x="27.4835639" y="5.1906707" width="2" height="4" rx="1"/><rect fill="#394149" transform="rotate(30 30.366025 9.366025)" x="29.3660254" y="8.3660254" width="2" height="2" rx="1"/><path fill="#44CDC8" d="M31 29h2v18h-2z"/></g></g></svg>
