<svg width="32" height="75" xmlns="http://www.w3.org/2000/svg"><g fill="none" fill-rule="evenodd"><path d="M-33-11h96v96h-96z"/><path fill="#394149" d="M14 6h4v8h-4z"/><path d="M11 28h10V16c0-2.7614237-2.2385763-5-5-5s-5 2.2385763-5 5v12z" stroke="#394149" stroke-width="2" fill="#FBDEA4"/><path fill="#FFAF00" d="M15.934031 12.7948708l2 4h-4z"/><path d="M8 34h16v-9c0-4.418278-3.581722-8-8-8s-8 3.581722-8 8v9z" stroke="#394149" stroke-width="2" fill="#FBDEA4"/><path d="M12.93771753 19.60228307l3.08209633 3.24047561-3.82521902 1.16948682.74312269-4.40996243zm6.30974828.08175722l.51130467 4.44281077L16 22.75877048l3.24746581-3.0747302z" fill="#FFAF00"/><path d="M6 32.8421053C6 27.4064606 10.4771525 23 16 23s10 4.4064606 10 9.8421053" stroke="#394149" stroke-width="2" fill="#FBDEA4" stroke-linecap="square" stroke-linejoin="round"/><path d="M17.9087225 29.0021919l-3.4896149.0609115-2.4798691 1.3746139-.1899991-4.4680981 2.8639961 1.9635862 1.3864599-2.8983006 1.5951357 3.0557515 3.0936468-2.1210371-.1899991 4.4680981-2.5897563-1.4355254z" fill="#FFAF00"/><path d="M1 55v19h30V55h-2V42c0-7.1797017-5.8202983-13-13-13-7.17970175 0-13 5.8202983-13 13v13H1z" stroke="#394149" stroke-width="2" fill="#FBDEA4"/><g fill="#FFAF00"><path d="M10.24191024 39.05827238l-.42738854-4.79494572 4.09916106 2.67154604 2.01527074-4.14908672 2.39999993 4.94117647h-4.6850816l-2.28370332 1.3721874.25288769.00924421-2.28029044 4.28860258-3.27459275-4.4916591 4.18373723.15293484z"/><path d="M20.52593846 39.0921952l-.16237156.00593544 2.2534635 4.23814845 3.23606812-4.43881607-4.18764814.1530778.4262424-4.782087-4.60209555 2.99932352 3.03634123 1.82441786z"/></g><path d="M9 72V43.2820513C9 39.8125702 12.1340068 37 16 37s7 2.8125702 7 6.2820513V72" stroke="#394149" stroke-width="2"/><g fill="#FFAF00"><path d="M12 45h2v2h-2zM15 45h2v2h-2zM18 45h2v2h-2zM12 49h2v2h-2zM15 49h2v2h-2zM18 49h2v2h-2zM12 53h2v2h-2zM15 53h2v2h-2zM18 53h2v2h-2zM12 57h2v2h-2zM15 57h2v2h-2zM18 57h2v2h-2zM12 65h2v2h-2zM15 65h2v2h-2zM18 65h2v2h-2zM12 61h2v2h-2zM15 61h2v2h-2zM18 61h2v2h-2zM12 69h2v2h-2zM15 69h2v2h-2zM18 69h2v2h-2z"/></g><path fill="#394149" d="M15 0h2v6h-2z"/></g></svg>
