<svg width="28" height="76" xmlns="http://www.w3.org/2000/svg"><g fill="none" fill-rule="evenodd"><path d="M16 7.86842105L23.5 13h-19L12 7.86842105V4h4v3.86842105zM2 47H1V22h1v-5h1v-3h22v3h1v5h1v25h-2v27H2V47zM13 2h2v1h-2V2z" fill="#D1EEFC"/><path d="M13 31v5M17 35h-5" stroke="#738CE6" stroke-width="2"/><path fill="#738CE6" d="M7 51h3v20H7zM12 51h3v20h-3zM17 51h3v20h-3z"/><path d="M2 47h24c.5522847 0 1-.4477153 1-1V22c0-.5522847-.4477153-1-1-1H2c-.55228475 0-1 .4477153-1 1v24c0 .5522847.44771525 1 1 1z" stroke="#394149" stroke-width="2"/><path d="M21 34.0508475c0-4.2127119-3.3575-7.6271187-7.5-7.6271187S6 29.8381356 6 34.0508475c0 4.2127118 3.3575 7.6271186 7.5 7.6271186s7.5-3.4144068 7.5-7.6271186zM24 49v25c0 .5522847-.4477153 1-1 1H4c-.55228475 0-1-.4477153-1-1V49" stroke="#394149" stroke-width="2"/><path fill="#394149" d="M21.9999998 11.99999992l-5.49999998-3.91566146-3.5 6e-8 5.50000003 3.91566142z"/><path fill="#394149" d="M6.00000021 11.96722405l5.49999999-3.88288559 3.50000003-3e-8-5.5 3.91566152zM13 0h2v2h-2z"/><path d="M4 17h20v-2H4v2zm-1.32631579-4H25.3263158C25.6983813 13 26 13.3016187 26 13.6736842v4.6526316C26 18.6983813 25.6983813 19 25.3263158 19H2.67368421C2.30161869 19 2 18.6983813 2 18.3263158v-4.6526316C2 13.3016187 2.30161869 13 2.67368421 13zM13 5v2h2V5h-2zm-1.3263158-2h4.6526316C16.6983813 3 17 3.30161869 17 3.67368421v4.65263158C17 8.69838131 16.6983813 9 16.3263158 9h-4.6526316C11.3016187 9 11 8.69838131 11 8.32631579V3.67368421C11 3.30161869 11.3016187 3 11.6736842 3z" fill="#394149" fill-rule="nonzero"/></g></svg>
