<svg width="78" height="69" xmlns="http://www.w3.org/2000/svg"><g fill="none" fill-rule="evenodd"><path d="M-9-27h96v96H-9z"/><path d="M66.0512821 68H11.95l.05 1H1.05259611a1.00005422 1.00005422 0 0 1-.05121475-.0013123c-.55155997-.0282852-.97575804-.4983425-.94747291-1.0499025L1 49.5V8l5-8 5 8v32h3v-7h8v-7h4.5l.5-4.5c0-1.3333333 1.5-3 4.5-5 2.5-1.6666667 6-2.3333333 10.5-2 4.5.3333333 8 4.1666667 10.5 11.5H56v7h8v7h3V9l5-9 5 8v41l.9475031 18.9500624A.99993182.99993182 0 0 1 77.9487508 68c0 .5522847-.4477153 1-1 1H66l.0512821-1z" fill="#D0EDE7"/><path d="M26 27c0-6.627417 5.8202983-12 13-12s13 5.372583 13 12h3v4H23v-4h3zM9 41h60m0 27H9M18 34h42v4H18z" stroke="#394149" stroke-width="2"/><path fill="#D0EDE7" d="M61 12l-3 6.5V54l-1 15h8l-1-16V18.5zM17 12l-3 6.5V54l-1 15h8l-1-16V18.5z"/><path d="M9.09750156 51H2.90249844l-.8 16h7.79500312l-.8-16zM1 49h10l1 20H1.05124922c-.55228475 0-1-.4477153-1-1 0-.0111024.31625026-6.3444358.94875078-19z" fill="#394149" fill-rule="nonzero"/><path stroke="#394149" stroke-width="2" d="M2 25h8v22H2zM2 8.28679623V19h8V8.28679623l-4-6.4-4 6.4z"/><path fill="#394149" d="M1 21h10v2H1z"/><path d="M75.8975016 67l-.8-16h-6.1950032l-.8 16h7.7950032zM67 49h10l.9475031 18.9500624c.0275798.5515957-.397219 1.0211102-.9488147 1.0486899A.99993482.99993482 0 0 1 76.9487508 69H66l1-20z" fill="#394149" fill-rule="nonzero"/><path stroke="#394149" stroke-width="2" d="M68 25h8v22h-8zM68 8.28679623V19h8V8.28679623l-4-6.4-4 6.4z"/><path fill="#394149" d="M67 21h10v2H67z"/><path d="M58.9394512 54l-.875 14h5.8710976l-.875-14h-4.1210976zM59 33h4v18h-4zM59 18.6227463V27h4v-8.3772537l-2-4.2666667-2 4.2666667z" stroke="#394149" stroke-width="2"/><path fill="#394149" d="M58 29h6v2h-6z"/><path d="M14.9394512 54l-.875 14h5.8710976l-.875-14h-4.1210976zM15 33h4v18h-4zM15 18.6227463V27h4v-8.3772537l-2-4.2666667-2 4.2666667z" stroke="#394149" stroke-width="2"/><path fill="#394149" d="M14 29h6v2h-6z"/><path d="M53 67c0-8.836556-6.2680135-16-14-16s-14 7.163444-14 16" stroke="#394149" stroke-width="2"/><g fill="#44CDC8"><path d="M29 63c.5522847 0 1 .4477153 1 1v2h-2v-2c0-.5522847.4477153-1 1-1zM33 63c.5522847 0 1 .4477153 1 1v2h-2v-2c0-.5522847.4477153-1 1-1zM37 63c.5522847 0 1 .4477153 1 1v2h-2v-2c0-.5522847.4477153-1 1-1zM41 63c.5522847 0 1 .4477153 1 1v2h-2v-2c0-.5522847.4477153-1 1-1zM45 63c.5522847 0 1 .4477153 1 1v2h-2v-2c0-.5522847.4477153-1 1-1zM49 63c.5522847 0 1 .4477153 1 1v2h-2v-2c0-.5522847.4477153-1 1-1zM34 55c.5522847 0 1 .4477153 1 1v2h-2v-2c0-.5522847.4477153-1 1-1zM44 55c.5522847 0 1 .4477153 1 1v2h-2v-2c0-.5522847.4477153-1 1-1zM39 54c1.1045695 0 2 .8954305 2 2v2h-4v-2c0-1.1045695.8954305-2 2-2zM5 28h2v16H5zM5 9h2v8H5zM71 9h2v8h-2zM71 28h2v16h-2zM4 53h4v12H4zM70 53h4v12h-4zM48 28c0-4.9705627-4.0294373-9-9-9s-9 4.0294373-9 9"/></g></g></svg>
