<svg width="36" height="75" xmlns="http://www.w3.org/2000/svg"><g fill="none" fill-rule="evenodd"><path d="M1 22.2777778V73c0 1.1045695.8954305 2 2 2h30c1.1045695 0 2-.8954305 2-2V22.2777778l-9-8.6180556V8.08333333h-4L17.5 2 13 8.08333333H9v5.57638887l-8 8.6180556z" fill="#FBDEA4"/><rect fill="#394149" y="23" width="36" height="2" rx="1"/><path d="M34 54v19.1304348C34 73.6106824 33.5786209 74 33.0588235 74H2.94117647C2.42137906 74 2 73.6106824 2 73.1304348V54" stroke="#394149" stroke-width="2"/><path d="M3 41v10h30V41H3zm-1-2h32c.5522847 0 1 .4477153 1 1v12c0 .5522847-.4477153 1-1 1H2c-.55228475 0-1-.4477153-1-1V40c0-.5522847.44771525-1 1-1zM3 28v8h30v-8H3zm-1-2h32c.5522847 0 1 .4477153 1 1v10c0 .5522847-.4477153 1-1 1H2c-.55228475 0-1-.4477153-1-1V27c0-.5522847.44771525-1 1-1z" fill="#394149" fill-rule="nonzero"/><g fill="#FFAF00"><path d="M9 43c1.65685425 0 3 1.34314575 3 3v3H6v-3c0-1.65685425 1.34314575-3 3-3zM18 43c1.6568542 0 3 1.34314575 3 3v3h-6v-3c0-1.65685425 1.3431458-3 3-3zM27 43c1.6568542 0 3 1.34314575 3 3v3h-6v-3c0-1.65685425 1.3431458-3 3-3z"/></g><path d="M9.5 30c.8284271 0 1.5.6715729 1.5 1.5V34H8v-2.5c0-.8284271.67157288-1.5 1.5-1.5zM18.5 30c.8284271 0 1.5.6715729 1.5 1.5V34h-3v-2.5c0-.8284271.6715729-1.5 1.5-1.5zM26.5 30c.8284271 0 1.5.6715729 1.5 1.5V34h-3v-2.5c0-.8284271.6715729-1.5 1.5-1.5z" fill="#FFAF00"/><path d="M9 9l2-2v2H9zm2 0h2.0292358l4.1140429-5.75966005L22.0801302 9H24v4.8284271L32.1715729 22H35l-9-9V7h-3L17.8308959.9693786a.9999974.9999974 0 0 0-.1780184-.1629421c-.4494126-.32100899-1.0739626-.2169173-1.3949716.23249528L12 7H9v6l-8 9h2.67590991L11 13.7603986V9zm6.8853728-6.79859183c-.321009.44941259-.9455591.55350427-1.3949717.23249528a1.0000042 1.0000042 0 0 1-.1780184-.1629421l.830896.9693786.7420941-1.03893178zM24 7l2 2h-2V7zm0 6.8284271L32.1715729 22H35l-9-9V7h-3L17.8308959.9693786a.9999974.9999974 0 0 0-.1780184-.1629421c-.4494126-.32100899-1.0739626-.2169173-1.3949716.23249528L12 7H9v6l-8 9h2.67590991L11 13.7603986V9h2.0292358l4.1140429-5.75966005L22.0801302 9H24v4.8284271zM17.8853728 2.20140817c-.321009.44941259-.9455591.55350427-1.3949717.23249528a1.0000042 1.0000042 0 0 1-.1780184-.1629421l.830896.9693786.7420941-1.03893178z" fill="#394149" fill-rule="nonzero"/><path fill="#FFAF00" d="M6 55h6v8H6zM15 55h6v8h-6zM24 55h6v8h-6z"/></g></svg>
