<svg width="64" height="76" xmlns="http://www.w3.org/2000/svg"><g fill="none" fill-rule="evenodd"><path fill="#D1EEFC" d="M2 16v35L0 61v14h64V61l-3-10v-7H20V16z"/><path d="M1 63v12h62V63H1zM2.8198039 52l-1.6 8h61.4361654l-2.4-8H2.8198039zM3 29h16v20H3zM22 45h38v4H22z" stroke="#394149" stroke-width="2"/><path d="M4 19v6h14v-6H4zm-2-2h18v10H2V17z" fill="#394149" fill-rule="nonzero"/><g fill="#738CE6"><path d="M6 66h4v4H6zM40 66h4v4h-4zM13 66h4v4h-4zM47 66h4v4h-4zM20 66h4v4h-4zM54 66h4v4h-4zM32 67c1.1045695 0 2 .8954305 2 2v4h-4v-4c0-1.1045695.8954305-2 2-2zM8 20c.55228475 0 1 .44771525 1 1v3H7v-3c0-.55228475.44771525-1 1-1zM14 20c.55228475 0 1 .44771525 1 1v3h-2v-3c0-.55228475.44771525-1 1-1z"/></g><path d="M12 0h6v6h-6v5h-2V0h2z" fill="#394149"/><path d="M18.9184979 15C18.3643504 11.6277796 15.0501664 9 11 9c-4.05016644 0-7.36435044 2.6277796-7.91849791 6H18.9184979z" stroke="#394149" stroke-width="2" fill="#D1EEFC"/></g></svg>
